<?xml version="1.0" encoding="UTF-8" standalone="no"?>
<svg width="400" height="120" viewBox="0 0 400 120" xmlns="http://www.w3.org/2000/svg">
  
  <!-- Red A Shape -->
  <g id="red-a">
    <!-- Left side of A -->
    <path d="M 40 100 L 60 40 L 80 100" fill="none" stroke="#DC143C" stroke-width="8" stroke-linecap="round" stroke-linejoin="round"/>
    <!-- Right side of A -->
    <path d="M 80 100 L 100 40 L 120 100" fill="none" stroke="#DC143C" stroke-width="8" stroke-linecap="round" stroke-linejoin="round"/>
    <!-- Crossbar of A -->
    <line x1="50" y1="80" x2="110" y2="80" stroke="#DC143C" stroke-width="6" stroke-linecap="round"/>
  </g>
  
  <!-- Blue Globe -->
  <g id="globe" transform="translate(70, 70)">
    <circle cx="0" cy="0" r="25" fill="#1E90FF"/>
    <!-- Continents -->
    <g fill="#87CEEB">
      <!-- Europe -->
      <path d="M -15 -5 Q -10 -10 -5 -8 Q -2 -6 0 -8 Q 2 -6 5 -8 Q 8 -10 12 -5 Q 10 -2 8 0 Q 5 2 0 0 Q -5 2 -8 0 Q -10 -2 -12 -5 Z"/>
      <!-- Africa -->
      <path d="M -5 -8 Q -3 -12 0 -15 Q 3 -12 5 -8 Q 3 -5 0 -3 Q -3 -5 -5 -8 Z"/>
      <!-- Asia -->
      <path d="M 8 -5 Q 12 -8 15 -5 Q 18 -3 20 -5 Q 22 -8 25 -5 Q 23 -2 20 0 Q 18 2 15 0 Q 12 -2 8 -5 Z"/>
    </g>
  </g>
  
  <!-- Text: Tax -->
  <text x="150" y="50" font-family="Arial, sans-serif" font-size="36" font-weight="bold" fill="#DC143C">Tax</text>
  <!-- Registered trademark symbol -->
  <circle cx="195" cy="25" r="6" fill="#DC143C"/>
  <text x="195" y="30" font-family="Arial, sans-serif" font-size="8" font-weight="bold" fill="white" text-anchor="middle">®</text>
  
  <!-- Subtitle: Accountants and Tax Consultants -->
  <text x="150" y="75" font-family="Arial, sans-serif" font-size="14" fill="#1E3A8A">Accountants and Tax Consultants</text>
  
  <!-- Trade name -->
  <text x="150" y="95" font-family="Arial, sans-serif" font-size="12" fill="#1E3A8A">A trade name of </text>
  <text x="250" y="95" font-family="Arial, sans-serif" font-size="12" font-weight="bold" fill="#DC143C">AAziz &amp; Co.</text>
</svg>