<?xml version="1.0" encoding="UTF-8" standalone="no"?>
<!-- Created with Inkscape (http://www.inkscape.org/) -->

<svg
   xmlns:dc="http://purl.org/dc/elements/1.1/"
   xmlns:cc="http://creativecommons.org/ns#"
   xmlns:rdf="http://www.w3.org/1999/02/22-rdf-syntax-ns#"
   xmlns:svg="http://www.w3.org/2000/svg"
   xmlns="http://www.w3.org/2000/svg"
   xmlns:xlink="http://www.w3.org/1999/xlink"
   xmlns:sodipodi="http://sodipodi.sourceforge.net/DTD/sodipodi-0.dtd"
   xmlns:inkscape="http://www.inkscape.org/namespaces/inkscape"
   width="402.79999mm"
   height="73.242996mm"
   viewBox="0 0 402.79999 73.242996"
   version="1.1"
   id="svg8"
   inkscape:version="0.92.4 (5da689c313, 2019-01-14)"
   sodipodi:docname="aaziz_logo_footer.svg">
  <defs
     id="defs2">
    <linearGradient
       id="linearGradient1045">
      <stop
         id="stop1041"
         style="stop-color:#ffffff;stop-opacity:1"
         offset="0" />
      <stop
         id="stop1043"
         style="stop-color:#e6e6e6;stop-opacity:1"
         offset="1" />
    </linearGradient>
    <radialGradient
       id="rgrd_dropShadow"
       cx="57.606583"
       cy="268.02493"
       r="77.76889"
       gradientTransform="scale(1.3887302,0.72008228)"
       fx="57.606583"
       fy="268.02493"
       gradientUnits="userSpaceOnUse">
      <stop
         id="rgrd_dropShadow_st0"
         style="stop-color:#000000;stop-opacity:0.75"
         offset="0" />
      <stop
         id="rgrd_dropShadow_st1"
         style="stop-color:#000000;stop-opacity:0"
         offset="1" />
    </radialGradient>
    <filter
       x="-0.1"
       width="1.2"
       y="-0.2"
       height="1.4"
       id="filt_blurDropShadow">
      <feGaussianBlur
         stdDeviation="4.14"
         id="fegb_blurDropShadow" />
    </filter>
    <linearGradient
       inkscape:collect="always"
       xlink:href="#lgrd_redVelvet"
       id="linearGradient5963"
       gradientTransform="scale(0.68599434,1.457738)"
       x1="0"
       y1="0"
       x2="116.61904"
       y2="0"
       gradientUnits="userSpaceOnUse" />
    <linearGradient
       id="lgrd_redVelvet">
      <stop
         offset="0"
         style="stop-color:#ffffff;stop-opacity:1"
         id="lgrd_redVelvet_st0" />
      <stop
         offset="1"
         style="stop-color:#e6e6e6;stop-opacity:1"
         id="lgrd_redVelvet_st1" />
    </linearGradient>
    <radialGradient
       id="rgrd_blueMarble"
       cx="80"
       cy="80"
       r="95"
       fx="80"
       fy="80"
       gradientUnits="userSpaceOnUse"
       gradientTransform="matrix(0.4069068,0,0,0.4069068,-407.77475,106.92098)">
      <stop
         offset="0"
         style="stop-color:#1cd7fb;stop-opacity:1"
         id="rgrd_blueMarble_st0" />
      <stop
         offset="0.45"
         style="stop-color:#1eadeb;stop-opacity:1"
         id="rgrd_blueMarble_st1" />
      <stop
         offset="0.60"
         style="stop-color:#0e8adc;stop-opacity:1"
         id="rgrd_blueMarble_st2" />
      <stop
         offset="0.77"
         style="stop-color:#065297;stop-opacity:1"
         id="rgrd_blueMarble_st3" />
      <stop
         offset="0.90"
         style="stop-color:#044374;stop-opacity:1"
         id="rgrd_blueMarble_st4" />
      <stop
         offset="1"
         style="stop-color:#043f74;stop-opacity:0"
         id="rgrd_blueMarble_st5" />
    </radialGradient>
    <radialGradient
       id="rgrd_deepBlueCoasts"
       cx="79.174591"
       cy="131.13831"
       r="96.762466"
       gradientTransform="matrix(0.41266099,0,0,0.40123284,-520.97862,117.31533)"
       fx="79.174591"
       fy="131.13831"
       gradientUnits="userSpaceOnUse">
      <stop
         id="rgrd_deepBlueCoasts_st0"
         style="stop-color:#0f75d2;stop-opacity:0.85"
         offset="0" />
      <stop
         id="rgrd_deepBlueCoasts_st1"
         style="stop-color:#032b51;stop-opacity:1"
         offset="1" />
    </radialGradient>
    <radialGradient
       id="rgrd_coolBlueTerra"
       cx="78.888542"
       cy="130.47983"
       r="98.141899"
       gradientTransform="matrix(0.41246482,0,0,0.40142366,-467.87297,74.415032)"
       fx="78.888542"
       fy="130.47983"
       gradientUnits="userSpaceOnUse">
      <stop
         offset="0"
         style="stop-color:#f7f7f7;stop-opacity:1"
         id="rgrd_coolBlueTerra_st0" />
      <stop
         style="stop-color:#9ed4e2;stop-opacity:1"
         offset="0.65"
         id="rgrd_coolBlueTerra_st1" />
      <stop
         offset="1"
         style="stop-color:#3aa5ca;stop-opacity:1"
         id="rgrd_coolBlueTerra_st2" />
    </radialGradient>
    <filter
       height="1.2"
       y="-0.1"
       width="1.33"
       x="-0.17"
       id="filt_blurShadow">
      <feGaussianBlur
         id="fegb_blurShadow"
         stdDeviation="3.23" />
    </filter>
    <linearGradient
       inkscape:collect="always"
       xlink:href="#linearGradient1045"
       id="linearGradient5965"
       gradientTransform="scale(0.68599434,1.457738)"
       x1="116.61904"
       y1="0"
       x2="233.23808"
       y2="0"
       gradientUnits="userSpaceOnUse" />
  </defs>
  <sodipodi:namedview
     id="base"
     pagecolor="#ffffff"
     bordercolor="#666666"
     borderopacity="1.0"
     inkscape:pageopacity="0.0"
     inkscape:pageshadow="2"
     inkscape:zoom="0.175"
     inkscape:cx="-815.06568"
     inkscape:cy="1106.8088"
     inkscape:document-units="mm"
     inkscape:current-layer="layer1"
     showgrid="false"
     inkscape:window-width="1920"
     inkscape:window-height="1001"
     inkscape:window-x="-9"
     inkscape:window-y="-9"
     inkscape:window-maximized="1" />
  <metadata
     id="metadata5">
    <rdf:RDF>
      <cc:Work
         rdf:about="">
        <dc:format>image/svg+xml</dc:format>
        <dc:type
           rdf:resource="http://purl.org/dc/dcmitype/StillImage" />
        <dc:title></dc:title>
      </cc:Work>
    </rdf:RDF>
  </metadata>
  <g
     inkscape:label="Layer 1"
     inkscape:groupmode="layer"
     id="layer1"
     transform="translate(0,-223.757)">
    <g
       id="g1450"
       transform="translate(499.24523,195.07705)">
      <polygon
         transform="matrix(0.4069068,0,0,0.4069068,-499.24499,28.679913)"
         style="fill:url(#linearGradient5963)"
         points="0,170 80,0 80,80 "
         id="pg_arrowLeft" />
      <path
         transform="scale(0.26458333)"
         id="el_globeDropBg_Prim"
         d="m -1763.877,231.42969 a 76.895776,76.895776 0 0 0 -76.8964,76.89648 76.895776,76.895776 0 0 0 76.8964,76.89453 76.895776,76.895776 0 0 0 75.7911,-64.45117 c -0.057,0.156 -0.1349,0.66997 -0.1758,0.68359 -0.1504,0.0499 -0.2735,0.25218 -0.2735,0.45118 0,0.1988 -0.1152,0.36328 -0.2558,0.36328 -0.1402,0 -0.2539,-0.17458 -0.2539,-0.38672 0,-0.48299 -1.0552,-2.77381 -1.3301,-2.88867 -0.1674,-0.0701 -0.2244,-0.221 -0.1855,-0.39453 0.039,-0.17354 0.1737,-0.37125 0.3925,-0.53125 0.1822,-0.13304 0.266,-0.21993 0.2305,-0.32227 -0.035,-0.10234 -0.1908,-0.21856 -0.4863,-0.41211 -0.4234,-0.27721 -0.6386,-0.63478 -0.6446,-1.01953 -0.01,-0.38475 0.1981,-0.79796 0.6114,-1.18555 0.264,-0.24791 0.4385,-0.38162 0.5879,-0.41992 0.1494,-0.0383 0.2734,0.0186 0.4394,0.15625 0.2181,0.18104 0.4684,0.25836 0.5567,0.16992 0.2592,-0.25927 -0.7095,-3.48632 -1.0469,-3.48632 -0.1761,0 -0.4982,-0.84818 -0.75,-1.97852 -0.7616,-3.41726 -0.9766,-4.23307 -1.5293,-5.80664 l -0.5371,-1.53125 -0.2617,1.38281 c -0.125,0.65728 -0.3224,1.15564 -0.5137,1.39649 -0.1914,0.24085 -0.3782,0.22574 -0.4844,-0.14063 -0.054,-0.18709 -0.2304,-0.82918 -0.3926,-1.42578 -0.1621,-0.5966 -0.3906,-1.08399 -0.5078,-1.08398 -0.1171,0 -0.6527,-0.4032 -1.1894,-0.89454 -0.5368,-0.49133 -1.0393,-0.89071 -1.1172,-0.88867 -0.2676,0.008 -1.8008,3.62731 -1.8008,4.25195 0,0.34356 -0.1605,1.16422 -0.3555,1.82227 -0.4241,1.43089 -0.9694,4.53015 -0.9433,5.36523 0.011,0.32845 -0.2566,1.17467 -0.5938,1.87891 -0.2836,0.59227 -0.4295,0.92762 -0.4629,1.2168 -0.033,0.28918 0.046,0.53225 0.2149,0.93555 0.2003,0.4795 0.3748,1.41443 0.3886,2.07812 0.015,0.72161 0.1132,1.41866 0.2618,1.96875 0.1485,0.55009 0.3488,0.95267 0.5644,1.08594 0.3195,0.19742 0.6778,0.65437 0.957,1.15625 0.2793,0.50188 0.4786,1.04911 0.4786,1.42578 0,0.48535 -0.1146,0.98657 -0.293,1.39062 -0.1785,0.40405 -0.4197,0.71158 -0.6777,0.81055 -0.2602,0.0998 -0.4541,0.0366 -0.6075,-0.23633 -0.1534,-0.2729 -0.2664,-0.75641 -0.3672,-1.49804 -0.092,-0.67677 -0.2199,-1.00243 -0.3828,-0.97852 -0.1628,0.0239 -0.3613,0.39832 -0.5957,1.12305 -0.2048,0.63352 -0.4152,0.82812 -0.8867,0.82812 -0.2451,0 -0.4362,-0.0716 -0.6387,-0.2832 -0.2024,-0.21162 -0.415,-0.56181 -0.7031,-1.11914 -0.399,-0.77205 -0.8415,-1.44284 -0.9824,-1.49024 -0.141,-0.0472 -0.5377,-0.67953 -0.8828,-1.40429 -0.3451,-0.72469 -0.904,-1.61344 -1.2422,-1.97461 -0.3383,-0.36133 -0.694,-0.90724 -0.791,-1.21289 -0.097,-0.30539 -0.2974,-0.55469 -0.4434,-0.55469 -0.1459,0 -0.2033,-0.15963 -0.1289,-0.35352 0.074,-0.19389 -0.1438,-0.76115 -0.4844,-1.26171 -0.3405,-0.50049 -0.6191,-1.02404 -0.6191,-1.16407 0,-0.14475 -0.4136,-0.20443 -0.9609,-0.13867 -0.6485,0.0782 -1.2924,-0.0528 -1.9707,-0.39844 -0.5538,-0.28195 -1.155,-0.51172 -1.336,-0.51172 -0.181,0 -0.3281,-0.1641 -0.3281,-0.36328 0,-0.19956 -0.3524,-0.43864 -0.7832,-0.5332 -0.4309,-0.0945 -0.8466,-0.33799 -0.9238,-0.53906 -0.077,-0.20107 -0.3713,-0.48825 -0.6524,-0.63867 -0.4008,-0.2143 -0.657,-0.16847 -1.1836,0.21289 -0.3692,0.26721 -1.0728,0.64807 -1.5644,0.8457 -0.4916,0.19767 -1.1181,0.56539 -1.3926,0.81836 -0.2748,0.25285 -0.6207,0.41716 -0.7676,0.36523 -0.1466,-0.0518 -0.784,0.061 -1.416,0.25 -0.7149,0.21347 -1.4315,0.32441 -2.0195,0.33203 -0.5881,0.008 -1.0464,-0.0894 -1.2481,-0.29101 -0.224,-0.22388 -0.3263,-0.12469 -0.3125,0.14453 0.014,0.26922 0.143,0.70808 0.3789,1.16406 0.2155,0.41632 0.4544,0.69085 0.7422,0.83594 0.2878,0.14509 0.6237,0.16079 1.0313,0.0586 0.3537,-0.0888 0.9458,0.0735 1.5371,0.42188 0.4483,0.26436 0.6844,0.42129 0.791,0.61914 0.1065,0.19785 0.083,0.4366 0.01,0.86523 -0.088,0.50499 -0.2273,1.35047 -0.3066,1.87696 -0.088,0.57947 -0.2845,0.95703 -0.5,0.95703 -0.2415,0 -0.3555,0.3083 -0.3555,0.95898 0,0.68311 -0.148,1.05046 -0.5117,1.27735 -0.2808,0.17537 -0.5098,0.55895 -0.5098,0.85156 0,0.32201 -0.2087,0.58715 -0.5254,0.66992 -0.3159,0.0828 -0.58,0.41808 -0.666,0.84766 -0.089,0.44371 -0.3487,0.76455 -0.6894,0.85156 -0.4254,0.10866 -1.0295,0.518 -1.5391,0.97852 -0.5096,0.46051 -0.9238,0.97267 -0.9688,1.28906 -0.05,0.35338 -0.5652,0.88743 -1.3574,1.40625 -0.7023,0.45993 -1.5496,1.08609 -1.8808,1.39258 -0.7648,0.70733 -3.1311,2.23828 -3.461,2.23828 -0.1376,0 -0.5595,0.2966 -0.9394,0.66015 -0.4221,0.40426 -1.0165,0.67852 -1.5274,0.70313 -0.3749,0.0189 -0.5999,-10e-4 -0.7949,-0.1543 -0.195,-0.15298 -0.36,-0.43993 -0.6191,-0.95508 -0.7234,-1.43743 -0.909,-1.97664 -0.9981,-2.91211 -0.017,-0.18002 -0.3619,-0.46464 -0.4726,-0.66796 0.01,0.13834 -0.071,0.26562 -0.2657,0.26562 -0.2222,0 -0.4043,-0.18199 -0.4043,-0.4043 0,-0.22531 0.1378,-0.31928 0.295,-0.29687 0.079,0.0112 0.1331,0.13207 0.207,0.19922 -0.2214,-0.32523 -0.2448,-0.57995 -0.7168,-1.00977 -0.7077,-0.64437 -1.3525,-1.41003 -1.4336,-1.70117 -0.081,-0.2914 -0.5197,-0.6926 -0.9746,-0.89258 -0.3212,-0.14135 -0.5466,-0.2961 -0.7266,-0.52734 -0.1799,-0.23125 -0.3133,-0.54021 -0.4492,-0.98633 -0.2936,-0.96352 -0.5704,-1.66464 -0.8535,-2.14648 -0.2831,-0.48185 -0.573,-0.74412 -0.8926,-0.82422 -0.3322,-0.0835 -0.775,-0.48209 -0.9844,-0.88672 -0.2093,-0.40471 -0.4799,-0.73633 -0.6015,-0.73633 -0.1217,0 -0.2938,-0.25848 -0.3809,-0.57422 -0.1353,-0.49003 -0.579,-1.12363 -1.0508,-1.61133 -0.4718,-0.4877 -0.9716,-0.82914 -1.2187,-0.73437 -0.24,0.0922 -0.4356,0.34298 -0.4356,0.55664 0,0.49051 1.3245,2.81608 2.0391,3.58008 0.2971,0.31785 0.4763,0.68082 0.3984,0.80664 -0.1886,0.305 0.1054,1.03906 0.4161,1.03906 0.3592,0 0.7706,0.39049 1.121,0.98437 0.3505,0.59389 0.6412,1.39252 0.7637,2.20899 0.068,0.45322 0.1503,0.76449 0.2891,1.00586 0.1388,0.24136 0.3332,0.41171 0.625,0.58398 0.4081,0.24114 0.9915,0.9571 1.2949,1.5918 0.3035,0.63477 0.6741,1.23865 0.8242,1.3418 0.1845,0.12661 0.1711,0.18876 -0.039,0.1914 -0.1713,0.002 -0.245,0.17613 -0.1641,0.38672 0.097,0.25198 0.2484,0.37496 0.375,0.37109 0.1266,-0.004 0.2285,-0.13325 0.2285,-0.38867 0,-0.26948 0.1879,-0.37511 0.5742,-0.32031 0.3772,0.0537 0.5743,0.25686 0.5743,0.5918 0,0.31634 0.4123,0.78646 1.082,1.23437 0.8084,0.54076 1.4376,1.04128 1.8887,1.50391 0.451,0.46263 0.7233,0.88765 0.8203,1.27539 0.1413,0.56519 0.3957,0.90047 0.789,1.01562 0.3933,0.11516 0.9258,0.01 1.627,-0.30859 0.6597,-0.29972 1.3713,-0.65183 1.582,-0.7832 0.2105,-0.13153 0.5569,-0.30856 0.7676,-0.39258 1.6589,-0.66214 3.2264,-1.48519 3.3965,-1.7832 0.1122,-0.19692 0.4272,-0.35743 0.7011,-0.35743 0.3754,0 0.4981,0.17634 0.4981,0.71485 0,0.39296 0.1446,0.85996 0.3203,1.03711 0.2555,0.25814 0.2324,0.37122 -0.1172,0.56836 -0.24,0.1353 -0.3752,0.40444 -0.3008,0.59765 0.074,0.19314 -0.117,0.84242 -0.4238,1.44336 -0.3065,0.60076 -0.8335,1.82783 -1.1719,2.72656 -0.4812,1.27764 -1.0312,2.33928 -1.8789,3.49805 -0.8476,1.15877 -1.9926,2.41441 -3.666,4.08203 -2.3147,2.30686 -4.0824,4.19038 -5.1719,5.49805 -0.5447,0.65384 -0.9191,1.16357 -1.1093,1.50977 -0.1903,0.3462 -0.1965,0.52929 0,0.52929 0.1994,0 0.2682,0.24456 0.2343,0.5 -0.034,0.25545 -0.1695,0.52202 -0.375,0.56641 -0.3329,0.0718 -0.3363,0.17071 -0.023,0.77344 0.205,0.39246 0.3035,0.70659 0.293,0.99218 -0.01,0.28559 -0.1298,0.54193 -0.3594,0.81836 -0.2142,0.25807 -0.2458,0.66476 -0.1465,1.02735 0.099,0.36258 0.3298,0.68165 0.6367,0.76172 0.2192,0.0574 0.3405,0.14598 0.4024,0.47461 0.062,0.32862 0.064,0.8969 0.047,1.91015 l -0.039,2.25781 -1.0527,1.02149 c -0.5955,0.57793 -1.6237,1.22364 -2.3711,1.48828 -0.726,0.25663 -1.4628,0.63797 -1.6368,0.84766 -0.1738,0.20938 -0.7597,0.60772 -1.3027,0.88476 -0.5447,0.27766 -0.9003,0.54716 -1.0664,0.81055 -0.1661,0.26339 -0.1437,0.52047 0.066,0.77344 0.1621,0.19551 0.1882,0.72036 0.1211,1.23828 -0.067,0.51791 -0.2267,1.02898 -0.4355,1.19336 -0.1577,0.12396 -0.8755,0.41662 -1.5938,0.65039 -0.548,0.17858 -0.8914,0.32273 -1.1445,0.52539 -0.2531,0.20265 -0.4158,0.46367 -0.5996,0.87109 -0.2195,0.48652 -0.3496,0.74488 -0.8672,1.11524 -0.5177,0.37035 -1.4229,0.85214 -3.1875,1.78515 -1.0811,0.57171 -1.9772,0.92683 -3.1504,1.1543 -1.1733,0.22746 -2.6221,0.32819 -4.8106,0.39062 -2.2473,0.0639 -4.4028,0.0646 -4.789,0.002 v 0.006 c -0.3862,-0.0616 -0.7188,-0.24784 -0.7402,-0.41407 -0.023,-0.16592 -0.052,-0.4219 -0.068,-0.56836 -0.039,-0.35603 -1.8323,-1.92673 -3.0097,-2.63671 -0.5897,-0.35566 -1.0673,-0.90133 -1.2657,-1.44922 -0.175,-0.48405 -0.4092,-0.88086 -0.5214,-0.88086 -0.1123,0 -0.2032,-0.16499 -0.2032,-0.36719 0,-0.20296 -0.2429,-0.53875 -0.539,-0.74609 -0.2963,-0.2075 -0.4621,-0.49847 -0.3692,-0.64844 0.1036,-0.16743 0.014,-0.21445 -0.2285,-0.1211 -0.291,0.1115 -0.3965,-0.0106 -0.3965,-0.46679 0,-0.38941 -0.4382,-1.0781 -1.1777,-1.84961 -0.6082,-0.63434 -1.0438,-1.33921 -1.2578,-1.97266 -0.2141,-0.63345 -0.2073,-1.19526 0.068,-1.54492 0.1395,-0.17688 0.3284,-0.6364 0.42,-1.01953 0.091,-0.38343 0.5103,-0.94981 0.9297,-1.25977 0.453,-0.33473 0.6853,-0.56428 0.7167,-0.85937 0.032,-0.29509 -0.1386,-0.655 -0.4921,-1.25391 -0.2956,-0.50044 -0.4698,-1.08688 -0.3868,-1.30273 0.083,-0.21619 -0.3211,-1.3667 -0.9004,-2.55664 -0.7844,-1.61174 -1.42,-2.49799 -2.4882,-3.47266 -0.646,-0.58961 -1.2912,-1.32769 -1.7754,-1.99414 -0.4842,-0.66645 -0.8067,-1.26108 -0.8067,-1.56055 0,-0.12585 0.1721,-0.22851 0.3829,-0.22851 0.2604,0 0.3851,-0.26659 0.3906,-0.83008 0,-0.45638 0.1786,-1.05187 0.3847,-1.32422 0.3336,-0.44063 0.402,-1.11415 0.2989,-1.58984 -0.052,-0.23785 -0.1478,-0.42694 -0.2735,-0.51172 -0.1256,-0.0848 -0.2807,-0.0668 -0.457,0.10937 -0.1742,0.17462 -0.4678,0.31836 -0.6504,0.31836 -0.2355,0 -0.3386,-0.18749 -0.3223,-0.39843 0.016,-0.21095 0.1518,-0.44605 0.3946,-0.53907 0.185,-0.071 0.2673,-0.14252 0.2597,-0.21093 -0.01,-0.0684 -0.1048,-0.13339 -0.2753,-0.18946 -0.3412,-0.11214 -0.9782,-0.18929 -1.793,-0.19336 -0.8428,-0.004 -1.6612,-0.0921 -1.8184,-0.19531 -0.1572,-0.10318 -0.5864,-0.78519 -0.9551,-1.51562 -0.2916,-0.57799 -0.4905,-0.91593 -0.7207,-1.12891 -0.2301,-0.21298 -0.4907,-0.30247 -0.9082,-0.38086 -1.2849,-0.24151 -2.8637,-0.23786 -5.1738,0.008 -0.8963,0.0964 -1.3957,0.13773 -1.8203,0.0742 -0.4246,-0.0635 -0.7755,-0.23099 -1.3731,-0.55078 -0.9872,-0.52819 -1.769,-0.7164 -3.4472,-0.82812 -1.2417,-0.0828 -1.915,-0.15697 -2.5567,-0.56641 -0.6416,-0.40944 -1.2509,-1.15422 -2.3671,-2.57617 -0.7164,-0.91246 -1.8266,-2.14258 -2.4668,-2.73438 -0.7639,-0.70632 -1.0651,-1.14593 -0.877,-1.27734 0.2281,-0.15912 0.2551,-0.59133 0.1328,-1.08789 -0.1223,-0.49657 -0.3942,-1.05736 -0.7637,-1.47266 -0.3726,-0.41885 -0.8224,-0.97788 -1,-1.24219 -0.1776,-0.26456 -0.5555,-0.82505 -0.8398,-1.24609 -0.3847,-0.56976 -0.4704,-0.96156 -0.332,-1.53125 0.102,-0.42108 0.1925,-1.3392 0.2011,-2.04102 0.011,-0.81482 0.1624,-1.41573 0.42,-1.66015 0.5363,-0.50865 1.0658,-1.78711 0.7402,-1.78711 -0.1376,0 -0.25,-0.34459 -0.25,-0.76563 0,-0.42107 0.1006,-0.76562 0.2227,-0.76562 0.122,0 0.208,0.20167 0.1914,0.44726 -0.034,0.50194 0.075,0.65593 0.205,0.55665 0.1304,-0.0993 0.2823,-0.45267 0.3301,-0.96485 0.069,-0.73852 0.01,-1.0526 -0.168,-0.94141 -0.3409,0.21052 -0.3429,0.26361 0.1133,-1.90429 0.1559,-0.74075 0.3019,-1.2542 0.5196,-1.71094 0.2176,-0.45674 0.5073,-0.85744 0.9492,-1.37109 0.597,-0.69392 1.2854,-1.32572 1.5312,-1.4043 0.2457,-0.0786 0.4473,-0.31152 0.4473,-0.51758 0,-0.34014 0.1936,-0.7331 0.4766,-1.05859 0.2829,-0.32549 0.6557,-0.58273 1.0136,-0.6543 0.3984,-0.0797 0.854,-0.42349 1.0508,-0.79101 0.2695,-0.50359 0.4837,-0.61626 0.9473,-0.5 0.3681,0.0922 0.5976,0.0392 0.5976,-0.14258 0,-0.16177 0.1426,-0.27249 0.3184,-0.24414 0.1757,0.0302 0.4924,-0.0175 0.7031,-0.10742 0.2105,-0.0881 0.6823,-0.27062 1.0488,-0.4043 0.5118,-0.18633 0.7035,-0.46988 0.8243,-1.22461 0.1086,-0.67888 0.5454,-1.40799 1.1445,-2.01758 0.5991,-0.60959 1.36,-1.10064 2.1152,-1.30078 0.7177,-0.19015 1.3435,-0.61487 1.7676,-1.14063 0.4241,-0.52575 0.6474,-1.15243 0.5606,-1.74414 -0.078,-0.53147 -0.2567,-0.76757 -0.5801,-0.76757 -0.2567,0 -0.5363,-0.11369 -0.6231,-0.25391 -0.087,-0.14022 -0.3816,-0.25586 -0.6543,-0.25586 -0.2939,0 -0.447,-0.0514 -0.4629,-0.1875 -0.016,-0.13605 0.1046,-0.35664 0.3594,-0.69336 0.2396,-0.31672 0.3242,-0.78442 0.2305,-1.2832 -0.1168,-0.62272 0.015,-0.98682 0.6328,-1.76563 0.4051,-0.5094 0.7286,-1.09192 0.9512,-1.69726 0.2226,-0.60534 0.3444,-1.23266 0.3457,-1.82813 6e-4,-0.2969 0.038,-0.48013 0.1875,-0.61914 0.1496,-0.13901 0.4122,-0.2346 0.8613,-0.35547 0.8685,-0.23357 1.1218,-0.21232 1.4883,0.11914 0.243,0.21959 0.6098,0.39844 0.8164,0.39844 0.2067,0 0.489,0.11438 0.6269,0.25195 0.138,0.13796 0.8218,0.42375 1.5196,0.63672 0.6083,0.18558 0.9301,0.27815 1.1523,0.25977 0.2222,-0.0184 0.3443,-0.14698 0.5547,-0.40039 0.2415,-0.29065 0.5132,-0.92301 0.6035,-1.4043 0.096,-0.51199 0.08,-1.17741 0,-1.71484 -0.084,-0.53744 -0.2343,-0.94727 -0.4101,-0.94727 -0.1342,0 -0.2442,-0.15969 -0.2442,-0.35547 0,-0.1954 -0.172,-0.42114 -0.3828,-0.50195 -0.2241,-0.0858 -0.3828,-0.46763 -0.3828,-0.91992 0,-0.36488 0.012,-0.5599 0.1445,-0.66211 0.1321,-0.10221 0.3837,-0.11133 0.8555,-0.11133 0.5517,0 1.0656,0.14223 1.1465,0.31836 0.081,0.17537 0.076,0.0422 -0.01,-0.29492 -0.1221,-0.48295 -0.072,-0.58064 0.2402,-0.46094 0.2177,0.0835 0.4451,0.0159 0.5039,-0.15234 0.074,-0.2109 0.2669,-0.16312 0.627,0.15625 0.2471,0.219 0.39,0.33002 0.5879,0.33398 0.1978,0.004 0.4505,-0.0981 0.9179,-0.30273 l 0.9863,-0.4336 -0.8945,-0.22265 c -0.4916,-0.12246 -1.7551,-0.26589 -2.8086,-0.32032 -1.0534,-0.054 -2.1174,-0.11026 -2.3633,-0.125 -0.347,-0.021 -0.4787,-0.1351 -0.4257,-0.26562 0.053,-0.13053 0.2907,-0.27819 0.6816,-0.36524 0.3863,-0.0858 0.9307,-0.33476 1.2109,-0.55273 0.415,-0.32239 0.4437,-0.43658 0.1543,-0.61523 -0.2353,-0.14533 -0.2766,-0.40414 -0.1855,-0.62696 0.091,-0.22282 0.3146,-0.41015 0.6094,-0.41015 0.3394,0 0.4624,-0.18867 0.455,-0.70118 0,-0.30765 0.016,-0.48011 0.1133,-0.56835 0.097,-0.0882 0.2724,-0.0927 0.5801,-0.0605 0.3108,0.0325 0.4844,0.0302 0.5781,-0.0586 0.094,-0.0888 0.1069,-0.2648 0.094,-0.58007 -0.019,-0.43159 -0.076,-0.53455 -0.1465,-0.26368 -0.064,0.24567 -0.2923,0.44727 -0.5078,0.44727 -0.2415,0 -0.3361,-0.14691 -0.2461,-0.38086 0.061,-0.15855 0.077,-0.24036 0.025,-0.25 -0.052,-0.01 -0.1713,0.0546 -0.3809,0.18555 -0.2759,0.17197 -0.5019,0.5542 -0.5019,0.84961 0,0.29556 -0.2014,0.7126 -0.4473,0.92773 -0.2584,0.22617 -0.9183,0.43079 -1.6074,0.54883 -0.6891,0.11803 -1.407,0.14936 -1.7793,0.0312 -0.38,-0.12057 -0.5465,-0.45569 -0.5176,-0.80664 0.029,-0.35095 0.253,-0.71785 0.6582,-0.90234 0.3854,-0.17538 0.5937,-0.43797 0.5137,-0.64649 -0.1002,-0.26107 0.058,-0.67364 0.2968,-1 0.2391,-0.32636 0.5596,-0.56578 0.7872,-0.47851 0.2101,0.0805 0.5919,-0.0421 0.8476,-0.27344 0.2695,-0.24378 0.7212,-0.37234 1.0762,-0.30469 0.4086,0.0782 0.709,-0.039 0.9043,-0.35156 0.1822,-0.29178 0.1965,-0.4668 0.035,-0.4668 -0.2267,0 -0.2959,-0.1286 -0.25,-0.25977 0.046,-0.13116 0.2072,-0.26586 0.4395,-0.28124 0.2128,-0.0132 0.3184,-0.0218 0.3184,-0.041 0,-0.0192 -0.1056,-0.0493 -0.3184,-0.10547 -0.2998,-0.0782 -0.4402,-0.18796 -0.416,-0.375 0.024,-0.18704 0.2123,-0.45157 0.5722,-0.83984 0.3098,-0.33402 0.6689,-0.55149 0.9512,-0.62305 0.2824,-0.0716 0.4883,0.004 0.4883,0.25977 0,0.20182 0.1092,0.19464 0.3711,-0.0234 0.2045,-0.1697 0.4988,-0.23077 0.6543,-0.13477 0.1553,0.096 0.5097,-0.0294 0.7851,-0.27734 0.3986,-0.36057 0.5632,-0.38724 0.8125,-0.13477 0.1242,0.12567 0.1588,0.24336 0.08,0.4043 -0.079,0.16094 -0.2693,0.36363 -0.5996,0.66016 -0.3593,0.32252 -0.5502,0.51066 -0.5957,0.61718 -0.045,0.10653 0.054,0.13282 0.2754,0.13282 0.3384,0 0.5077,0.19741 0.5078,0.47265 10e-5,0.27524 -0.1695,0.62759 -0.5078,0.9336 -0.2964,0.26802 -0.4266,0.61968 -0.3828,1.18359 0.044,0.56391 0.262,1.33924 0.666,2.45898 0.2785,0.7718 0.4392,1.59146 0.4707,2.23829 0.032,0.64682 -0.066,1.12252 -0.3027,1.20703 -0.1754,0.0627 -0.2446,0.19514 -0.1524,0.29492 0.1429,0.15439 0.5511,0.017 1.0137,-0.27735 0.4626,-0.29439 0.9797,-0.74562 1.3437,-1.22265 0.3138,-0.41116 0.5178,-0.63938 0.7833,-0.76367 0.2654,-0.1243 0.5939,-0.14453 1.1582,-0.14453 0.6888,0 1.0437,-0.0148 1.2578,-0.27344 0.2141,-0.25867 0.2861,-0.76271 0.4082,-1.74219 0.095,-0.75995 0.1955,-1.21553 0.416,-1.53125 0.2204,-0.31572 0.5613,-0.49047 1.1348,-0.6875 0.7636,-0.2623 1.0276,-0.27012 1.1796,-0.0312 0.1142,0.17991 0.197,-0.0379 0.1993,-0.52148 0,-0.45761 -0.089,-0.72211 -0.2793,-0.79688 -0.1908,-0.0748 -0.4816,0.0399 -0.8809,0.3418 -0.2725,0.20598 -0.8409,0.37835 -1.2637,0.38281 -0.5693,0.006 -0.9408,-0.17143 -1.1425,-0.5918 -0.2018,-0.42036 -0.2333,-1.08377 -0.1231,-2.04687 0.1183,-1.03387 0.278,-1.72755 0.5645,-2.23438 0.2864,-0.50682 0.6988,-0.8256 1.3242,-1.10742 0.5715,-0.25776 1.039,-0.55802 1.039,-0.66797 0,-0.10998 0.4057,-0.34658 0.9004,-0.52539 0.6059,-0.21883 1.1948,-0.7566 1.8067,-1.64453 0.4995,-0.72495 1.1874,-1.46668 1.5273,-1.64844 0.3398,-0.18179 0.5698,-0.3776 0.5117,-0.43554 -0.058,-0.0578 -0.3551,0.0266 -0.6601,0.1914 -0.305,0.16328 -0.6149,0.23657 -0.6895,0.16211 -0.2044,-0.20447 1.4556,-1.66456 2.5235,-2.21875 0.5172,-0.26834 1.0135,-0.60567 1.1015,-0.74804 0.088,-0.14249 0.4971,-0.25782 0.9102,-0.25782 0.4131,0 0.7519,-0.0928 0.7519,-0.20507 0,-0.30161 1.5238,-0.76126 2.5899,-0.78126 0.6511,-0.0113 1.1336,0.17079 1.6094,0.61133 0.3737,0.34621 0.8453,0.63086 1.0488,0.63086 0.2033,0 0.3691,0.11369 0.3691,0.25391 0,0.14022 0.2277,0.25586 0.5059,0.25586 0.4518,0 1.3968,0.33242 2.2656,0.73437 0.8688,0.40196 1.6616,0.87247 1.8106,1.15039 0.1647,0.30728 0.5676,0.55655 0.9355,0.57813 0.2978,0.017 0.4513,0.0171 0.4844,-0.0371 0.033,-0.0542 -0.056,-0.16417 -0.2403,-0.36719 -0.2195,-0.24227 -0.3984,-0.63259 -0.3984,-0.86719 0,-0.2347 -0.1153,-0.42578 -0.2559,-0.42578 -0.1406,0 -0.2539,-0.18613 -0.2539,-0.41211 0,-0.3171 0.1872,-0.38311 0.8282,-0.29297 0.4565,0.0643 1.03,0.20277 1.2734,0.3086 0.3284,0.14249 0.6846,-0.0768 1.3789,-0.84961 0.605,-0.67344 1.2379,-1.09942 1.791,-1.20313 0.4091,-0.0767 0.6566,-0.20079 0.7696,-0.34179 0.1129,-0.141 0.091,-0.29796 -0.035,-0.43946 -0.2525,-0.28298 -0.9252,-0.504 -1.793,-0.40625 -0.6869,0.0775 -1.3459,-0.0256 -1.8574,-0.28906 -0.3355,-0.17329 -0.5393,-0.32253 -0.6758,-0.55664 -0.1365,-0.2341 -0.2061,-0.55446 -0.2715,-1.06836 -0.085,-0.66769 -0.2182,-1.50063 -0.2968,-1.85156 -0.1563,-0.70124 -0.1987,-1.23029 -0.1172,-1.64648 0.082,-0.4162 0.2884,-0.71938 0.6308,-0.96876 0.3701,-0.26948 0.6719,-0.66193 0.6719,-0.87109 0,-0.22601 0.1818,-0.34393 0.4473,-0.29101 0.3477,0.0692 0.4237,0.28683 0.3457,0.97656 -0.055,0.48771 -0.1094,1.7311 -0.1211,2.76367 -0.01,0.82789 0,1.31102 0.08,1.63867 0.078,0.32765 0.2201,0.50107 0.4746,0.70703 0.3801,0.3076 1.1266,0.56468 1.9375,0.7168 0.8109,0.15212 1.6876,0.19818 2.3281,0.082 l 1.0215,-0.18555 -0.7031,-0.61328 c -0.3863,-0.33751 -0.7032,-0.84159 -0.7032,-1.12109 0,-0.27931 -0.1585,-0.69048 -0.3535,-0.91211 -0.195,-0.22148 -0.4379,-0.7923 -0.539,-1.26758 -0.088,-0.41459 -0.127,-0.62754 -0.067,-0.71875 0.061,-0.0912 0.2198,-0.0606 0.5313,0.0176 0.2831,0.0711 0.4478,0.0893 0.5508,0.0137 0.1029,-0.0756 0.1444,-0.24399 0.1797,-0.54883 l 0.082,-0.69922 0.5742,0.61915 c 0.465,0.50097 0.5742,0.53616 0.5742,0.1875 0,-0.23698 -0.1286,-0.43165 -0.2851,-0.43165 -0.1663,0 -0.2336,-0.26435 -0.1621,-0.63671 0.067,-0.35112 0.033,-0.63868 -0.076,-0.63868 -0.1085,0 -0.2714,-0.48738 -0.3613,-1.08398 -0.1633,-1.08113 -0.2696,-1.69167 -0.3965,-2.04687 -0.127,-0.35521 -0.2754,-0.45521 -0.5215,-0.51954 -0.3498,-0.0915 -0.5078,-0.32736 -0.4902,-0.54101 0.018,-0.21365 0.2106,-0.40532 0.5683,-0.41016 0.2794,-0.004 0.4196,-0.007 0.4278,-0.0449 0.01,-0.0381 -0.115,-0.11098 -0.3633,-0.25195 -0.2808,-0.15912 -0.5941,-0.41402 -0.6973,-0.56641 -0.13,-0.192 -0.1887,-0.19364 -0.1914,-0.004 0,0.14967 -0.7397,0.41712 -1.6387,0.59571 -0.8599,0.17083 -1.4274,0.22802 -1.8691,0.13281 -0.4417,-0.0952 -0.7588,-0.34239 -1.1152,-0.77539 -0.1669,-0.2026 -0.2406,-0.30967 -0.1719,-0.3457 0.069,-0.036 0.2799,-0.001 0.6816,0.0781 0.6075,0.12019 1.0597,0.051 1.4922,-0.23242 0.3727,-0.24416 0.8674,-0.34613 1.2363,-0.25391 0.3651,0.0915 0.6133,0.0429 0.6133,-0.12109 0,-0.18066 0.3835,-0.21898 1.1133,-0.10938 0.8865,0.13304 1.1452,0.0856 1.2695,-0.23828 0.096,-0.25105 0.3341,-0.37927 0.7461,-0.38476 0.4121,-0.005 0.9974,0.11061 1.7871,0.34961 0.589,0.17858 0.8928,0.26744 1.0489,0.24609 0.156,-0.0213 0.164,-0.15302 0.164,-0.41211 0,-0.29367 0.2015,-0.68656 0.4473,-0.87305 0.2035,-0.15439 0.3003,-0.23786 0.2676,-0.28515 -0.033,-0.0473 -0.1949,-0.0587 -0.5078,-0.0625 -0.4074,-0.004 -0.6579,-0.0613 -0.7813,-0.21289 -0.1234,-0.15159 -0.1195,-0.39684 -0.022,-0.77149 0.059,-0.22596 0.1444,-0.36599 0.3223,-0.45117 0.1779,-0.0852 0.449,-0.11484 0.8789,-0.12305 0.5805,-0.0113 0.9119,-0.0778 0.7363,-0.14843 -0.1757,-0.0707 -0.3203,-0.28871 -0.3203,-0.48438 0,-0.23058 -0.1641,-0.44908 -0.4238,-0.63672 -0.2597,-0.18763 -0.6147,-0.34439 -0.9981,-0.45117 -0.7666,-0.21357 -1.6452,-0.22795 -2.0898,0.10938 -0.4521,0.34293 -1.105,0.4059 -1.6465,0.26953 -0.5414,-0.13637 -0.9707,-0.47278 -0.9707,-0.92969 0,-0.26759 -0.1153,-0.55779 -0.2558,-0.64453 -0.2296,-0.14192 -0.2971,-0.36489 -0.2383,-0.55274 0.059,-0.18784 0.2435,-0.33984 0.5175,-0.33984 0.3198,0 0.5881,0.20419 0.668,0.50977 0.073,0.28082 0.2562,0.51172 0.4043,0.51172 0.1482,0 0.4766,0.18821 0.7305,0.41796 0.2137,0.19333 0.3325,0.28907 0.416,0.28907 0.084,0 0.1328,-0.0957 0.207,-0.28907 0.088,-0.22979 0.3201,-0.41797 0.5157,-0.41796 0.2112,0 0.3278,-0.1018 0.3437,-0.23438 0.016,-0.13258 -0.069,-0.29646 -0.2656,-0.41797 -0.1527,-0.0941 -0.222,-0.38292 -0.1543,-0.64258 0.088,-0.33562 -0.1273,-0.62059 -0.7442,-0.98437 -0.4363,-0.25729 -0.7221,-0.51526 -0.8242,-0.71094 -0.102,-0.19567 -0.021,-0.32879 0.2754,-0.33984 0.5183,-0.0189 -1.8992,-1.18633 -2.873,-1.38672 -0.4917,-0.10129 -2.1581,-0.79205 -3.7032,-1.53711 -1.545,-0.74506 -3.0667,-1.43061 -3.3828,-1.52344 -0.3227,-0.0949 -0.5177,-0.25702 -0.5586,-0.39453 -0.041,-0.13751 0.073,-0.25195 0.3672,-0.25195 0.2105,0 0.3828,-0.11369 0.3828,-0.25391 0,-0.14022 0.1721,-0.25586 0.3828,-0.25586 0.2106,0 0.3829,0.11564 0.3829,0.25586 0,0.1406 0.3168,0.25473 0.7031,0.25586 0.3863,6.4e-4 1.0474,0.18443 1.4687,0.40625 0.5148,0.27088 1.3762,0.47061 2.1094,0.54883 0.7332,0.0782 1.3379,0.0344 1.3379,-0.18164 0,-0.19843 0.1685,-0.2542 0.4473,-0.14649 0.2456,0.0949 1.7675,0.45324 3.3828,0.79688 1.6153,0.34356 3.1663,0.7334 3.4472,0.86523 1.2561,0.58946 2.5279,1.02735 2.9805,1.02735 0.2706,0 0.8317,0.17659 1.2461,0.39062 0.3377,0.17462 1.9702,0.95481 3.2266,1.58985 0.6281,0.31751 1.1623,0.59873 1.3945,0.75 0.2322,0.15126 0.161,0.1713 -0.4199,-0.0313 -0.2808,-0.0979 -0.08,0.0875 0.4453,0.41211 0.5253,0.32429 0.9557,0.73468 0.957,0.91016 0,0.17537 0.1201,0.31836 0.2637,0.31836 0.1436,0 3.6267,2.69809 5.1016,3.57422 1.4748,0.87613 3.0417,1.9336 3.4824,2.34961 0.5059,0.47762 0.8643,0.65373 0.9726,0.47851 0.1242,-0.20071 0.1085,-0.39717 0.01,-0.52343 -0.1026,-0.12626 -0.2908,-0.18164 -0.5098,-0.0977 -0.1765,0.0676 -0.2803,0.0771 -0.3476,-0.0273 -0.067,-0.1045 -0.1,-0.32288 -0.1309,-0.71289 -0.015,-0.17537 -0.1977,-0.45316 -0.4082,-0.61719 -0.3826,-0.29809 -0.3858,-0.45227 -0.08,-0.45899 0.3058,-0.007 0.9218,0.13278 1.7774,0.41993 0.8928,0.30051 1.471,0.54133 1.7676,0.74218 0.2965,0.20086 0.3111,0.36268 0.076,0.50782 -0.1557,0.0964 -0.089,0.22903 0.1641,0.32617 0.2351,0.09 0.5379,0.0969 0.6719,0.0156 0.1338,-0.0828 0.4028,-0.0196 0.5976,0.14258 0.1947,0.16139 0.7064,0.30431 1.1387,0.31641 0.2054,0.005 0.1451,0.11849 0.2598,0.15429 a 76.895776,76.895776 0 0 0 -41.1563,-15.48828 c 1.1971,0.18219 1.951,0.37282 1.6328,0.42383 -0.3246,0.0522 -0.6538,0.25751 -0.7304,0.45703 -0.082,0.21355 -0.4897,0.36328 -0.9903,0.36328 -0.4674,0 -0.819,0.10063 -0.9648,0.22461 -0.1459,0.12398 -0.086,0.272 0.2715,0.36524 0.187,0.0487 0.2783,0.0781 0.2675,0.0996 -0.011,0.0215 -0.1223,0.0346 -0.3398,0.0469 -0.288,0.0151 -0.6599,0.16573 -0.8262,0.33203 -0.2079,0.20788 -1.9194,0.32429 -5.4785,0.37305 -3.0818,0.0423 -4.7304,0.0759 -5.832,0.19726 -1.1017,0.12132 -1.6568,0.33087 -2.5528,0.72657 -0.7634,0.33713 -1.9823,0.68174 -2.7089,0.76758 -0.7268,0.0858 -1.5307,0.27027 -1.7872,0.41015 -0.2566,0.13984 -0.8047,0.32784 -1.2187,0.41602 -0.5588,0.11905 -0.6619,0.21679 -0.3965,0.38086 0.1965,0.12132 0.4484,0.16568 0.5586,0.0976 0.1104,-0.068 0.6033,-0.0115 1.0957,0.12305 0.5399,0.14891 0.9518,0.15458 1.0391,0.0117 0.08,-0.12888 8e-4,-0.23438 -0.1758,-0.23438 -0.2011,0 -0.2316,-0.0877 -0.08,-0.23437 0.2168,-0.20931 0.7234,-0.3089 1.252,-0.30274 0.5285,0.006 1.0806,0.11713 1.3886,0.33204 0.2786,0.195 0.418,0.30192 0.4336,0.38867 0.016,0.0867 -0.094,0.15446 -0.3164,0.26953 -0.4754,0.24567 -2.2348,0.66275 -3.957,0.93945 -0.6955,0.11188 -0.9694,0.29951 -1.0801,0.74024 -0.069,0.27465 -0.1382,0.42305 -0.4062,0.50195 -0.2681,0.0789 -0.7358,0.088 -1.5996,0.0879 -0.9951,-9e-5 -2.0794,0.13704 -2.8985,0.32617 -0.8191,0.18913 -1.3727,0.4308 -1.3027,0.64453 0.057,0.17556 0.4104,0.29612 0.7949,0.33594 0.3845,0.0398 0.8006,-3.8e-4 0.9902,-0.15039 0.5207,-0.41206 1.4325,-0.65847 2.1758,-0.70508 0.3717,-0.0233 0.7017,0.003 0.9199,0.084 0.2182,0.0812 0.3247,0.21578 0.25,0.41015 -0.077,0.20083 0.066,0.39425 0.2559,0.49024 0.1902,0.096 0.428,0.0948 0.541,-0.0879 0.083,-0.13418 0.374,-0.24414 0.6465,-0.24414 0.285,0 0.4961,-0.17424 0.4961,-0.41016 0,-0.2691 0.1372,-0.35558 0.4023,-0.25391 0.2223,0.085 0.576,0.1543 0.7852,0.1543 0.3326,0 0.3311,0.0495 -0.012,0.39063 -0.3115,0.31124 -0.3767,0.57438 -0.2344,0.74414 0.1423,0.16975 0.4923,0.24639 1.0137,0.18554 0.6387,-0.0745 0.8672,-0.0191 0.7441,0.17969 -0.1217,0.19691 0.1907,0.28711 0.9942,0.28711 0.8064,0 1.2191,0.11938 1.3203,0.38281 0.081,0.21052 0.3061,0.38281 0.5019,0.38281 0.3183,0 0.4652,0.3128 0.293,0.62696 -0.034,0.0643 0.1601,0.28112 0.4355,0.48242 0.2151,0.15723 0.3308,0.27183 0.3594,0.41797 0.029,0.14613 -0.029,0.32433 -0.1582,0.60742 -0.1652,0.36246 -0.5821,0.72824 -0.9258,0.81445 l -0.625,0.15821 0.5508,0.55078 c 0.3035,0.30349 0.802,0.57375 1.1074,0.59961 0.3054,0.0264 0.9133,0.23173 1.3496,0.45703 0.3118,0.16119 0.5061,0.29867 0.6133,0.45898 0.1073,0.16032 0.1278,0.3435 0.094,0.59766 -0.048,0.35565 -0.2529,0.75104 -0.4551,0.87891 -0.2767,0.17499 -0.2842,0.2333 -0.033,0.23632 0.1841,0.002 0.2627,0.11917 0.1758,0.25977 -0.087,0.1406 0.023,0.25586 0.2402,0.25586 0.2188,0 0.3984,0.17233 0.3984,0.38281 0,0.21052 -0.1584,0.38281 -0.3515,0.38281 -0.5347,0 -2.7129,1.0146 -2.7129,1.26367 0,0.12057 -0.2581,0.17187 -0.5742,0.11329 -0.316,-0.0586 -0.4323,-0.0382 -0.2578,0.0449 0.2358,0.11225 0.2466,0.28166 0.043,0.66211 -0.1508,0.28157 -0.3397,0.4472 -0.4199,0.36718 -0.08,-0.0801 -0.2755,0.0288 -0.4336,0.2461 -0.1584,0.21619 -0.4949,0.42378 -0.748,0.46094 -0.2713,0.0397 -0.5043,0.19595 -0.6485,0.39648 -0.1442,0.20053 -0.1996,0.44612 -0.1152,0.66602 0.1028,0.26834 -0.4236,0.52407 -1.3145,0.63867 -0.1406,0.0189 -0.4147,0.16478 -0.6093,0.32617 -0.1947,0.16139 -0.5118,0.29461 -0.7032,0.29688 -0.3964,0.004 -2.3906,1.86056 -2.3906,2.2246 0,0.13153 -0.2444,0.1609 -0.543,0.0664 -0.3481,-0.11036 -0.4845,-0.0771 -0.3789,0.0937 0.1346,0.2177 -1.8643,0.7418 -2.3984,0.62891 -1.1044,-0.23337 -1.8774,-0.35832 -2.6504,-0.38672 -0.773,-0.0284 -1.5469,0.041 -2.6484,0.19336 -0.9037,0.12472 -1.4569,0.0877 -1.7012,-0.11524 -0.2801,-0.23244 -0.5685,-0.21428 -1.2773,0.082 -0.5039,0.21052 -0.9161,0.48521 -0.9161,0.61133 0,0.12624 -0.3574,0.23948 -0.7949,0.25196 -0.4375,0.0113 -1.5748,0.43138 -2.5273,0.93164 -1.024,0.53777 -1.6323,0.82187 -1.9512,0.87109 -0.3189,0.0492 -0.3482,-0.13575 -0.2207,-0.53516 0.1009,-0.31596 0.2085,-0.9384 0.2402,-1.38476 0.037,-0.51963 0.2686,-1.05727 0.7852,-1.72656 0.5165,-0.6693 1.3188,-1.47211 2.4941,-2.52344 1.102,-0.98572 2.4245,-1.88131 3.4727,-2.42774 0.5241,-0.27321 0.9805,-0.45919 1.3047,-0.52539 0.3242,-0.0662 0.5176,-0.0123 0.5176,0.19336 0,0.12095 0.2899,0.16569 0.6445,0.0977 0.3005,-0.0574 0.4529,-0.0948 0.4785,-0.1582 0.026,-0.0634 -0.076,-0.15433 -0.2871,-0.31836 -0.2157,-0.16744 -0.3239,-0.25904 -0.3164,-0.35743 0.01,-0.0984 0.13,-0.20273 0.373,-0.39257 0.2831,-0.22111 0.8236,-0.35597 1.211,-0.30079 0.5108,0.0726 0.74,-0.0265 0.8496,-0.37304 0.088,-0.27893 1.0299,-0.88236 2.3008,-1.47461 1.2343,-0.57526 2.0992,-1.07216 2.6308,-1.52344 0.5316,-0.45128 0.7301,-0.8555 0.6289,-1.24219 -0.054,-0.20596 -0.035,-0.36462 0.1016,-0.52343 0.1366,-0.15882 0.3911,-0.31749 0.8027,-0.52735 0.5724,-0.29178 1.1295,-0.51167 1.2383,-0.48828 0.1089,0.0227 0.3945,-0.0442 0.6367,-0.15039 0.2835,-0.12397 0.7711,0.0111 1.3672,0.37891 0.7452,0.46027 0.9677,0.5048 1.1387,0.22851 0.1176,-0.19014 0.079,-0.3647 -0.1113,-0.52343 -0.1902,-0.15874 -0.5314,-0.30239 -1.0215,-0.42774 -0.9802,-0.2507 -2.5521,-0.43185 -4.6856,-0.53711 -0.3785,-0.0189 -0.5614,-0.16232 -0.5469,-0.42187 0.015,-0.25955 0.2262,-0.63612 0.6329,-1.11914 0.4942,-0.58708 0.5634,-0.78516 0.2714,-0.78516 -0.215,0 -0.467,0.12175 -0.5585,0.26953 -0.1097,0.17726 -0.3896,0.12331 -0.8223,-0.16016 -0.2887,-0.18903 -0.5041,-0.28884 -0.834,-0.30664 -0.3299,-0.0178 -0.7752,0.0465 -1.5215,0.17969 -0.9339,0.16668 -2.0348,0.52509 -2.4472,0.79688 -0.4125,0.27174 -0.9588,0.49518 -1.2129,0.49609 -0.254,6e-4 -0.3895,0.11526 -0.3028,0.25586 0.1317,0.21296 0.4191,0.28464 0.7793,0.22851 0.3603,-0.0561 0.793,-0.24029 1.2129,-0.53906 0.4351,-0.30964 1.3957,-0.55385 2.3047,-0.66406 0.909,-0.11021 1.7669,-0.0865 1.9961,0.14258 0.2322,0.23206 -0.017,0.77797 -0.5098,1.36133 -0.4929,0.58336 -1.2314,1.20593 -1.9824,1.58789 -0.77,0.39159 -1.4642,0.87898 -1.543,1.08398 -0.079,0.20485 -0.3023,0.37305 -0.498,0.37305 -0.1958,0 -0.3591,0.14299 -0.3633,0.31836 -0.01,0.34696 -2.0467,1.46679 -2.6699,1.46679 -0.2113,0 -0.7006,0.36902 -1.0879,0.81836 -0.8135,0.94387 -1.259,1.44131 -1.6406,1.69727 -0.3816,0.25596 -0.6989,0.26999 -1.2598,0.24805 l -1.0742,-0.041 0.8047,-0.71875 c 0.4427,-0.3953 0.8066,-0.78227 0.8066,-0.85937 0,-0.26911 -1.104,0.45197 -1.9062,1.24609 -0.4448,0.4402 -1.2414,0.93013 -1.7696,1.08789 -0.6616,0.19767 -0.8745,0.20183 -0.6855,0.0117 0.2369,-0.23669 0.3117,-0.43261 0.2656,-0.51367 -0.046,-0.0811 -0.2137,-0.0481 -0.459,0.17383 -0.3908,0.35346 -0.6075,0.473 -0.6504,0.36523 -0.043,-0.10777 0.09,-0.4435 0.4004,-0.99805 0.3251,-0.58004 1.0703,-1.44701 1.6563,-1.92773 0.586,-0.48072 1.1817,-1.21295 1.3261,-1.62695 0.1516,-0.43461 0.5461,-0.85937 0.9317,-1.00586 0.4324,-0.16422 0.6551,-0.24614 0.7695,-0.22852 0.1144,0.0176 0.1211,0.13431 0.1211,0.36523 0,0.26663 0.19,0.46367 0.416,0.53907 0.226,0.0754 0.4876,0.0287 0.627,-0.19141 0.1614,-0.25474 0.2259,-0.26464 0.2285,-0.0371 0,0.17537 0.1322,0.31836 0.2891,0.31836 0.1621,0 0.2266,-0.22572 0.1484,-0.52344 -0.099,-0.3795 0.019,-0.58493 0.4277,-0.74023 0.3107,-0.11792 0.7173,-0.39786 0.9043,-0.62305 0.1871,-0.22526 0.6133,-0.41015 0.9473,-0.41015 0.3337,0 0.6074,-0.10304 0.6074,-0.22852 0,-0.1338 -0.396,-0.13382 -0.957,-0.002 -0.5267,0.12397 -1.4375,0.15699 -2.0234,0.0742 -0.458,-0.0646 -0.7669,-0.0751 -1.0879,0.0195 -0.3211,0.0947 -0.6558,0.29472 -1.1661,0.64648 -0.6528,0.44897 -1.2641,0.73779 -1.3593,0.64258 -0.095,-0.0952 0.034,-0.32427 0.289,-0.50977 0.313,-0.22866 0.3681,-0.39543 0.1739,-0.51562 -0.2272,-0.14022 -0.102,-0.43674 0.1504,-0.67578 0.2523,-0.23905 0.6329,-0.42119 0.914,-0.33203 0.3443,0.10922 0.6073,0.0841 0.7305,-0.0234 0.1231,-0.10751 0.1056,-0.29687 -0.1133,-0.51563 -0.2018,-0.20145 -0.4761,-0.36718 -0.6094,-0.36718 -0.1334,0 -0.3856,-0.1723 -0.5605,-0.38282 -0.2002,-0.24111 -0.6295,-0.36307 -1.1133,-0.36523 -0.4838,-0.002 -1.0212,0.11704 -1.4395,0.35547 -0.3511,0.19994 -1.03,0.54295 -1.5078,0.76367 -0.4777,0.22072 -1.354,0.83079 -1.9472,1.35547 -0.5932,0.52471 -1.5603,1.34129 -2.1504,1.81445 -0.5902,0.47312 -1.1939,1.12666 -1.3418,1.45117 -0.1478,0.32467 -0.6221,0.73582 -1.0528,0.91407 -0.4306,0.17839 -1.1334,0.62741 -1.5625,1 -0.429,0.37266 -1.1115,0.84977 -1.5156,1.05859 -0.2945,0.15213 -0.458,0.25518 -0.5058,0.33594 -0.048,0.0808 0.021,0.13925 0.1875,0.20312 0.2286,0.0877 0.414,0.0478 0.414,-0.0879 0,-0.13606 0.1214,-0.24805 0.2696,-0.24805 0.1477,0 0.694,-0.28837 1.2128,-0.64062 0.5189,-0.35225 0.9821,-0.52458 1.0293,-0.38281 0.057,0.1712 0.2554,0.25041 0.5352,0.2539 0.2798,0.003 0.6402,-0.0675 1.0254,-0.19336 0.7703,-0.25175 1.6352,-0.72454 2.123,-1.26367 0.2465,-0.27212 0.706,-0.47275 1.0215,-0.44531 0.3156,0.0265 0.8031,-0.0746 1.084,-0.22656 0.5941,-0.32164 2.2082,-0.92019 2.4961,-0.92578 0.1085,-0.002 0.022,0.26479 -0.1934,0.59179 -0.2143,0.32693 -0.3271,0.65511 -0.2519,0.73047 0.076,0.0752 -0.2691,0.49417 -0.7656,0.92969 -0.4964,0.43551 -0.9024,0.90799 -0.9024,1.05078 0,0.14287 -0.4283,0.43903 -0.9531,0.6582 -1.0125,0.42278 -2.1113,1.3223 -2.1113,1.72852 0,0.13984 0.5148,0.18528 1.207,0.10742 0.5147,-0.058 0.7997,-0.0785 0.9082,-0.0508 0.1085,0.0277 0.042,0.10354 -0.1504,0.24414 -0.4413,0.32239 -2.4669,2.14143 -4.2832,3.84766 -0.5024,0.47202 -1.0643,1.31865 -1.25,1.88086 -0.1856,0.56216 -0.4222,0.97001 -0.5254,0.90625 -0.1032,-0.0635 -0.3271,0.2191 -0.4961,0.62695 -0.2273,0.54854 -0.7055,1.13546 -1.1738,1.53906 -0.4683,0.4036 -0.927,0.62418 -1.1172,0.43555 -0.2298,-0.22791 -0.2616,-0.20105 -0.1406,0.11719 0.1153,0.30274 -0.056,0.49133 -0.625,0.68945 -0.43,0.14967 -0.7813,0.45008 -0.7813,0.66797 0,0.2177 -0.138,0.39648 -0.3066,0.39648 -0.2264,0 -0.2304,0.0735 -0.018,0.28516 0.1829,0.18293 0.2157,0.42109 0.1055,0.70508 -0.1103,0.28398 -0.3654,0.61524 -0.7617,0.98242 -0.3444,0.31899 -0.5351,0.58008 -0.4239,0.58008 0.1111,0 -0.1074,0.28586 -0.4863,0.63672 -0.3764,0.34864 -0.6644,0.55268 -0.8496,0.60742 -0.1845,0.0545 -0.2651,-0.0389 -0.2285,-0.28516 0,0 0,-0.002 0,-0.002 0.027,-0.1755 0.1383,-0.4617 0.248,-0.63672 0.1274,-0.2041 0.055,-0.31836 -0.1992,-0.31836 -0.2188,0 -0.3984,-0.16864 -0.3984,-0.375 0,-0.2434 0.1484,-0.31796 0.4218,-0.21289 0.213,0.0816 0.3156,0.0416 0.3047,-0.22266 -0.011,-0.26427 -0.1339,-0.75315 -0.3769,-1.56836 -0.096,-0.3239 0.022,-0.50634 0.3945,-0.60351 0.2937,-0.0767 0.5332,-0.21839 0.5332,-0.3125 0,-0.0941 0.2095,-0.1858 0.4649,-0.20508 0.7797,-0.0586 2.607,-0.94402 2.5156,-1.21875 -0.047,-0.14211 -0.3482,-0.27243 -0.668,-0.28906 -0.3398,-0.017 -0.6099,-0.15682 -0.7715,-0.36719 -0.1616,-0.21037 -0.2131,-0.49093 -0.1191,-0.79297 0.073,-0.23395 0.01,-0.49955 -0.1348,-0.58984 -0.1478,-0.0915 -0.2656,0.0472 -0.2656,0.3125 0,0.2623 -0.1686,0.70019 -0.375,0.97265 -0.2934,0.38763 -0.4157,0.36138 -0.3887,0.11329 0.027,-0.2481 0.204,-0.71757 0.5098,-1.21876 0.3507,-0.57484 0.5103,-0.95084 0.4668,-1.20507 -0.043,-0.25424 -0.2908,-0.38753 -0.7559,-0.48047 -0.6272,-0.12529 -0.9557,-0.17535 -1.0351,-0.11328 -0.079,0.0621 0.092,0.23606 0.4668,0.55859 0.3442,0.29596 0.5171,0.45032 0.5507,0.61328 0.034,0.16297 -0.072,0.33576 -0.2871,0.66406 -0.2418,0.36926 -0.6109,0.66993 -0.8183,0.66993 -0.2075,0 -0.377,0.10259 -0.377,0.22656 0,0.12397 -0.2326,0.28492 -0.5176,0.35937 -0.2849,0.0745 -0.4993,0.23207 -0.4765,0.34961 0.11,0.56527 -0.3879,1.87305 -0.7129,1.87305 -0.2015,0 -0.3037,0.099 -0.2285,0.2207 0.075,0.1217 0.4541,0.17218 0.8437,0.11133 0.3234,-0.0503 0.4918,-0.0716 0.5274,-0.0371 0.035,0.0344 -0.062,0.12491 -0.2656,0.29102 -0.2457,0.20031 -0.4454,0.50642 -0.4454,0.68164 0,0.19927 -0.3066,0.23115 -0.6855,0.14844 -0.3789,-0.0827 -0.8308,-0.27986 -1.1231,-0.54297 -0.2218,-0.19956 -0.6001,-0.36328 -0.8398,-0.36328 -0.1824,0 -0.2795,-0.021 -0.3008,-0.0996 -0.021,-0.0786 0.035,-0.21496 0.1563,-0.44141 0.1595,-0.29745 0.5064,-0.59816 0.7734,-0.66797 0.2668,-0.0699 0.4863,-0.2349 0.4863,-0.36719 0,-0.13228 -0.099,-0.17954 -0.2187,-0.10546 -0.1198,0.0741 -0.346,-0.14963 -0.5039,-0.4961 -0.158,-0.34658 -0.3892,-0.62891 -0.5137,-0.6289 -0.388,0 -1.566,1.03551 -1.5039,1.32226 0.034,0.14967 -0.1031,0.33046 -0.3008,0.40234 -0.2494,0.0903 -0.3103,0.003 -0.1992,-0.2871 0.088,-0.2298 0.048,-0.41797 -0.088,-0.41797 -0.1361,0 -0.248,-0.18959 -0.248,-0.42188 0,-0.19652 -0.01,-0.29492 -0.07,-0.29492 -0.063,0 -0.18,0.0984 -0.3965,0.29492 -0.257,0.23244 -0.589,0.42188 -0.7383,0.42188 -0.1493,0 -0.8338,0.50708 -1.5215,1.125 -0.5126,0.46059 -0.8579,0.73344 -1.1484,0.8789 -0.2906,0.14546 -0.5255,0.16179 -0.8203,0.10547 -0.572,-0.10923 -0.8489,0.0155 -1.3497,0.59961 l -0.6289,0.73633 0.4512,-0.82031 c 0.2483,-0.45192 1.4335,-2.13943 2.6348,-3.75 1.4172,-1.90011 2.9149,-3.72652 4.4883,-5.47461 1.5733,-1.74809 3.2225,-3.41773 4.9394,-5.00586 1.7169,-1.58813 3.5017,-3.09539 5.3496,-4.51563 1.848,-1.42023 3.7582,-2.75365 5.7246,-3.99804 1.9664,-1.2444 3.9902,-2.39837 6.0625,-3.45899 2.0724,-1.06062 4.1937,-2.02758 6.3594,-2.89648 2.1657,-0.86891 4.3745,-1.6413 6.6211,-2.31055 2.2466,-0.66925 4.5308,-1.23562 6.8457,-1.69727 3.6094,-0.71981 7.5833,-1.23082 11.1914,-1.48046 3.5384,-0.24483 6.6776,-0.22142 8.8262,0.082 a 76.895776,76.895776 0 0 0 -5.1114,-0.25586 z m 10.4102,4.14258 c 0.2483,0.0646 0.107,0.12204 -0.3144,0.12695 -0.4215,0.008 -0.6261,-0.0473 -0.4532,-0.11719 v -0.002 c 0.1727,-0.0699 0.5191,-0.0743 0.7676,-0.008 z m -20.7754,2.83789 c 0.4954,-0.12435 0.668,-0.0687 0.668,0.21289 0,0.25275 -0.1684,0.51217 -0.3809,0.68164 -0.2124,0.16946 -0.4679,0.24897 -0.6465,0.13867 -0.1564,-0.0968 -0.8232,-0.0924 -1.4804,0.008 -0.4757,0.0737 -0.7486,0.13059 -0.8516,0.18945 -0.1029,0.0589 -0.035,0.11918 0.168,0.20118 0.2321,0.0935 0.3455,0.14474 0.3281,0.17578 -0.017,0.031 -0.1668,0.0429 -0.457,0.0527 -0.3511,0.0113 -0.8969,0.0892 -1.2129,0.17383 -0.3138,0.0841 -0.5668,0.0877 -0.5703,0.008 -10e-5,4.7e-4 0,0.003 0,0.004 v -0.004 c 0,5.6e-4 0,-5.4e-4 0,0 0,-0.0819 0.2587,-0.4233 0.5761,-0.76562 0.4178,-0.45041 0.9469,-0.66629 1.8868,-0.76758 0.7183,-0.0775 1.6055,-0.21637 1.9726,-0.30859 z m -0.3906,2.81836 c -0.3137,0.31332 -1.6449,0.56304 -2.1172,0.39648 v -0.002 c -0.2717,-0.096 -0.385,-0.2313 -0.2539,-0.30274 0.3398,-0.18557 2.5508,-0.27132 2.3711,-0.0918 z m 0.086,0.72656 c 0.2037,0.0816 0.1432,0.14025 -0.1543,0.15234 -0.2691,0.0113 -0.4207,-0.0481 -0.3359,-0.13281 v -0.002 c 0.085,-0.085 0.3057,-0.0924 0.4902,-0.0176 z m -3.5722,0.3164 c 0.3885,0.12318 0.4263,0.22839 0.1875,0.51563 -0.1651,0.1988 -0.4862,0.35893 -0.7149,0.35742 -0.1814,-0.002 -0.2745,-0.0114 -0.2793,-0.0469 0,-0.0355 0.077,-0.0974 0.2442,-0.20508 0.1655,-0.10677 0.2462,-0.16737 0.2402,-0.20313 -0.01,-0.0358 -0.099,-0.0453 -0.2832,-0.0469 -0.2331,-6.9e-4 -0.482,0.13981 -0.5527,0.31445 -0.081,0.20145 -0.1371,0.16534 -0.1485,-0.0996 -0.012,-0.25213 0.1452,-0.45236 0.3906,-0.5625 0.2455,-0.11013 0.5796,-0.13021 0.9161,-0.0234 z m -19.3321,3.93946 c 0.2105,0 0.3828,0.11564 0.3828,0.25586 0,0.14022 -0.1721,0.2539 -0.3828,0.2539 -0.2105,0 -0.3847,-0.11368 -0.3847,-0.2539 0,-0.14022 0.174,-0.25586 0.3847,-0.25586 z m -1.6601,1.53125 c 0.5001,-0.32315 0.8384,-0.32315 0.6386,0 -0.087,0.1406 -0.3524,0.25422 -0.5898,0.25195 -0.1861,-0.002 -0.2821,-0.0111 -0.2891,-0.0469 -0.01,-0.0358 0.075,-0.0985 0.2403,-0.20508 z m 82.4863,0.76562 c 0.013,-0.0132 0.1178,0.0639 0.3203,0.22266 0.2459,0.19264 0.4453,0.39435 0.4453,0.44726 0,0.20996 -0.2092,0.0755 -0.5429,-0.34961 -0.1589,-0.20239 -0.2359,-0.30713 -0.2227,-0.32031 z m -87.8711,1.37305 c 0.011,0.029 -0.1085,0.12024 -0.3477,0.29883 -0.549,0.40996 -1.0148,0.49567 -0.7988,0.14648 0.076,-0.12359 0.3986,-0.29097 0.7168,-0.37109 0.2791,-0.0703 0.419,-0.10328 0.4297,-0.0742 z m 47.0859,1.32617 c 0.08,-0.0695 0.2522,-0.009 0.5899,0.11914 0.5031,0.19125 0.7484,0.1828 0.8789,-0.0273 0.1311,-0.21203 0.2288,-0.21493 0.3555,-0.008 0.096,0.15533 0.045,0.2832 -0.1114,0.2832 -0.1572,0 -0.2138,0.11564 -0.1269,0.25586 0.087,0.1406 0.01,0.25554 -0.1758,0.25781 -0.243,0.003 -0.2293,0.0721 0.049,0.25195 0.1561,0.10073 0.2245,0.16199 0.1992,0.19922 -0.025,0.0372 -0.1458,0.051 -0.371,0.0527 -0.3043,0.002 -0.6108,-0.14066 -0.6817,-0.31641 -0.081,-0.20145 -0.1356,-0.163 -0.1484,0.10156 -0.015,0.30781 -0.2914,0.53743 -0.6739,0.64649 -0.3824,0.10905 -0.8718,0.0965 -1.3105,-0.082 v -0.002 c -0.2132,-0.0869 -0.1758,-0.25462 0.127,-0.5625 0.3016,-0.30652 0.5201,-0.35946 0.7246,-0.17578 0.161,0.14438 0.231,0.36473 0.1562,0.48828 -0.075,0.12359 0.023,0.16884 0.2188,0.10157 0.2271,-0.0782 0.3244,-0.41075 0.2734,-0.92579 -0.039,-0.3894 -0.052,-0.5887 0.027,-0.6582 z m 9.668,1.30274 c 0.074,-0.018 0.2719,0.10518 0.5352,0.38085 0.2456,0.25739 0.3462,0.4668 0.2226,0.4668 -0.1232,0 -0.3693,-0.17467 -0.5468,-0.38867 -0.2348,-0.28267 -0.2849,-0.44098 -0.211,-0.45898 z m -52.2558,0.64257 c 0.079,0.0786 -0.065,0.22079 -0.3165,0.31641 -0.1819,0.0693 -0.2792,0.0958 -0.3007,0.0742 -0.022,-0.0215 0.033,-0.0907 0.1582,-0.2168 0.1731,-0.17461 0.3803,-0.25244 0.459,-0.17383 z m 35.1074,0.45508 c 0,-0.23735 1.7166,-0.15022 1.9668,0.0996 0.1245,0.12454 0,0.36393 -0.1992,0.55469 -0.2006,0.19076 -0.4781,0.33352 -0.6602,0.26367 -0.2348,-0.0899 -0.3432,-0.002 -0.3301,0.17773 0.013,0.17928 0.1484,0.45047 0.3965,0.72461 0.2382,0.26302 0.312,0.5058 0.2422,0.67774 -0.07,0.17193 -0.2845,0.27324 -0.6192,0.24805 -0.3182,-0.0227 -0.4289,-0.1844 -0.3476,-0.4961 0.1024,-0.39133 0.028,-0.51588 -0.1426,-0.41992 -0.1703,0.096 -0.4355,0.41308 -0.7187,0.90625 -0.2601,0.45294 -0.3984,0.68295 -0.5059,0.73437 -0.1075,0.0514 -0.1842,-0.0764 -0.3242,-0.33789 -0.1599,-0.2982 -0.291,-0.72162 -0.291,-0.9414 0,-0.21959 -0.1153,-0.39844 -0.2559,-0.39844 -0.3012,0 -0.333,-1.01229 -0.047,-1.46289 0.1157,-0.1818 0.5433,-0.27065 1.0176,-0.21094 0.4502,0.0571 0.8184,0.004 0.8184,-0.11914 z m -21.1035,8.94141 c 0.3515,-0.003 0.4422,0.13129 0.3437,0.50781 -0.1028,0.39368 -0.01,0.51059 0.416,0.51172 0.3028,6e-4 0.9885,0.12295 1.5235,0.27148 0.4461,0.12378 0.6876,0.20768 0.8086,0.35352 0.1209,0.14584 0.122,0.35423 0.086,0.72461 -0.052,0.52921 -0.2761,0.89063 -0.7441,1.12109 -0.4681,0.23047 -1.1791,0.32961 -2.2071,0.33203 -1.2646,0.003 -1.5976,-0.0771 -1.5976,-0.38671 0,-0.21506 -0.1721,-0.4583 -0.3828,-0.53907 -0.2479,-0.0951 -0.3711,-0.24612 -0.3711,-0.37304 0,-0.12693 0.1232,-0.22852 0.3711,-0.22852 0.2105,0 0.3828,-0.17229 0.3828,-0.38281 0,-0.21052 -0.1207,-0.38281 -0.2696,-0.38282 -0.1489,0 -0.2023,-0.10958 -0.1191,-0.24414 0.083,-0.13417 0.3399,-0.17242 0.5703,-0.084 0.1631,0.0625 0.2565,0.0766 0.293,0.0293 0.036,-0.0473 0.016,-0.15654 -0.055,-0.33985 -0.1,-0.26001 -0.052,-0.47992 0.1152,-0.63672 0.1677,-0.15679 0.4549,-0.25078 0.836,-0.2539 z m 34.1269,0.50781 c 0.3405,0 0.5117,0.16942 0.5117,0.50977 0,0.24595 -0.126,0.41883 -0.2949,0.48632 -0.1689,0.0675 -0.3809,0.0293 -0.5566,-0.14648 -0.1758,-0.17575 -0.2141,-0.38788 -0.1465,-0.55664 0.067,-0.16876 0.2403,-0.29297 0.4863,-0.29297 z m -29.9433,6.89063 c 0.2581,0 0.2738,0.12106 0.064,0.51171 -0.171,0.31934 -0.2725,0.47852 -0.3301,0.47852 -0.058,0 -0.072,-0.15918 -0.072,-0.47852 v 0 c 0,-0.28081 0.1508,-0.51171 0.336,-0.51171 z m -49.7344,2.67968 c 0.1402,-0.0866 0.2558,-0.0426 0.2558,0.0977 0,0.14022 -0.1152,0.32725 -0.2558,0.41406 -0.1406,0.0865 -0.2559,0.0426 -0.2559,-0.0976 0,-0.14022 0.1153,-0.32725 0.2559,-0.41407 z m 52.2344,0.21485 c 0.022,0.10411 -0.061,0.30807 -0.2598,0.57031 -0.1635,0.2159 -0.2572,0.32551 -0.3106,0.33398 -0.053,0.008 -0.067,-0.0841 -0.07,-0.27343 0,-0.23736 0.116,-0.50709 0.2657,-0.59961 0.225,-0.13909 0.3526,-0.13536 0.375,-0.0312 z m -52.5801,0.75976 c 0.1372,0.1372 -0.6085,1.70508 -0.8106,1.70508 -0.067,0 -0.1211,-0.0616 -0.1211,-0.13867 0,-0.31635 0.8137,-1.68437 0.9317,-1.56641 z m 73.0176,0.17383 c 0.41,0 1.1328,0.57579 1.1328,0.90234 0,0.22596 -0.1364,0.3481 -0.3262,0.36133 -0.1898,0.0132 -0.4332,-0.0817 -0.6445,-0.29297 -0.3134,-0.31287 -0.4229,-0.9707 -0.1621,-0.9707 z m -74.459,2.55273 c 0.1406,0 0.2558,0.11564 0.2558,0.25586 0,0.14022 -0.1152,0.25391 -0.2558,0.25391 -0.1406,0 -0.2559,-0.11369 -0.2559,-0.25391 0,-0.14022 0.1153,-0.25586 0.2559,-0.25586 z m -2.5,6.63672 c 0.2105,0 0.078,1.12111 -0.3008,2.54297 -0.1247,0.46806 -0.2061,0.52646 -0.3184,0.23438 -0.1901,-0.49497 0.3187,-2.77735 0.6192,-2.77735 z m -0.6524,4.78516 c 0.071,0.17537 0.071,0.46315 0,0.63867 -0.071,0.17537 -0.1289,0.0289 -0.1289,-0.32031 0,-0.35074 0.058,-0.49388 0.1289,-0.31836 z m 25.1739,2.23633 c 0.069,-0.0493 0.217,-0.0211 0.4218,0.10547 0.2196,0.13568 0.2458,0.26722 0.074,0.37304 -0.1458,0.09 -0.3417,0.0406 -0.4355,-0.11132 -0.1174,-0.18964 -0.1291,-0.31785 -0.061,-0.36719 z m 70.875,1.35156 c 0.2825,0.0928 0.595,0.34275 0.9082,0.73828 0.2559,0.32326 0.5674,0.58789 0.6914,0.58789 0.1239,0 0.5121,0.2856 0.8632,0.63672 0.3512,0.35082 0.8749,0.63867 1.1622,0.63867 0.3798,0 0.5214,0.16628 0.5214,0.60743 0,0.33377 0.1723,0.74921 0.3829,0.92382 0.2107,0.17477 0.3828,0.47604 0.3828,0.66992 0,0.19393 0.2309,0.78089 0.5117,1.30469 0.281,0.52385 0.5097,1.09776 0.5097,1.27539 0,0.17764 0.092,0.32227 0.2012,0.32227 0.1097,0 0.339,0.37381 0.5117,0.83008 0.1357,0.35849 0.2007,0.5772 0.1836,0.74023 -0.017,0.16303 -0.1149,0.27025 -0.3027,0.4082 v 0 c -0.2539,0.18634 -0.6672,0.29178 -1.0625,0.3086 -0.3952,0.0168 -0.7707,-0.0545 -0.9453,-0.22266 -0.1334,-0.1285 -0.5317,-0.27111 -0.8828,-0.31836 -0.2931,-0.0392 -0.4541,-0.0908 -0.5508,-0.30078 -0.097,-0.20996 -0.1289,-0.57804 -0.164,-1.25195 -0.062,-1.18829 -2e-4,-1.46875 0.3203,-1.46875 0.2178,0 0.3945,-0.17229 0.3945,-0.38281 0,-0.21049 -0.1572,-0.38282 -0.3496,-0.38282 -0.3355,0 -2.89,-1.87689 -3.291,-2.41797 -0.1066,-0.14384 -0.2581,-0.54965 -0.3379,-0.90039 -0.08,-0.35093 -0.2691,-0.89207 -0.4199,-1.20312 -0.2018,-0.41681 -0.1911,-0.66399 0.039,-0.94141 0.191,-0.22996 0.4421,-0.29398 0.7247,-0.20117 z m -10.461,0.86523 c 0.1467,0.14661 0.2053,0.42563 0.1309,0.61915 v 0.002 c -0.088,0.22841 -0.49,0.3456 -0.8711,0.34766 -0.3812,0.002 -0.7403,-0.11079 -0.7403,-0.33985 0,-0.24323 0.2838,-0.48605 0.6114,-0.625 0.3275,-0.13895 0.6983,-0.17474 0.8691,-0.004 z m -58.9414,0.20508 c 0,-0.32693 0.1804,-0.32693 0.3828,0 0.087,0.14022 0.039,0.25391 -0.1113,0.25391 -0.1489,0 -0.2715,-0.11369 -0.2715,-0.25391 z m 53.541,0.44532 c 0.072,0.17537 0.3399,0.32031 0.5957,0.32031 0.33,0 0.4295,0.13936 0.3418,0.47461 -0.086,0.32768 0.04,0.51961 0.4063,0.61523 0.2921,0.0763 0.5332,0.32118 0.5332,0.54492 0,0.27317 0.1659,0.40205 0.4355,0.38868 0.2697,-0.0134 0.6424,-0.16915 1.0567,-0.46289 0.5326,-0.37758 0.932,-0.56483 1.3867,-0.55665 0.4547,0.008 0.9642,0.21252 1.7168,0.61329 0.7725,0.4114 1.8384,0.97535 2.3691,1.2539 0.6834,0.35892 1.0815,0.67232 1.2129,0.98633 0.1314,0.31401 0,0.6289 -0.3867,0.98828 -0.2549,0.23928 -0.4795,0.38417 -0.8145,0.46875 -0.3349,0.0846 -0.7797,0.10938 -1.4726,0.10938 -0.9341,0 -1.8367,-0.13783 -2.0449,-0.31055 -0.205,-0.17084 -0.4921,-0.23524 -0.6387,-0.14453 -0.1467,0.0907 -0.2676,0.0463 -0.2676,-0.0996 0,-0.22861 -0.5895,-0.22913 -1.3066,-0.0918 -0.7171,0.13734 -1.5624,0.41203 -2.0723,0.73828 -0.6512,0.41713 -1.4239,0.62919 -2.1016,0.63477 -0.6776,0.006 -1.259,-0.19626 -1.5273,-0.60547 -0.1901,-0.29004 -0.2621,-0.71941 -0.2324,-1.07617 0.03,-0.35676 0.1607,-0.64063 0.375,-0.64063 0.1239,0 0.2246,-0.31905 0.2246,-0.70898 0,-0.39311 0.2286,-0.90422 0.5117,-1.14649 0.281,-0.24037 0.5125,-0.63953 0.5156,-0.88671 0,-0.31251 0.2575,-0.76653 0.5313,-1.0918 0.2738,-0.32527 0.5679,-0.5218 0.6523,-0.31445 z m -83.1211,4.90429 c 0.1566,-0.0774 0.2529,0.73587 0.2188,2.47266 -0.1259,6.42191 -0.078,8.75665 0.1875,9.07617 0.1549,0.18671 0.4157,1.14152 0.5781,2.12109 0.1625,0.97954 0.3995,1.98087 0.5274,2.22461 0.1277,0.24378 0.2344,0.9895 0.2363,1.65821 0,0.66867 0.1607,1.9057 0.3535,2.74804 0.1931,0.84223 0.4241,2.10471 0.5137,2.80664 0.1436,1.12576 0.7396,2.9624 1.4687,4.73438 0.7291,1.77198 1.5929,3.48092 2.2715,4.35351 0.393,0.5054 1.2425,2.02628 1.8887,3.38086 0.6462,1.35459 1.2749,2.4629 1.3965,2.4629 0.2687,0 0.4679,0.47855 0.9375,2.24609 0.2592,0.9758 0.3727,1.60447 0.3125,2.125 -0.06,0.52053 -0.2937,0.93179 -0.7286,1.47265 l -0.7773,0.9668 0.6641,2.01758 c 0.7398,2.24852 1.3837,4.69922 1.2343,4.69922 -0.054,0 -0.52,-0.65972 -1.0371,-1.4668 -1.4199,-2.21637 -3.0105,-5.3266 -4.4609,-8.61719 -1.4504,-3.29058 -2.7602,-6.76217 -3.6152,-9.70703 -0.682,-2.34881 -1.257,-4.78186 -1.7208,-7.24609 -0.4637,-2.46423 -0.817,-4.96027 -1.0527,-7.4375 -0.2357,-2.47724 -0.3536,-4.93445 -0.3515,-7.32227 0,-2.38782 0.1255,-4.70635 0.375,-6.90234 0.207,-1.82222 0.4235,-2.78983 0.58,-2.86719 z m 145.8086,11.11328 0.2461,0.61524 c 0.264,0.65973 0.2061,1.17318 -0.092,0.88281 7e-4,7.6e-4 0,0.005 0,0.006 v 0 c 0,0.002 0,-0.008 0,-0.006 -0.1013,-0.1056 -0.1785,-0.47981 -0.1699,-0.83984 z m -32.4648,22.8418 c 0.5031,-0.32504 1.0955,-0.32504 0.8945,0 -0.087,0.14022 -0.409,0.25422 -0.7168,0.25195 -0.2274,-0.002 -0.3507,-0.0135 -0.3769,-0.0508 -0.026,-0.0373 0.043,-0.10063 0.1992,-0.20117 z m -60.0137,18.12109 c 0.3273,0 0.3273,0.18057 0,0.38282 -0.1406,0.0866 -0.2559,0.0353 -0.2559,-0.11133 0,-0.14854 0.1153,-0.27149 0.2559,-0.27149 z m 55.5078,10.72266 c 0.2489,0.26398 0.4272,0.8783 0.4922,1.46875 0.065,0.59045 0.016,1.15703 -0.1855,1.32422 -0.1743,0.14438 -0.392,0.18792 -0.4844,0.0957 -0.093,-0.0922 -0.168,0.13751 -0.168,0.51172 0,0.37455 -0.1152,0.68164 -0.2558,0.68164 -0.1406,0 -0.2559,0.11249 -0.2559,0.25195 0,0.2933 -1.7053,3.05463 -3.1914,5.16602 -0.7775,1.10453 -1.2927,1.5532 -2.1543,1.88281 -1.2968,0.4955 -2.5,0.68258 -2.6504,0.41211 -0.057,-0.10204 -0.117,-0.65258 -0.1348,-1.22461 -0.013,-0.42431 0.013,-0.71854 0.1231,-0.98242 0.1099,-0.26388 0.303,-0.4981 0.6191,-0.80078 0.3373,-0.32289 0.5263,-0.53814 0.6133,-0.77539 0.087,-0.23725 0.071,-0.49592 0,-0.9043 -0.09,-0.53335 0.014,-1.16258 0.2187,-1.6582 0.2043,-0.49562 0.5083,-0.85742 0.8184,-0.85742 0.3552,0 1.0272,-0.27164 1.6972,-0.63867 0.6701,-0.36704 1.3379,-0.82964 1.6856,-1.21485 1.4082,-1.55985 2.1179,-2.34325 2.5215,-2.6875 0.4035,-0.34425 0.5021,-0.24954 0.6894,-0.0508 z m -18.6855,2.31836 v 0 c 0.087,0.22303 0.076,0.7966 -0.023,1.27539 -0.1402,0.67276 -0.2088,0.75354 -0.3067,0.35938 -0.1769,-0.7135 0.1158,-2.1709 0.3282,-1.63477 z"
         style="fill:#ffffff;fill-opacity:1;stroke-width:1.53791547"
         inkscape:connector-curvature="0" />
      <polygon
         transform="matrix(0.4069068,0,0,0.4069068,-499.24499,28.679913)"
         style="fill:url(#linearGradient5965)"
         points="80,0 80,80 160,170 "
         id="pg_arrowRight" />
      <g
         transform="matrix(3.8779697,0,0,3.8779697,-572.92958,-8.4001362)"
         id="text5975"
         style="font-style:normal;font-weight:normal;font-size:12.69999981px;line-height:125%;font-family:sans-serif;letter-spacing:0px;word-spacing:0px;fill:#ffffff;fill-opacity:1;stroke:none;stroke-width:0.26458332px;stroke-linecap:butt;stroke-linejoin:miter;stroke-opacity:1"
         aria-label="Aaziz &amp; Co.">
        <path
           inkscape:connector-curvature="0"
           id="path5981"
           style="font-style:normal;font-variant:normal;font-weight:800;font-stretch:normal;font-size:12.69999981px;font-family:'Exo 2';-inkscape-font-specification:'Exo 2 Ultra-Bold';fill:#ffffff;fill-opacity:1;stroke-width:0.26458332px"
           d="m 42.651499,18.7521 h -2.6924 l -0.5207,2.0828 h -2.4384 l 2.4003,-8.1407 q 0.0635,-0.2794 0.2794,-0.4445 0.2286,-0.1778 0.5207,-0.1778 h 2.2098 q 0.2921,0 0.508,0.1778 0.2286,0.1651 0.3048,0.4445 l 2.3876,8.1407 h -2.4384 z m -0.4445,-1.7272 -0.5588,-2.2479 q -0.1397,-0.6604 -0.1651,-0.9144 h -0.3429 q -0.0889,0.4826 -0.1778,0.9144 l -0.5588,2.2479 z" />
        <path
           inkscape:connector-curvature="0"
           id="path5983"
           style="font-style:normal;font-variant:normal;font-weight:800;font-stretch:normal;font-size:12.69999981px;font-family:'Exo 2';-inkscape-font-specification:'Exo 2 Ultra-Bold';fill:#ffffff;fill-opacity:1;stroke-width:0.26458332px"
           d="m 46.435702,16.1613 -0.2032,-1.4986 q 1.6764,-0.3175 3.4544,-0.3175 1.3335,0 1.9812,0.5588 0.6477,0.5461 0.6477,1.905 v 4.0259 h -1.8288 l -0.2159,-0.9271 Q 49.356702,21 48.023202,21 q -0.9271,0 -1.524,-0.4699 -0.5969,-0.4826 -0.5969,-1.3335 v -0.635 q 0,-0.7493 0.5334,-1.1811 0.5461,-0.4318 1.4859,-0.4318 h 2.0955 v -0.1524 q -0.0127,-0.4064 -0.2032,-0.5588 -0.1778,-0.1651 -0.6731,-0.1651 -1.2319,0 -2.7051,0.0889 z m 1.7272,2.4892 v 0.2159 q 0,0.508 0.6223,0.508 0.5588,0 1.2319,-0.4318 v -0.7874 h -1.3208 q -0.5334,0.0127 -0.5334,0.4953 z" />
        <path
           inkscape:connector-curvature="0"
           id="path5985"
           style="font-style:normal;font-variant:normal;font-weight:800;font-stretch:normal;font-size:12.69999981px;font-family:'Exo 2';-inkscape-font-specification:'Exo 2 Ultra-Bold';fill:#ffffff;fill-opacity:1;stroke-width:0.26458332px"
           d="m 59.263694,19.2855 v 1.5494 h -5.9182 v -1.5494 l 3.175,-3.2131 h -3.1115 V 14.523 h 5.7785 v 1.5494 l -3.175,3.2131 z" />
        <path
           inkscape:connector-curvature="0"
           id="path5987"
           style="font-style:normal;font-variant:normal;font-weight:800;font-stretch:normal;font-size:12.69999981px;font-family:'Exo 2';-inkscape-font-specification:'Exo 2 Ultra-Bold';fill:#ffffff;fill-opacity:1;stroke-width:0.26458332px"
           d="m 61.031573,11.6782 h 1.0033 q 0.6604,0 0.6604,0.6858 v 0.6604 q 0,0.6731 -0.6604,0.6731 h -1.0033 q -0.6731,0 -0.6731,-0.6731 V 12.364 q 0,-0.6858 0.6731,-0.6858 z m 1.651,9.1567 h -2.2987 V 14.523 h 2.2987 z" />
        <path
           inkscape:connector-curvature="0"
           id="path5989"
           style="font-style:normal;font-variant:normal;font-weight:800;font-stretch:normal;font-size:12.69999981px;font-family:'Exo 2';-inkscape-font-specification:'Exo 2 Ultra-Bold';fill:#ffffff;fill-opacity:1;stroke-width:0.26458332px"
           d="m 69.731271,19.2855 v 1.5494 h -5.9182 v -1.5494 l 3.175,-3.2131 h -3.1115 V 14.523 h 5.7785 v 1.5494 l -3.175,3.2131 z" />
        <path
           inkscape:connector-curvature="0"
           id="path5991"
           style="font-style:normal;font-variant:normal;font-weight:800;font-stretch:normal;font-size:12.69999981px;font-family:'Exo 2';-inkscape-font-specification:'Exo 2 Ultra-Bold';fill:#ffffff;fill-opacity:1;stroke-width:0.26458332px"
           d="m 81.962563,19.1966 0.254,1.5113 Q 81.556163,21 80.438563,21 q -1.2319,0 -1.6637,-0.8509 -0.508,0.4572 -1.1176,0.6604 -0.5969,0.1905 -1.5621,0.1905 -1.4478,0 -2.0828,-0.5461 -0.6223,-0.5461 -0.6223,-1.8542 0,-1.0414 0.4064,-1.6129 0.4064,-0.5715 1.3335,-0.6604 v -0.0762 q -0.7747,-0.0762 -1.1176,-0.5588 -0.3429,-0.4826 -0.3429,-1.4605 0,-0.6223 0.127,-1.0287 0.127,-0.4191 0.3556,-0.6731 0.2413,-0.2667 0.6858,-0.3937 0.4445,-0.1397 0.9525,-0.1778 0.5207,-0.0508 1.3462,-0.0508 1.27,0 2.0955,0.1651 l -0.2794,1.5748 q -1.4478,-0.0381 -1.8796,-0.0381 -0.6096,0 -0.8128,0.1905 -0.1905,0.1778 -0.1905,0.8001 0,0.5842 0.1778,0.7874 0.1905,0.2032 0.7366,0.2032 h 1.6764 l 0.1397,-1.2319 h 1.9558 v 1.2319 h 1.2192 v 1.4986 h -1.2192 v 1.5621 q 0,0.3048 0.1143,0.4318 0.1143,0.1143 0.3937,0.1143 z m -3.3782,-2.1082 h -1.7399 q -0.5715,0 -0.7493,0.2032 -0.1778,0.2032 -0.1778,0.8255 0,0.635 0.1651,0.8509 0.1651,0.2032 0.7239,0.1905 1.016,-0.0254 1.778,-0.3556 z" />
        <path
           inkscape:connector-curvature="0"
           id="path5993"
           style="font-style:normal;font-variant:normal;font-weight:800;font-stretch:normal;font-size:12.69999981px;font-family:'Exo 2';-inkscape-font-specification:'Exo 2 Ultra-Bold';fill:#ffffff;fill-opacity:1;stroke-width:0.26458332px"
           d="m 92.358306,18.8537 0.1905,1.7399 q -1.143,0.3937 -2.9591,0.3937 -2.1082,0 -2.9718,-1.016 -0.8636,-1.016 -0.8636,-3.5179 0,-2.5019 0.8636,-3.5179 0.8636,-1.016 2.9718,-1.016 1.6002,0 2.7686,0.3175 l -0.1778,1.7526 q -1.2954,-0.0381 -2.5908,-0.0381 -0.7874,0 -1.0668,0.5207 -0.2667,0.508 -0.2667,1.9812 0,1.4732 0.2667,1.9939 0.2794,0.508 1.0668,0.508 1.8415,0 2.7686,-0.1016 z" />
        <path
           inkscape:connector-curvature="0"
           id="path5995"
           style="font-style:normal;font-variant:normal;font-weight:800;font-stretch:normal;font-size:12.69999981px;font-family:'Exo 2';-inkscape-font-specification:'Exo 2 Ultra-Bold';fill:#ffffff;fill-opacity:1;stroke-width:0.26458332px"
           d="m 96.634436,14.3452 q 1.8669,0 2.6289,0.762 0.774704,0.7493 0.774704,2.5781 0,1.8161 -0.774704,2.5654 -0.762,0.7366 -2.6289,0.7366 -1.8669,0 -2.6416,-0.7366 -0.762,-0.7493 -0.762,-2.5654 0,-1.8288 0.7747,-2.5781 0.7747,-0.762 2.6289,-0.762 z m 0,1.6256 q -0.5969,0 -0.7874,0.3429 -0.1905,0.3302 -0.1905,1.3716 0,1.0287 0.1905,1.3589 0.1905,0.3302 0.7874,0.3302 0.5842,0 0.7747,-0.3302 0.2032,-0.3302 0.2032,-1.3589 0,-1.0414 -0.2032,-1.3716 -0.1905,-0.3429 -0.7747,-0.3429 z" />
        <path
           inkscape:connector-curvature="0"
           id="path5997"
           style="font-style:normal;font-variant:normal;font-weight:800;font-stretch:normal;font-size:12.69999981px;font-family:'Exo 2';-inkscape-font-specification:'Exo 2 Ultra-Bold';fill:#ffffff;fill-opacity:1;stroke-width:0.26458332px"
           d="m 101.77297,18.6759 h 0.5461 q 0.4572,0 0.6223,0.1778 0.1778,0.1651 0.1778,0.6223 v 0.5588 q 0,0.4572 -0.1778,0.635 -0.1651,0.1651 -0.6223,0.1651 h -0.5461 q -0.4572,0 -0.635,-0.1651 -0.1651,-0.1778 -0.1651,-0.635 V 19.476 q 0,-0.4572 0.1651,-0.6223 0.1778,-0.1778 0.635,-0.1778 z" />
      </g>
      <g
         transform="matrix(3.2264267,0,0,3.2264267,-560.39561,2.735158)"
         id="text6002"
         style="font-style:normal;font-variant:normal;font-weight:500;font-stretch:normal;font-size:7.05555534px;line-height:125%;font-family:Exo;-inkscape-font-specification:'Exo Medium';letter-spacing:0px;word-spacing:0px;fill:#ffffff;fill-opacity:1;stroke:none;stroke-width:0.26458332px;stroke-linecap:butt;stroke-linejoin:miter;stroke-opacity:1"
         aria-label="Accountants and Tax Consultants">
        <path
           inkscape:connector-curvature="0"
           id="path6004"
           style="font-style:normal;font-variant:normal;font-weight:500;font-stretch:normal;font-family:Exo;-inkscape-font-specification:'Exo Medium';fill:#ffffff;fill-opacity:1;stroke-width:0.26458332px"
           d="m 40.586971,28.928663 1.855611,-5.164666 h 0.684389 l 1.778,5.164666 h -0.740833 l -0.423333,-1.361722 h -1.954389 l -0.4445,1.361722 z m 1.404056,-1.975555 h 1.552222 l -0.762,-2.257778 z" />
        <path
           inkscape:connector-curvature="0"
           id="path6006"
           style="font-style:normal;font-variant:normal;font-weight:500;font-stretch:normal;font-family:Exo;-inkscape-font-specification:'Exo Medium';fill:#ffffff;fill-opacity:1;stroke-width:0.26458332px"
           d="m 45.315957,27.87033 q -0.0635,-0.345722 -0.0635,-0.818444 0,-0.472723 0.05645,-0.811389 0.0635,-0.345723 0.162277,-0.550334 0.105834,-0.211666 0.268111,-0.338666 0.282223,-0.204611 0.747889,-0.204611 0.423334,0 0.903111,0.07056 0.486834,0.0635 0.733778,0.127 v 0.437445 q -0.896055,-0.04233 -1.291167,-0.04233 -0.388055,0 -0.479777,0.02117 -0.08467,0.01411 -0.183445,0.08467 -0.09878,0.07055 -0.148166,0.211666 -0.119945,0.331611 -0.119945,0.938389 0,0.606778 0.07056,0.889 0.07055,0.275167 0.211666,0.381 0.148167,0.09878 0.430389,0.09878 0.564445,0 1.312334,-0.04939 l 0.246944,-0.02117 v 0.458611 q -0.493889,0.169334 -1.100667,0.197556 -0.733777,0.03528 -0.945444,-0.02117 -0.211667,-0.04939 -0.381,-0.169333 -0.162278,-0.127 -0.268111,-0.331611 -0.09878,-0.211667 -0.162278,-0.557389 z" />
        <path
           inkscape:connector-curvature="0"
           id="path6008"
           style="font-style:normal;font-variant:normal;font-weight:500;font-stretch:normal;font-family:Exo;-inkscape-font-specification:'Exo Medium';fill:#ffffff;fill-opacity:1;stroke-width:0.26458332px"
           d="m 48.69215,27.87033 q -0.0635,-0.345722 -0.0635,-0.818444 0,-0.472723 0.05644,-0.811389 0.0635,-0.345723 0.162277,-0.550334 0.105834,-0.211666 0.268111,-0.338666 0.282223,-0.204611 0.747889,-0.204611 0.423334,0 0.903111,0.07056 0.486834,0.0635 0.733778,0.127 v 0.437445 q -0.896055,-0.04233 -1.291166,-0.04233 -0.388056,0 -0.479778,0.02117 -0.08467,0.01411 -0.183445,0.08467 -0.09878,0.07055 -0.148166,0.211666 -0.119945,0.331611 -0.119945,0.938389 0,0.606778 0.07056,0.889 0.07055,0.275167 0.211666,0.381 0.148167,0.09878 0.430389,0.09878 0.564445,0 1.312334,-0.04939 l 0.246944,-0.02117 v 0.458611 q -0.493889,0.169334 -1.100667,0.197556 -0.733777,0.03528 -0.945444,-0.02117 -0.211667,-0.04939 -0.381,-0.169333 -0.162278,-0.127 -0.268111,-0.331611 -0.09878,-0.211667 -0.162278,-0.557389 z" />
        <path
           inkscape:connector-curvature="0"
           id="path6010"
           style="font-style:normal;font-variant:normal;font-weight:500;font-stretch:normal;font-family:Exo;-inkscape-font-specification:'Exo Medium';fill:#ffffff;fill-opacity:1;stroke-width:0.26458332px"
           d="m 52.004844,27.10833 q 0,-0.769056 0.162278,-1.192389 0.162278,-0.423333 0.515055,-0.592667 0.352778,-0.176388 0.987778,-0.176388 0.9525,0 1.305278,0.423333 0.359833,0.423333 0.359833,1.509889 0,1.0795 -0.359833,1.481666 -0.352778,0.402167 -1.298222,0.402167 -0.945445,0 -1.312334,-0.416278 -0.359833,-0.416278 -0.359833,-1.439333 z m 0.747889,-0.917222 q -0.05644,0.155222 -0.07761,0.381 -0.02117,0.218722 -0.02117,0.522111 0,0.303389 0.02117,0.515055 0.02822,0.211667 0.09172,0.352778 0.0635,0.134056 0.134056,0.218722 0.07761,0.07761 0.211666,0.119945 0.204611,0.07055 0.500945,0.07055 0.296333,-0.0071 0.437444,-0.02117 0.141111,-0.02117 0.275167,-0.08467 0.141111,-0.07056 0.211667,-0.211667 0.148166,-0.303388 0.148166,-0.945444 0,-0.649111 -0.07761,-0.853722 -0.07761,-0.211667 -0.148167,-0.296334 -0.0635,-0.09172 -0.1905,-0.141111 -0.197555,-0.07761 -0.500944,-0.07761 -0.303389,0 -0.430389,0.01411 -0.127,0.01411 -0.261055,0.0635 -0.127,0.04233 -0.197556,0.134056 -0.0635,0.08467 -0.127,0.239889 z" />
        <path
           inkscape:connector-curvature="0"
           id="path6012"
           style="font-style:normal;font-variant:normal;font-weight:500;font-stretch:normal;font-family:Exo;-inkscape-font-specification:'Exo Medium';fill:#ffffff;fill-opacity:1;stroke-width:0.26458332px"
           d="m 55.987375,27.757441 v -2.575278 h 0.649111 v 2.582334 q 0,0.3175 0.155222,0.472722 0.155222,0.155222 0.465667,0.155222 0.310444,0 0.550333,-0.07761 0.239889,-0.08467 0.656167,-0.303389 v -2.829278 h 0.649111 v 3.7465 H 58.626152 L 58.463875,28.50533 q -0.04233,0.02117 -0.169334,0.09878 -0.127,0.07761 -0.183444,0.105833 -0.04939,0.02117 -0.162278,0.08467 -0.112889,0.05644 -0.1905,0.08467 -0.07055,0.02117 -0.183444,0.05645 -0.1905,0.05644 -0.4445,0.05644 -0.557389,0 -0.853723,-0.352778 -0.289277,-0.359833 -0.289277,-0.881944 z" />
        <path
           inkscape:connector-curvature="0"
           id="path6014"
           style="font-style:normal;font-variant:normal;font-weight:500;font-stretch:normal;font-family:Exo;-inkscape-font-specification:'Exo Medium';fill:#ffffff;fill-opacity:1;stroke-width:0.26458332px"
           d="m 59.895601,28.928663 v -3.7465 h 0.486834 l 0.162277,0.430389 q 0.02117,-0.01411 0.112889,-0.07056 0.09878,-0.0635 0.127,-0.07761 0.02822,-0.01411 0.112889,-0.0635 0.09172,-0.05645 0.127,-0.07056 0.03528,-0.01411 0.119945,-0.05644 0.08467,-0.04233 0.134055,-0.05645 0.04939,-0.01411 0.127,-0.03528 0.08467,-0.02822 0.155222,-0.03528 0.183445,-0.02822 0.3175,-0.02822 0.550334,0 0.846667,0.359834 0.296333,0.352777 0.296333,0.867833 v 2.582333 H 62.372101 V 26.34633 q 0,-0.465667 -0.345722,-0.592667 -0.09878,-0.04233 -0.345722,-0.04233 -0.239889,0 -0.479778,0.08467 -0.239889,0.08467 -0.656167,0.296333 v 2.836333 z" />
        <path
           inkscape:connector-curvature="0"
           id="path6016"
           style="font-style:normal;font-variant:normal;font-weight:500;font-stretch:normal;font-family:Exo;-inkscape-font-specification:'Exo Medium';fill:#ffffff;fill-opacity:1;stroke-width:0.26458332px"
           d="m 64.729758,24.130886 v 1.044222 h 1.023056 v 0.585611 h -1.023056 v 1.785055 q 0,0.416278 0.09172,0.578556 0.09878,0.162278 0.289278,0.211667 0.536222,0.148166 0.585611,0.148166 v 0.437445 H 65.01198 q -0.931333,0 -0.931333,-1.3335 v -1.827389 h -0.670278 v -0.437445 l 0.670278,-0.148166 0.141111,-1.044222 z" />
        <path
           inkscape:connector-curvature="0"
           id="path6018"
           style="font-style:normal;font-variant:normal;font-weight:500;font-stretch:normal;font-family:Exo;-inkscape-font-specification:'Exo Medium';fill:#ffffff;fill-opacity:1;stroke-width:0.26458332px"
           d="m 66.330709,25.337386 q 0.719667,-0.225778 1.820333,-0.225778 0.691445,0 0.973667,0.465666 0.155222,0.261056 0.155222,0.656167 v 2.695222 H 68.786042 L 68.63082,28.491219 q -0.02117,0.02117 -0.232833,0.134055 -0.211667,0.105834 -0.5715,0.225778 -0.359834,0.119945 -0.635,0.119945 -0.437445,0 -0.712611,-0.261056 -0.268112,-0.261056 -0.268112,-0.691444 v -0.409223 q 0,-0.430388 0.254,-0.691444 0.261056,-0.268111 0.726723,-0.268111 0.719666,0 1.0795,0 0.359833,0 0.359833,0 0.0071,-0.204611 0.0071,-0.303389 0,-0.105833 -0.0071,-0.169333 0,-0.0635 -0.02822,-0.155223 -0.02117,-0.09172 -0.07056,-0.155222 -0.04233,-0.0635 -0.112889,-0.09878 -0.127,-0.07761 -0.345722,-0.07055 -0.578555,0 -1.742722,0.07761 z m 0.529167,2.617611 q 0,0.423333 0.402166,0.423333 0.232834,0 0.5715,-0.08467 0.345722,-0.09172 0.5715,-0.176389 l 0.225778,-0.08467 v -0.917222 l -1.382889,0.09878 q -0.388055,0.03528 -0.388055,0.437445 z" />
        <path
           inkscape:connector-curvature="0"
           id="path6020"
           style="font-style:normal;font-variant:normal;font-weight:500;font-stretch:normal;font-family:Exo;-inkscape-font-specification:'Exo Medium';fill:#ffffff;fill-opacity:1;stroke-width:0.26458332px"
           d="m 70.010401,28.928663 v -3.7465 h 0.486833 l 0.162278,0.430389 q 0.02117,-0.01411 0.112889,-0.07056 0.09878,-0.0635 0.127,-0.07761 0.02822,-0.01411 0.112889,-0.0635 0.09172,-0.05645 0.127,-0.07056 0.03528,-0.01411 0.119944,-0.05644 0.08467,-0.04233 0.134056,-0.05645 0.04939,-0.01411 0.127,-0.03528 0.08467,-0.02822 0.155222,-0.03528 0.183444,-0.02822 0.3175,-0.02822 0.550333,0 0.846666,0.359834 0.296334,0.352777 0.296334,0.867833 v 2.582333 H 72.486901 V 26.34633 q 0,-0.465667 -0.345722,-0.592667 -0.09878,-0.04233 -0.345723,-0.04233 -0.239889,0 -0.479777,0.08467 -0.239889,0.08467 -0.656167,0.296333 v 2.836333 z" />
        <path
           inkscape:connector-curvature="0"
           id="path6022"
           style="font-style:normal;font-variant:normal;font-weight:500;font-stretch:normal;font-family:Exo;-inkscape-font-specification:'Exo Medium';fill:#ffffff;fill-opacity:1;stroke-width:0.26458332px"
           d="m 74.844558,24.130886 v 1.044222 h 1.023055 v 0.585611 h -1.023055 v 1.785055 q 0,0.416278 0.09172,0.578556 0.09878,0.162278 0.289278,0.211667 0.536222,0.148166 0.585611,0.148166 v 0.437445 H 75.12678 q -0.931333,0 -0.931333,-1.3335 v -1.827389 h -0.670278 v -0.437445 l 0.670278,-0.148166 0.141111,-1.044222 z" />
        <path
           inkscape:connector-curvature="0"
           id="path6024"
           style="font-style:normal;font-variant:normal;font-weight:500;font-stretch:normal;font-family:Exo;-inkscape-font-specification:'Exo Medium';fill:#ffffff;fill-opacity:1;stroke-width:0.26458332px"
           d="m 77.320399,25.146886 q 0.550334,0 1.121833,0.04939 0.578556,0.04939 0.740834,0.08467 v 0.465667 h -1.799167 q -0.268111,0 -0.338666,0.08467 -0.07056,0.08467 -0.07056,0.282223 v 0.282222 q 0,0.254 0.119944,0.310444 0.09878,0.04939 0.289278,0.04939 h 1.051278 q 0.310444,0 0.529167,0.127 0.409222,0.232834 0.409222,0.804334 v 0.352777 q 0,0.924278 -0.917222,0.924278 -0.359834,0 -1.072445,-0.04939 -0.712611,-0.05644 -0.903111,-0.105833 v -0.451556 h 1.890889 q 0.352778,0 0.352778,-0.338666 v -0.296334 q 0,-0.232833 -0.134056,-0.310444 -0.08467,-0.04233 -0.218722,-0.04233 h -1.051278 q -0.515055,0 -0.754944,-0.204612 -0.239889,-0.211666 -0.239889,-0.740833 v -0.324555 q 0,-0.458612 0.225778,-0.705556 0.225777,-0.246944 0.769055,-0.246944 z" />
        <path
           inkscape:connector-curvature="0"
           id="path6026"
           style="font-style:normal;font-variant:normal;font-weight:500;font-stretch:normal;font-family:Exo;-inkscape-font-specification:'Exo Medium';fill:#ffffff;fill-opacity:1;stroke-width:0.26458332px"
           d="m 81.778514,25.337386 q 0.719667,-0.225778 1.820334,-0.225778 0.691444,0 0.973666,0.465666 0.155222,0.261056 0.155222,0.656167 v 2.695222 h -0.493888 l -0.155223,-0.437444 q -0.02117,0.02117 -0.232833,0.134055 -0.211667,0.105834 -0.5715,0.225778 -0.359833,0.119945 -0.635,0.119945 -0.437444,0 -0.712611,-0.261056 -0.268111,-0.261056 -0.268111,-0.691444 v -0.409223 q 0,-0.430388 0.254,-0.691444 0.261055,-0.268111 0.726722,-0.268111 0.719667,0 1.0795,0 0.359833,0 0.359833,0 0.0071,-0.204611 0.0071,-0.303389 0,-0.105833 -0.0071,-0.169333 0,-0.0635 -0.02822,-0.155223 -0.02117,-0.09172 -0.07055,-0.155222 -0.04233,-0.0635 -0.112889,-0.09878 -0.127,-0.07761 -0.345722,-0.07055 -0.578556,0 -1.742723,0.07761 z m 0.529167,2.617611 q 0,0.423333 0.402167,0.423333 0.232833,0 0.5715,-0.08467 0.345722,-0.09172 0.5715,-0.176389 l 0.225777,-0.08467 v -0.917222 l -1.382888,0.09878 q -0.388056,0.03528 -0.388056,0.437445 z" />
        <path
           inkscape:connector-curvature="0"
           id="path6028"
           style="font-style:normal;font-variant:normal;font-weight:500;font-stretch:normal;font-family:Exo;-inkscape-font-specification:'Exo Medium';fill:#ffffff;fill-opacity:1;stroke-width:0.26458332px"
           d="m 85.45821,28.928663 v -3.7465 h 0.486833 l 0.162278,0.430389 q 0.02117,-0.01411 0.112889,-0.07056 0.09878,-0.0635 0.127,-0.07761 0.02822,-0.01411 0.112889,-0.0635 0.09172,-0.05645 0.127,-0.07056 0.03528,-0.01411 0.119944,-0.05644 0.08467,-0.04233 0.134056,-0.05645 0.04939,-0.01411 0.127,-0.03528 0.08467,-0.02822 0.155222,-0.03528 0.183445,-0.02822 0.3175,-0.02822 0.550333,0 0.846667,0.359834 0.296333,0.352777 0.296333,0.867833 v 2.582333 H 87.93471 V 26.34633 q 0,-0.465667 -0.345722,-0.592667 -0.09878,-0.04233 -0.345722,-0.04233 -0.239889,0 -0.479778,0.08467 -0.239889,0.08467 -0.656167,0.296333 v 2.836333 z" />
        <path
           inkscape:connector-curvature="0"
           id="path6030"
           style="font-style:normal;font-variant:normal;font-weight:500;font-stretch:normal;font-family:Exo;-inkscape-font-specification:'Exo Medium';fill:#ffffff;fill-opacity:1;stroke-width:0.26458332px"
           d="m 89.170532,27.073052 q 0,-1.114778 0.338666,-1.559278 0.296334,-0.388055 0.889,-0.388055 0.366889,0 0.740834,0.09878 0.373944,0.09172 0.578555,0.176389 v -2.010834 h 0.642056 v 5.538611 h -0.493889 l -0.148167,-0.409222 q -0.183444,0.141111 -0.592666,0.296333 -0.409223,0.155223 -0.726723,0.155223 -1.227666,0 -1.227666,-1.897945 z m 0.649111,-0.0071 q 0,1.298222 0.649111,1.298222 0.578555,0 1.248833,-0.303389 v -2.173111 q -0.613833,-0.169333 -1.248833,-0.169333 -0.218722,0 -0.352778,0.09878 -0.296333,0.232834 -0.296333,1.248834 z" />
        <path
           inkscape:connector-curvature="0"
           id="path6032"
           style="font-style:normal;font-variant:normal;font-weight:500;font-stretch:normal;font-family:Exo;-inkscape-font-specification:'Exo Medium';fill:#ffffff;fill-opacity:1;stroke-width:0.26458332px"
           d="m 94.805715,24.391941 v -0.627944 h 3.647722 v 0.627944 h -1.516944 v 4.536722 h -0.649111 v -4.536722 z" />
        <path
           inkscape:connector-curvature="0"
           id="path6034"
           style="font-style:normal;font-variant:normal;font-weight:500;font-stretch:normal;font-family:Exo;-inkscape-font-specification:'Exo Medium';fill:#ffffff;fill-opacity:1;stroke-width:0.26458332px"
           d="m 98.163391,25.337386 q 0.719666,-0.225778 1.820333,-0.225778 0.691446,0 0.973666,0.465666 0.15522,0.261056 0.15522,0.656167 v 2.695222 h -0.49389 l -0.15522,-0.437444 q -0.0212,0.02117 -0.23283,0.134055 -0.21167,0.105834 -0.571502,0.225778 -0.359833,0.119945 -0.635,0.119945 -0.437444,0 -0.712611,-0.261056 -0.268111,-0.261056 -0.268111,-0.691444 v -0.409223 q 0,-0.430388 0.254,-0.691444 0.261056,-0.268111 0.726722,-0.268111 0.719667,0 1.079502,0 0.35983,0 0.35983,0 0.007,-0.204611 0.007,-0.303389 0,-0.105833 -0.007,-0.169333 0,-0.0635 -0.0282,-0.155223 -0.0212,-0.09172 -0.0706,-0.155222 -0.0423,-0.0635 -0.11289,-0.09878 -0.127,-0.07761 -0.345717,-0.07055 -0.578556,0 -1.742722,0.07761 z m 0.529166,2.617611 q 0,0.423333 0.402167,0.423333 0.232833,0 0.5715,-0.08467 0.345726,-0.09172 0.571496,-0.176389 l 0.22578,-0.08467 v -0.917222 l -1.382887,0.09878 q -0.388056,0.03528 -0.388056,0.437445 z" />
        <path
           inkscape:connector-curvature="0"
           id="path6036"
           style="font-style:normal;font-variant:normal;font-weight:500;font-stretch:normal;font-family:Exo;-inkscape-font-specification:'Exo Medium';fill:#ffffff;fill-opacity:1;stroke-width:0.26458332px"
           d="m 101.56185,28.928663 1.34056,-1.876777 -1.34056,-1.869723 h 0.79728 l 0.93133,1.354667 0.9525,-1.354667 h 0.79728 l -1.35466,1.890889 1.29822,1.855611 h -0.74084 l -0.93838,-1.340555 -0.93839,1.340555 z" />
        <path
           inkscape:connector-curvature="0"
           id="path6038"
           style="font-style:normal;font-variant:normal;font-weight:500;font-stretch:normal;font-family:Exo;-inkscape-font-specification:'Exo Medium';fill:#ffffff;fill-opacity:1;stroke-width:0.26458332px"
           d="m 107.31996,26.374552 q 0,-0.564444 0.0423,-0.9525 0.0494,-0.388055 0.16228,-0.719666 0.11994,-0.338667 0.31044,-0.550334 0.41628,-0.4445 1.22061,-0.4445 0.35278,0 0.85373,0.05645 0.508,0.05644 0.889,0.134055 v 0.515056 q 0,0 -0.0423,0 -0.0353,-0.0071 -0.0988,-0.0071 -0.0635,-0.0071 -0.15523,-0.01411 -0.0847,-0.0071 -0.1905,-0.0071 -0.10583,-0.0071 -0.22577,-0.01411 -0.11289,-0.0071 -0.23989,-0.01411 -0.127,-0.0071 -0.254,-0.01411 -0.26106,-0.0071 -0.53623,-0.0071 -0.26811,0 -0.47272,0.07761 -0.20461,0.07761 -0.35278,0.303389 -0.14111,0.218722 -0.20461,0.613833 -0.0564,0.388056 -0.0564,0.832556 0,0.437444 0.0141,0.656166 0.0212,0.218722 0.0564,0.430389 0.0423,0.204611 0.0988,0.373945 0.0564,0.162277 0.14817,0.303388 0.0917,0.134056 0.21167,0.225778 0.24694,0.1905 0.59972,0.1905 0.67733,0 1.44639,-0.03528 l 0.254,-0.01411 v 0.515056 q -0.35278,0.07055 -0.85373,0.119944 -0.49388,0.04233 -0.68438,0.04233 -0.1905,0 -0.20462,0 -0.95955,0 -1.36172,-0.740834 -0.37394,-0.691444 -0.37394,-1.855611 z" />
        <path
           inkscape:connector-curvature="0"
           id="path6040"
           style="font-style:normal;font-variant:normal;font-weight:500;font-stretch:normal;font-family:Exo;-inkscape-font-specification:'Exo Medium';fill:#ffffff;fill-opacity:1;stroke-width:0.26458332px"
           d="m 110.99866,27.10833 q 0,-0.769056 0.16228,-1.192389 0.16228,-0.423333 0.51505,-0.592667 0.35278,-0.176388 0.98778,-0.176388 0.9525,0 1.30528,0.423333 0.35983,0.423333 0.35983,1.509889 0,1.0795 -0.35983,1.481666 -0.35278,0.402167 -1.29822,0.402167 -0.94545,0 -1.31234,-0.416278 -0.35983,-0.416278 -0.35983,-1.439333 z m 0.74789,-0.917222 q -0.0564,0.155222 -0.0776,0.381 -0.0212,0.218722 -0.0212,0.522111 0,0.303389 0.0212,0.515055 0.0282,0.211667 0.0917,0.352778 0.0635,0.134056 0.13406,0.218722 0.0776,0.07761 0.21166,0.119945 0.20461,0.07055 0.50095,0.07055 0.29633,-0.0071 0.43744,-0.02117 0.14111,-0.02117 0.27517,-0.08467 0.14111,-0.07056 0.21166,-0.211667 0.14817,-0.303388 0.14817,-0.945444 0,-0.649111 -0.0776,-0.853722 -0.0776,-0.211667 -0.14817,-0.296334 -0.0635,-0.09172 -0.1905,-0.141111 -0.19755,-0.07761 -0.50094,-0.07761 -0.30339,0 -0.43039,0.01411 -0.127,0.01411 -0.26106,0.0635 -0.127,0.04233 -0.19755,0.134056 -0.0635,0.08467 -0.127,0.239889 z" />
        <path
           inkscape:connector-curvature="0"
           id="path6042"
           style="font-style:normal;font-variant:normal;font-weight:500;font-stretch:normal;font-family:Exo;-inkscape-font-specification:'Exo Medium';fill:#ffffff;fill-opacity:1;stroke-width:0.26458332px"
           d="m 115.04469,28.928663 v -3.7465 h 0.48683 l 0.16228,0.430389 q 0.0212,-0.01411 0.11289,-0.07056 0.0988,-0.0635 0.127,-0.07761 0.0282,-0.01411 0.11289,-0.0635 0.0917,-0.05645 0.127,-0.07056 0.0353,-0.01411 0.11994,-0.05644 0.0847,-0.04233 0.13406,-0.05645 0.0494,-0.01411 0.127,-0.03528 0.0847,-0.02822 0.15522,-0.03528 0.18344,-0.02822 0.3175,-0.02822 0.55033,0 0.84667,0.359834 0.29633,0.352777 0.29633,0.867833 v 2.582333 h -0.64911 V 26.34633 q 0,-0.465667 -0.34572,-0.592667 -0.0988,-0.04233 -0.34573,-0.04233 -0.23988,0 -0.47977,0.08467 -0.23989,0.08467 -0.65617,0.296333 v 2.836333 z" />
        <path
           inkscape:connector-curvature="0"
           id="path6044"
           style="font-style:normal;font-variant:normal;font-weight:500;font-stretch:normal;font-family:Exo;-inkscape-font-specification:'Exo Medium';fill:#ffffff;fill-opacity:1;stroke-width:0.26458332px"
           d="m 119.68129,25.146886 q 0.55034,0 1.12184,0.04939 0.57855,0.04939 0.74083,0.08467 v 0.465667 h -1.79917 q -0.26811,0 -0.33866,0.08467 -0.0706,0.08467 -0.0706,0.282223 v 0.282222 q 0,0.254 0.11994,0.310444 0.0988,0.04939 0.28928,0.04939 h 1.05128 q 0.31044,0 0.52917,0.127 0.40922,0.232834 0.40922,0.804334 v 0.352777 q 0,0.924278 -0.91722,0.924278 -0.35984,0 -1.07245,-0.04939 -0.71261,-0.05644 -0.90311,-0.105833 v -0.451556 h 1.89089 q 0.35278,0 0.35278,-0.338666 v -0.296334 q 0,-0.232833 -0.13406,-0.310444 -0.0847,-0.04233 -0.21872,-0.04233 h -1.05128 q -0.51505,0 -0.75494,-0.204612 -0.23989,-0.211666 -0.23989,-0.740833 v -0.324555 q 0,-0.458612 0.22578,-0.705556 0.22577,-0.246944 0.76905,-0.246944 z" />
        <path
           inkscape:connector-curvature="0"
           id="path6046"
           style="font-style:normal;font-variant:normal;font-weight:500;font-stretch:normal;font-family:Exo;-inkscape-font-specification:'Exo Medium';fill:#ffffff;fill-opacity:1;stroke-width:0.26458332px"
           d="m 122.32613,27.757441 v -2.575278 h 0.64911 v 2.582334 q 0,0.3175 0.15522,0.472722 0.15522,0.155222 0.46567,0.155222 0.31044,0 0.55033,-0.07761 0.23989,-0.08467 0.65617,-0.303389 v -2.829278 h 0.64911 v 3.7465 h -0.48683 l -0.16228,-0.423333 q -0.0423,0.02117 -0.16933,0.09878 -0.127,0.07761 -0.18345,0.105833 -0.0494,0.02117 -0.16228,0.08467 -0.11289,0.05644 -0.1905,0.08467 -0.0705,0.02117 -0.18344,0.05645 -0.1905,0.05644 -0.4445,0.05644 -0.55739,0 -0.85372,-0.352778 -0.28928,-0.359833 -0.28928,-0.881944 z" />
        <path
           inkscape:connector-curvature="0"
           id="path6048"
           style="font-style:normal;font-variant:normal;font-weight:500;font-stretch:normal;font-family:Exo;-inkscape-font-specification:'Exo Medium';fill:#ffffff;fill-opacity:1;stroke-width:0.26458332px"
           d="m 126.23436,27.595163 v -4.191 h 0.64911 v 4.148667 q 0,0.416278 0.0917,0.578555 0.0988,0.162278 0.28928,0.211667 0.53622,0.148167 0.58561,0.148167 v 0.437444 h -0.67028 q -0.94544,0 -0.94544,-1.3335 z" />
        <path
           inkscape:connector-curvature="0"
           id="path6050"
           style="font-style:normal;font-variant:normal;font-weight:500;font-stretch:normal;font-family:Exo;-inkscape-font-specification:'Exo Medium';fill:#ffffff;fill-opacity:1;stroke-width:0.26458332px"
           d="m 129.15304,24.130886 v 1.044222 h 1.02306 v 0.585611 h -1.02306 v 1.785055 q 0,0.416278 0.0917,0.578556 0.0988,0.162278 0.28928,0.211667 0.53622,0.148166 0.58561,0.148166 v 0.437445 h -0.68439 q -0.93133,0 -0.93133,-1.3335 v -1.827389 h -0.67028 v -0.437445 l 0.67028,-0.148166 0.14111,-1.044222 z" />
        <path
           inkscape:connector-curvature="0"
           id="path6052"
           style="font-style:normal;font-variant:normal;font-weight:500;font-stretch:normal;font-family:Exo;-inkscape-font-specification:'Exo Medium';fill:#ffffff;fill-opacity:1;stroke-width:0.26458332px"
           d="m 130.75399,25.337386 q 0.71967,-0.225778 1.82033,-0.225778 0.69145,0 0.97367,0.465666 0.15522,0.261056 0.15522,0.656167 v 2.695222 h -0.49389 l -0.15522,-0.437444 q -0.0212,0.02117 -0.23283,0.134055 -0.21167,0.105834 -0.5715,0.225778 -0.35984,0.119945 -0.635,0.119945 -0.43745,0 -0.71261,-0.261056 -0.26811,-0.261056 -0.26811,-0.691444 v -0.409223 q 0,-0.430388 0.254,-0.691444 0.26105,-0.268111 0.72672,-0.268111 0.71966,0 1.0795,0 0.35983,0 0.35983,0 0.007,-0.204611 0.007,-0.303389 0,-0.105833 -0.007,-0.169333 0,-0.0635 -0.0282,-0.155223 -0.0212,-0.09172 -0.0706,-0.155222 -0.0423,-0.0635 -0.11289,-0.09878 -0.127,-0.07761 -0.34572,-0.07055 -0.57855,0 -1.74272,0.07761 z m 0.52917,2.617611 q 0,0.423333 0.40216,0.423333 0.23284,0 0.5715,-0.08467 0.34573,-0.09172 0.5715,-0.176389 l 0.22578,-0.08467 v -0.917222 l -1.38289,0.09878 q -0.38805,0.03528 -0.38805,0.437445 z" />
        <path
           inkscape:connector-curvature="0"
           id="path6054"
           style="font-style:normal;font-variant:normal;font-weight:500;font-stretch:normal;font-family:Exo;-inkscape-font-specification:'Exo Medium';fill:#ffffff;fill-opacity:1;stroke-width:0.26458332px"
           d="m 134.43368,28.928663 v -3.7465 h 0.48683 l 0.16228,0.430389 q 0.0212,-0.01411 0.11289,-0.07056 0.0988,-0.0635 0.127,-0.07761 0.0282,-0.01411 0.11289,-0.0635 0.0917,-0.05645 0.127,-0.07056 0.0353,-0.01411 0.11994,-0.05644 0.0847,-0.04233 0.13406,-0.05645 0.0494,-0.01411 0.127,-0.03528 0.0847,-0.02822 0.15522,-0.03528 0.18345,-0.02822 0.3175,-0.02822 0.55034,0 0.84667,0.359834 0.29633,0.352777 0.29633,0.867833 v 2.582333 h -0.64911 V 26.34633 q 0,-0.465667 -0.34572,-0.592667 -0.0988,-0.04233 -0.34572,-0.04233 -0.23989,0 -0.47978,0.08467 -0.23989,0.08467 -0.65617,0.296333 v 2.836333 z" />
        <path
           inkscape:connector-curvature="0"
           id="path6056"
           style="font-style:normal;font-variant:normal;font-weight:500;font-stretch:normal;font-family:Exo;-inkscape-font-specification:'Exo Medium';fill:#ffffff;fill-opacity:1;stroke-width:0.26458332px"
           d="m 139.26784,24.130886 v 1.044222 h 1.02306 v 0.585611 h -1.02306 v 1.785055 q 0,0.416278 0.0917,0.578556 0.0988,0.162278 0.28928,0.211667 0.53622,0.148166 0.58561,0.148166 v 0.437445 h -0.68439 q -0.93133,0 -0.93133,-1.3335 v -1.827389 h -0.67028 v -0.437445 l 0.67028,-0.148166 0.14111,-1.044222 z" />
        <path
           inkscape:connector-curvature="0"
           id="path6058"
           style="font-style:normal;font-variant:normal;font-weight:500;font-stretch:normal;font-family:Exo;-inkscape-font-specification:'Exo Medium';fill:#ffffff;fill-opacity:1;stroke-width:0.26458332px"
           d="m 141.74368,25.146886 q 0.55033,0 1.12183,0.04939 0.57856,0.04939 0.74083,0.08467 v 0.465667 h -1.79916 q -0.26811,0 -0.33867,0.08467 -0.0705,0.08467 -0.0705,0.282223 v 0.282222 q 0,0.254 0.11994,0.310444 0.0988,0.04939 0.28928,0.04939 h 1.05128 q 0.31044,0 0.52916,0.127 0.40922,0.232834 0.40922,0.804334 v 0.352777 q 0,0.924278 -0.91722,0.924278 -0.35983,0 -1.07244,-0.04939 -0.71261,-0.05644 -0.90311,-0.105833 v -0.451556 h 1.89089 q 0.35277,0 0.35277,-0.338666 v -0.296334 q 0,-0.232833 -0.13405,-0.310444 -0.0847,-0.04233 -0.21872,-0.04233 h -1.05128 q -0.51506,0 -0.75495,-0.204612 -0.23989,-0.211666 -0.23989,-0.740833 v -0.324555 q 0,-0.458612 0.22578,-0.705556 0.22578,-0.246944 0.76906,-0.246944 z" />
      </g>
    </g>
  </g>
</svg>
