<?xml version="1.0" encoding="UTF-8" standalone="no"?>
<!-- Created with Inkscape (http://www.inkscape.org/) -->

<svg
   width="402.79999mm"
   height="73.242996mm"
   viewBox="0 0 402.79999 73.242996"
   version="1.1"
   id="svg8"
   inkscape:version="1.1 (c68e22c387, 2021-05-23)"
   sodipodi:docname="aaziz-dark.svg"
   xmlns:inkscape="http://www.inkscape.org/namespaces/inkscape"
   xmlns:sodipodi="http://sodipodi.sourceforge.net/DTD/sodipodi-0.dtd"
   xmlns:xlink="http://www.w3.org/1999/xlink"
   xmlns="http://www.w3.org/2000/svg"
   xmlns:svg="http://www.w3.org/2000/svg"
   xmlns:rdf="http://www.w3.org/1999/02/22-rdf-syntax-ns#"
   xmlns:cc="http://creativecommons.org/ns#"
   xmlns:dc="http://purl.org/dc/elements/1.1/">
  <defs
     id="defs2">
    <linearGradient
       id="linearGradient1045">
      <stop
         id="stop1041"
         style="stop-color:#ffffff;stop-opacity:1"
         offset="0" />
      <stop
         id="stop1043"
         style="stop-color:#e6e6e6;stop-opacity:1"
         offset="1" />
    </linearGradient>
    <radialGradient
       id="rgrd_dropShadow"
       cx="57.606583"
       cy="268.02493"
       r="77.76889"
       gradientTransform="scale(1.3887302,0.72008228)"
       fx="57.606583"
       fy="268.02493"
       gradientUnits="userSpaceOnUse">
      <stop
         id="rgrd_dropShadow_st0"
         style="stop-color:#000000;stop-opacity:0.75"
         offset="0" />
      <stop
         id="rgrd_dropShadow_st1"
         style="stop-color:#000000;stop-opacity:0"
         offset="1" />
    </radialGradient>
    <filter
       x="-0.1"
       width="1.2"
       y="-0.2"
       height="1.4"
       id="filt_blurDropShadow">
      <feGaussianBlur
         stdDeviation="4.14"
         id="fegb_blurDropShadow" />
    </filter>
    <linearGradient
       inkscape:collect="always"
       xlink:href="#lgrd_redVelvet"
       id="linearGradient5963"
       gradientTransform="scale(0.68599434,1.457738)"
       x1="0"
       y1="0"
       x2="116.61904"
       y2="0"
       gradientUnits="userSpaceOnUse" />
    <linearGradient
       id="lgrd_redVelvet">
      <stop
         offset="0"
         style="stop-color:#ffffff;stop-opacity:1"
         id="lgrd_redVelvet_st0" />
      <stop
         offset="1"
         style="stop-color:#e6e6e6;stop-opacity:1"
         id="lgrd_redVelvet_st1" />
    </linearGradient>
    <radialGradient
       id="rgrd_blueMarble"
       cx="80"
       cy="80"
       r="95"
       fx="80"
       fy="80"
       gradientUnits="userSpaceOnUse"
       gradientTransform="matrix(0.4069068,0,0,0.4069068,-407.77475,106.92098)">
      <stop
         offset="0"
         style="stop-color:#1cd7fb;stop-opacity:1"
         id="rgrd_blueMarble_st0" />
      <stop
         offset="0.45"
         style="stop-color:#1eadeb;stop-opacity:1"
         id="rgrd_blueMarble_st1" />
      <stop
         offset="0.60"
         style="stop-color:#0e8adc;stop-opacity:1"
         id="rgrd_blueMarble_st2" />
      <stop
         offset="0.77"
         style="stop-color:#065297;stop-opacity:1"
         id="rgrd_blueMarble_st3" />
      <stop
         offset="0.90"
         style="stop-color:#044374;stop-opacity:1"
         id="rgrd_blueMarble_st4" />
      <stop
         offset="1"
         style="stop-color:#043f74;stop-opacity:0"
         id="rgrd_blueMarble_st5" />
    </radialGradient>
    <radialGradient
       id="rgrd_deepBlueCoasts"
       cx="79.174591"
       cy="131.13831"
       r="96.762466"
       gradientTransform="matrix(0.41266099,0,0,0.40123284,-520.97862,117.31533)"
       fx="79.174591"
       fy="131.13831"
       gradientUnits="userSpaceOnUse">
      <stop
         id="rgrd_deepBlueCoasts_st0"
         style="stop-color:#0f75d2;stop-opacity:0.85"
         offset="0" />
      <stop
         id="rgrd_deepBlueCoasts_st1"
         style="stop-color:#032b51;stop-opacity:1"
         offset="1" />
    </radialGradient>
    <radialGradient
       id="rgrd_coolBlueTerra"
       cx="78.888542"
       cy="130.47983"
       r="98.141899"
       gradientTransform="matrix(0.41246482,0,0,0.40142366,-467.87297,74.415032)"
       fx="78.888542"
       fy="130.47983"
       gradientUnits="userSpaceOnUse">
      <stop
         offset="0"
         style="stop-color:#f7f7f7;stop-opacity:1"
         id="rgrd_coolBlueTerra_st0" />
      <stop
         style="stop-color:#9ed4e2;stop-opacity:1"
         offset="0.65"
         id="rgrd_coolBlueTerra_st1" />
      <stop
         offset="1"
         style="stop-color:#3aa5ca;stop-opacity:1"
         id="rgrd_coolBlueTerra_st2" />
    </radialGradient>
    <filter
       height="1.2"
       y="-0.1"
       width="1.33"
       x="-0.17"
       id="filt_blurShadow">
      <feGaussianBlur
         id="fegb_blurShadow"
         stdDeviation="3.23" />
    </filter>
    <linearGradient
       inkscape:collect="always"
       xlink:href="#linearGradient1045"
       id="linearGradient5965"
       gradientTransform="scale(0.68599434,1.457738)"
       x1="116.61904"
       y1="0"
       x2="233.23808"
       y2="0"
       gradientUnits="userSpaceOnUse" />
  </defs>
  <sodipodi:namedview
     id="base"
     pagecolor="#ffffff"
     bordercolor="#666666"
     borderopacity="1.0"
     inkscape:pageopacity="0.0"
     inkscape:pageshadow="2"
     inkscape:zoom="0.7"
     inkscape:cx="780.71429"
     inkscape:cy="-92.142857"
     inkscape:document-units="mm"
     inkscape:current-layer="layer1"
     showgrid="false"
     inkscape:window-width="1920"
     inkscape:window-height="991"
     inkscape:window-x="-9"
     inkscape:window-y="-9"
     inkscape:window-maximized="1"
     inkscape:pagecheckerboard="1" />
  <metadata
     id="metadata5">
    <rdf:RDF>
      <cc:Work
         rdf:about="">
        <dc:format>image/svg+xml</dc:format>
        <dc:type
           rdf:resource="http://purl.org/dc/dcmitype/StillImage" />
      </cc:Work>
    </rdf:RDF>
  </metadata>
  <g
     inkscape:label="Layer 1"
     inkscape:groupmode="layer"
     id="layer1"
     transform="translate(0,-223.757)">
    <polygon
       transform="matrix(0.4069068,0,0,0.4069068,2.4e-4,223.75696)"
       style="fill:url(#linearGradient5963)"
       points="80,80 0,170 80,0 "
       id="pg_arrowLeft" />
    <path
       id="el_globeDropBg_Prim"
       d="m 32.55278,256.30949 a 20.34534,20.34534 0 0 0 -20.345506,20.34552 20.34534,20.34534 0 0 0 20.345506,20.34502 20.34534,20.34534 0 0 0 20.053061,-17.05271 c -0.01508,0.0413 -0.03569,0.17726 -0.04651,0.18087 -0.03979,0.0132 -0.07236,0.0667 -0.07236,0.11937 0,0.0526 -0.03048,0.0961 -0.06768,0.0961 -0.0371,0 -0.06718,-0.0462 -0.06718,-0.10232 0,-0.12779 -0.279188,-0.7339 -0.351922,-0.76429 -0.04429,-0.0186 -0.05937,-0.0585 -0.04908,-0.10439 0.01032,-0.0459 0.04596,-0.0982 0.103849,-0.14056 0.04821,-0.0352 0.07038,-0.0582 0.06099,-0.0853 -0.0093,-0.0271 -0.05048,-0.0578 -0.128667,-0.10903 -0.112025,-0.0734 -0.168963,-0.16796 -0.170551,-0.26976 -0.0026,-0.10179 0.05241,-0.21112 0.161767,-0.31367 0.06985,-0.0656 0.11602,-0.10097 0.155548,-0.11111 0.03953,-0.0101 0.07234,0.005 0.116258,0.0414 0.05771,0.0479 0.123931,0.0684 0.147294,0.0449 0.06858,-0.0686 -0.187722,-0.92242 -0.276993,-0.92242 -0.04659,0 -0.131815,-0.22441 -0.198437,-0.52348 -0.201507,-0.90415 -0.258392,-1.12 -0.404627,-1.53634 l -0.142108,-0.40515 -0.06924,0.36587 c -0.03307,0.17391 -0.0853,0.30577 -0.135916,0.36949 -0.05064,0.0637 -0.100065,0.0597 -0.128164,-0.0372 -0.01429,-0.0495 -0.06096,-0.21938 -0.103876,-0.37724 -0.04289,-0.15785 -0.103346,-0.2868 -0.134355,-0.2868 -0.03098,0 -0.172694,-0.10668 -0.314695,-0.23668 -0.142029,-0.13 -0.274982,-0.23567 -0.295593,-0.23513 -0.0708,0.002 -0.476462,0.95973 -0.476462,1.125 0,0.0909 -0.04246,0.30803 -0.09406,0.48214 -0.11221,0.37859 -0.256487,1.1986 -0.249581,1.41955 0.0029,0.0869 -0.06789,0.3108 -0.15711,0.49713 -0.07504,0.1567 -0.113638,0.24543 -0.122476,0.32195 -0.0087,0.0765 0.01217,0.14082 0.05686,0.24753 0.053,0.12686 0.09917,0.37423 0.102817,0.54983 0.004,0.19093 0.02995,0.37536 0.06927,0.5209 0.03929,0.14554 0.09229,0.25206 0.149331,0.28732 0.08454,0.0522 0.179335,0.17314 0.253206,0.30593 0.0739,0.13279 0.12663,0.27757 0.12663,0.37723 0,0.12842 -0.03032,0.26103 -0.07752,0.36794 -0.04723,0.1069 -0.111046,0.18827 -0.179308,0.21446 -0.06885,0.0264 -0.120147,0.01 -0.160734,-0.0625 -0.04059,-0.0722 -0.07049,-0.20014 -0.09716,-0.39636 -0.02434,-0.17906 -0.05818,-0.26522 -0.101283,-0.2589 -0.04307,0.006 -0.09559,0.10539 -0.157612,0.29714 -0.05419,0.16762 -0.109855,0.21911 -0.234606,0.21911 -0.06485,0 -0.115411,-0.019 -0.16899,-0.0749 -0.05355,-0.056 -0.109802,-0.14865 -0.186028,-0.29611 -0.105569,-0.20427 -0.222647,-0.38175 -0.259927,-0.39429 -0.03731,-0.0125 -0.142266,-0.17979 -0.233574,-0.37155 -0.09131,-0.19174 -0.239183,-0.42689 -0.328665,-0.52245 -0.08951,-0.0956 -0.183621,-0.24004 -0.209286,-0.32091 -0.02566,-0.0808 -0.07869,-0.14676 -0.117316,-0.14676 -0.0386,0 -0.05379,-0.0422 -0.03411,-0.0935 0.01958,-0.0513 -0.03805,-0.20139 -0.128164,-0.33383 -0.09009,-0.13242 -0.163804,-0.27094 -0.163804,-0.30799 0,-0.0383 -0.109431,-0.0541 -0.254238,-0.0367 -0.171582,0.0207 -0.341947,-0.014 -0.521414,-0.10542 -0.146526,-0.0746 -0.305594,-0.13539 -0.353483,-0.13539 -0.04789,0 -0.08681,-0.0434 -0.08681,-0.0961 0,-0.0528 -0.09324,-0.11606 -0.207222,-0.14108 -0.114009,-0.025 -0.223996,-0.0894 -0.244422,-0.14262 -0.02037,-0.0532 -0.09824,-0.12918 -0.172614,-0.16898 -0.106045,-0.0567 -0.173831,-0.0446 -0.313161,0.0563 -0.09768,0.0707 -0.283845,0.17147 -0.413914,0.22376 -0.130069,0.0523 -0.295831,0.14959 -0.368459,0.21653 -0.07271,0.0669 -0.164227,0.11037 -0.203094,0.0966 -0.03879,-0.0137 -0.207433,0.0161 -0.37465,0.0661 -0.189151,0.0565 -0.378751,0.0858 -0.534326,0.0879 -0.155601,0.002 -0.27686,-0.0237 -0.330226,-0.077 -0.05927,-0.0592 -0.08633,-0.033 -0.08268,0.0382 0.0037,0.0712 0.03784,0.18735 0.100251,0.30799 0.05702,0.11015 0.120227,0.18279 0.196374,0.22118 0.07615,0.0384 0.16502,0.0425 0.272864,0.0155 0.09358,-0.0235 0.250243,0.0195 0.406691,0.11162 0.118613,0.07 0.181081,0.11147 0.209286,0.16382 0.02818,0.0523 0.02196,0.11551 0.0026,0.22892 -0.02328,0.13361 -0.06014,0.35731 -0.08112,0.49661 -0.02328,0.15332 -0.07527,0.25322 -0.132291,0.25322 -0.0639,0 -0.09406,0.0816 -0.09406,0.25373 0,0.18074 -0.03916,0.27793 -0.135387,0.33796 -0.0743,0.0464 -0.134884,0.14789 -0.134884,0.22531 0,0.0852 -0.05522,0.15535 -0.139013,0.17725 -0.08358,0.0219 -0.153458,0.11062 -0.176212,0.22428 -0.02355,0.1174 -0.09226,0.20229 -0.182404,0.22531 -0.112553,0.0288 -0.272388,0.13705 -0.40722,0.2589 -0.134832,0.12184 -0.244422,0.25735 -0.256328,0.34106 -0.01323,0.0935 -0.149543,0.2348 -0.359146,0.37207 -0.185817,0.12169 -0.409998,0.28736 -0.497628,0.36846 -0.202353,0.18714 -0.828437,0.59221 -0.915723,0.59221 -0.03641,0 -0.148034,0.0785 -0.24855,0.17466 -0.11168,0.10696 -0.268948,0.17953 -0.404124,0.18604 -0.09919,0.005 -0.158724,-2.7e-4 -0.210317,-0.0408 -0.05159,-0.0405 -0.09525,-0.11639 -0.163804,-0.2527 -0.191399,-0.38032 -0.240506,-0.52298 -0.264081,-0.77049 -0.0045,-0.0476 -0.09575,-0.12294 -0.125042,-0.17673 0.0026,0.0366 -0.01879,0.0703 -0.0703,0.0703 -0.05879,0 -0.106971,-0.0482 -0.106971,-0.10697 0,-0.0596 0.03646,-0.0845 0.07805,-0.0786 0.0209,0.003 0.03522,0.0349 0.05477,0.0527 -0.05858,-0.0861 -0.06477,-0.15345 -0.189653,-0.26717 -0.187246,-0.17049 -0.357849,-0.37307 -0.379307,-0.4501 -0.02143,-0.0771 -0.137504,-0.18325 -0.257863,-0.23616 -0.08498,-0.0374 -0.144621,-0.0784 -0.192246,-0.13953 -0.0476,-0.0612 -0.08289,-0.14293 -0.118851,-0.26096 -0.07768,-0.25494 -0.150918,-0.44044 -0.225821,-0.56793 -0.0749,-0.12749 -0.151607,-0.19688 -0.236168,-0.21807 -0.08789,-0.0221 -0.205052,-0.12755 -0.260455,-0.23461 -0.05538,-0.10708 -0.126974,-0.19482 -0.159147,-0.19482 -0.0322,0 -0.07774,-0.0684 -0.10078,-0.15193 -0.0358,-0.12966 -0.153194,-0.2973 -0.278024,-0.42633 -0.124831,-0.12904 -0.257069,-0.21938 -0.322448,-0.19431 -0.0635,0.0244 -0.115252,0.0908 -0.115252,0.14728 0,0.12978 0.35044,0.74509 0.539511,0.94723 0.07861,0.0841 0.126021,0.18013 0.10541,0.21342 -0.0499,0.0807 0.02789,0.27492 0.110094,0.27492 0.09504,0 0.203887,0.10332 0.296597,0.26045 0.09274,0.15713 0.169651,0.36844 0.202063,0.58446 0.01799,0.11992 0.03977,0.20227 0.07649,0.26614 0.03672,0.0639 0.08816,0.10893 0.165364,0.15451 0.107977,0.0638 0.262335,0.25323 0.342609,0.42116 0.0803,0.16795 0.178356,0.32773 0.21807,0.35502 0.04882,0.0335 0.04527,0.0499 -0.01032,0.0506 -0.04532,5.3e-4 -0.06482,0.0466 -0.04342,0.10232 0.02567,0.0667 0.06572,0.0992 0.09922,0.0982 0.0335,-10e-4 0.06046,-0.0353 0.06046,-0.10283 0,-0.0713 0.04971,-0.0992 0.151924,-0.0847 0.0998,0.0142 0.15195,0.068 0.15195,0.15658 0,0.0837 0.109088,0.20808 0.286279,0.32659 0.213889,0.14308 0.380365,0.27551 0.499719,0.39791 0.119327,0.12241 0.191373,0.23486 0.217037,0.33745 0.03739,0.14954 0.104696,0.23825 0.208757,0.26872 0.10406,0.0305 0.244951,0.003 0.430477,-0.0817 0.174545,-0.0793 0.362823,-0.17246 0.418571,-0.20722 0.05569,-0.0348 0.147346,-0.0816 0.203094,-0.10387 0.438917,-0.17519 0.853651,-0.39296 0.898657,-0.47181 0.02969,-0.0521 0.11303,-0.0946 0.185499,-0.0946 0.09933,0 0.131789,0.0467 0.131789,0.18914 0,0.10397 0.03826,0.22753 0.08475,0.2744 0.0676,0.0683 0.06149,0.0982 -0.03101,0.15038 -0.0635,0.0358 -0.09927,0.10701 -0.07959,0.15813 0.01958,0.0511 -0.03096,0.22289 -0.112131,0.38189 -0.0811,0.15895 -0.22053,0.48361 -0.310065,0.7214 -0.127318,0.33804 -0.272838,0.61893 -0.497126,0.92553 -0.22426,0.30659 -0.527208,0.63881 -0.969962,1.08003 -0.612431,0.61036 -1.080135,1.10871 -1.368399,1.4547 -0.144118,0.17299 -0.243178,0.30786 -0.293502,0.39946 -0.05035,0.0916 -0.05199,0.14004 0,0.14004 0.05276,0 0.07096,0.0647 0.06199,0.13229 -0.009,0.0676 -0.04485,0.13812 -0.09922,0.14986 -0.08808,0.019 -0.08898,0.0452 -0.0061,0.20464 0.05424,0.10384 0.0803,0.18695 0.07752,0.26251 -0.0026,0.0756 -0.03434,0.14339 -0.09509,0.21653 -0.05667,0.0683 -0.06503,0.17588 -0.03876,0.27182 0.02619,0.0959 0.08726,0.18035 0.16846,0.20154 0.058,0.0152 0.09009,0.0386 0.106469,0.12557 0.0164,0.087 0.01693,0.23731 0.01243,0.50539 l -0.01032,0.59738 -0.278527,0.27027 c -0.157559,0.15291 -0.429604,0.32376 -0.627353,0.39378 -0.192088,0.0679 -0.387033,0.16879 -0.43307,0.22427 -0.04598,0.0554 -0.201004,0.1608 -0.344673,0.2341 -0.144118,0.0735 -0.238204,0.14477 -0.282152,0.21445 -0.04395,0.0697 -0.03802,0.13771 0.01746,0.20464 0.04289,0.0517 0.04979,0.1906 0.03204,0.32763 -0.01773,0.13703 -0.05998,0.27225 -0.115226,0.31574 -0.04172,0.0328 -0.231643,0.11024 -0.421693,0.17209 -0.144992,0.0473 -0.23585,0.0854 -0.302816,0.13901 -0.06697,0.0536 -0.110013,0.12268 -0.158644,0.23047 -0.05808,0.12873 -0.0925,0.19709 -0.229446,0.29508 -0.136975,0.098 -0.376476,0.22546 -0.84336,0.47232 -0.286041,0.15126 -0.523134,0.24522 -0.833543,0.30541 -0.310436,0.0602 -0.693764,0.0868 -1.272805,0.10335 -0.594598,0.0169 -1.164907,0.0171 -1.267089,5.3e-4 v 0.002 c -0.102182,-0.0163 -0.190183,-0.0656 -0.195845,-0.10955 -0.0061,-0.0439 -0.01376,-0.11163 -0.01799,-0.15038 -0.01032,-0.0942 -0.484796,-0.50978 -0.796316,-0.69763 -0.156025,-0.0941 -0.28239,-0.23848 -0.334883,-0.38344 -0.0463,-0.12807 -0.108268,-0.23306 -0.137954,-0.23306 -0.02971,0 -0.05376,-0.0437 -0.05376,-0.0971 0,-0.0537 -0.06427,-0.14255 -0.142611,-0.19741 -0.0784,-0.0549 -0.122264,-0.13188 -0.09768,-0.17156 0.02741,-0.0443 0.0037,-0.0567 -0.06046,-0.032 -0.07699,0.0295 -0.104907,-0.003 -0.104907,-0.12351 0,-0.10303 -0.115941,-0.28525 -0.3116,-0.48937 -0.16092,-0.16784 -0.276172,-0.35434 -0.332793,-0.52194 -0.05665,-0.1676 -0.05485,-0.31624 0.01799,-0.40876 0.03691,-0.0468 0.08689,-0.16838 0.111125,-0.26975 0.02408,-0.10145 0.135017,-0.2513 0.245983,-0.33331 0.119856,-0.0886 0.181319,-0.1493 0.189627,-0.22738 0.0085,-0.0781 -0.03667,-0.1733 -0.130202,-0.33176 -0.07821,-0.13241 -0.124301,-0.28757 -0.102341,-0.34468 0.02196,-0.0572 -0.08496,-0.36161 -0.23823,-0.67645 -0.20754,-0.42643 -0.375709,-0.66092 -0.658337,-0.9188 -0.170921,-0.156 -0.34163,-0.35129 -0.469741,-0.52762 -0.128111,-0.17633 -0.213439,-0.33366 -0.213439,-0.41289 0,-0.0333 0.04553,-0.0605 0.101309,-0.0605 0.0689,0 0.101891,-0.0705 0.103346,-0.21963 0,-0.12075 0.04725,-0.27831 0.101785,-0.35037 0.08826,-0.11658 0.106363,-0.29478 0.07908,-0.42064 -0.01376,-0.0629 -0.0391,-0.11296 -0.07236,-0.13539 -0.03323,-0.0224 -0.07427,-0.0177 -0.120914,0.0289 -0.04609,0.0462 -0.123772,0.0842 -0.172085,0.0842 -0.06231,0 -0.08959,-0.0496 -0.08527,-0.10542 0.0042,-0.0558 0.04016,-0.11802 0.104404,-0.14263 0.04895,-0.0188 0.07072,-0.0377 0.06871,-0.0558 -0.0026,-0.0181 -0.02773,-0.0353 -0.07284,-0.0501 -0.09028,-0.0297 -0.258816,-0.0501 -0.474398,-0.0512 -0.222991,-10e-4 -0.439526,-0.0244 -0.481118,-0.0517 -0.04159,-0.0273 -0.155152,-0.20775 -0.252704,-0.40101 -0.07715,-0.15293 -0.129778,-0.24234 -0.190685,-0.29869 -0.06088,-0.0564 -0.129831,-0.08 -0.240295,-0.10077 -0.339963,-0.0639 -0.757687,-0.0629 -1.368901,0.002 -0.237146,0.0255 -0.369279,0.0364 -0.481621,0.0196 -0.112342,-0.0168 -0.205184,-0.0611 -0.363299,-0.14573 -0.261197,-0.13975 -0.468048,-0.18955 -0.912072,-0.21911 -0.328533,-0.0219 -0.506677,-0.0415 -0.67646,-0.14986 -0.169757,-0.10833 -0.330968,-0.30539 -0.626295,-0.68161 -0.189548,-0.24142 -0.483288,-0.56689 -0.652675,-0.72347 -0.202115,-0.18688 -0.281807,-0.3032 -0.232039,-0.33796 0.06035,-0.0421 0.0675,-0.15646 0.03514,-0.28784 -0.03236,-0.13139 -0.104298,-0.27976 -0.202062,-0.38964 -0.09858,-0.11082 -0.217593,-0.25873 -0.264583,-0.32867 -0.04699,-0.07 -0.146976,-0.21829 -0.222197,-0.32969 -0.101785,-0.15075 -0.12446,-0.25441 -0.08784,-0.40514 0.02699,-0.11141 0.05093,-0.35433 0.05321,-0.54002 0.0029,-0.21559 0.04297,-0.37458 0.111125,-0.43925 0.141896,-0.13458 0.281993,-0.47284 0.195844,-0.47284 -0.03641,0 -0.06615,-0.0912 -0.06615,-0.20257 0,-0.11141 0.02662,-0.20257 0.05892,-0.20257 0.03228,0 0.05503,0.0533 0.05064,0.11833 -0.009,0.13281 0.01984,0.17355 0.05424,0.14728 0.0345,-0.0263 0.07469,-0.11977 0.08734,-0.25528 0.01826,-0.1954 0.0026,-0.2785 -0.04445,-0.24908 -0.0902,0.0557 -0.09073,0.0697 0.02998,-0.50384 0.04125,-0.196 0.07988,-0.33185 0.137478,-0.45269 0.05757,-0.12085 0.134223,-0.22687 0.251142,-0.36277 0.157957,-0.1836 0.340096,-0.35076 0.40513,-0.37155 0.06501,-0.0208 0.118348,-0.0824 0.118348,-0.13695 0,-0.09 0.05122,-0.19396 0.126101,-0.28008 0.07485,-0.0861 0.173487,-0.15418 0.268182,-0.17312 0.10541,-0.0211 0.225954,-0.11205 0.278024,-0.20929 0.07131,-0.13324 0.127979,-0.16305 0.250639,-0.13229 0.09739,0.0244 0.158115,0.0104 0.158115,-0.0377 0,-0.0428 0.03773,-0.0721 0.08424,-0.0646 0.04649,0.008 0.130281,-0.005 0.186028,-0.0284 0.0557,-0.0233 0.180526,-0.0716 0.277495,-0.10697 0.135414,-0.0493 0.186135,-0.12432 0.218096,-0.32401 0.02873,-0.17962 0.144304,-0.37253 0.302816,-0.53382 0.158512,-0.16129 0.359833,-0.29121 0.559647,-0.34416 0.189891,-0.0503 0.355467,-0.16269 0.467677,-0.3018 0.11221,-0.1391 0.171291,-0.30491 0.148326,-0.46147 -0.02064,-0.14061 -0.06792,-0.20308 -0.153485,-0.20308 -0.06792,0 -0.141896,-0.0301 -0.164862,-0.0672 -0.02302,-0.0371 -0.100965,-0.0677 -0.173117,-0.0677 -0.07776,0 -0.118269,-0.0136 -0.122476,-0.0496 -0.0042,-0.036 0.02768,-0.0944 0.09509,-0.18345 0.06339,-0.0838 0.08578,-0.20754 0.06099,-0.33951 -0.0309,-0.16476 0.004,-0.2611 0.167428,-0.46716 0.107183,-0.13478 0.192776,-0.2889 0.251672,-0.44907 0.0589,-0.16016 0.09112,-0.32614 0.09147,-0.48369 1.58e-4,-0.0786 0.01005,-0.12703 0.04961,-0.16381 0.03958,-0.0368 0.109061,-0.0621 0.227886,-0.094 0.22979,-0.0618 0.296809,-0.0562 0.393779,0.0315 0.06429,0.0581 0.161343,0.10542 0.216006,0.10542 0.05469,0 0.129381,0.0303 0.165867,0.0667 0.03651,0.0365 0.217435,0.11212 0.402061,0.16847 0.160946,0.0491 0.246089,0.0736 0.304879,0.0687 0.05879,-0.005 0.0911,-0.0389 0.146765,-0.10594 0.0639,-0.0769 0.135784,-0.24421 0.159676,-0.37155 0.0254,-0.13547 0.02117,-0.31153 0,-0.45372 -0.02222,-0.1422 -0.06199,-0.25063 -0.108506,-0.25063 -0.03551,0 -0.06461,-0.0423 -0.06461,-0.0941 0,-0.0517 -0.04551,-0.11142 -0.101283,-0.1328 -0.05929,-0.0227 -0.101282,-0.12373 -0.101282,-0.2434 0,-0.0965 0.0032,-0.14814 0.03823,-0.17518 0.03495,-0.0271 0.101521,-0.0295 0.226351,-0.0295 0.145971,0 0.28194,0.0376 0.303345,0.0842 0.02143,0.0464 0.02011,0.0112 -0.0026,-0.078 -0.03231,-0.12778 -0.01905,-0.15362 0.06355,-0.12195 0.0576,0.0221 0.117766,0.004 0.133324,-0.0403 0.01958,-0.0558 0.07062,-0.0432 0.165893,0.0413 0.06538,0.0579 0.103188,0.0873 0.155549,0.0884 0.05233,10e-4 0.119195,-0.026 0.242861,-0.0801 l 0.260958,-0.11472 -0.236669,-0.0589 c -0.13007,-0.0324 -0.464371,-0.0703 -0.743109,-0.0847 -0.278712,-0.0143 -0.560229,-0.0292 -0.62529,-0.0331 -0.09181,-0.006 -0.126656,-0.0357 -0.112633,-0.0703 0.01402,-0.0345 0.07691,-0.0736 0.18034,-0.0966 0.102209,-0.0227 0.246248,-0.0886 0.320384,-0.14625 0.109802,-0.0853 0.117396,-0.11551 0.04083,-0.16278 -0.06226,-0.0384 -0.07318,-0.10692 -0.04908,-0.16588 0.02408,-0.059 0.08324,-0.10852 0.161237,-0.10852 0.0898,0 0.122343,-0.0499 0.120385,-0.18552 0,-0.0814 0.0042,-0.12703 0.02998,-0.15037 0.02566,-0.0233 0.07207,-0.0245 0.153484,-0.016 0.08223,0.009 0.128165,0.008 0.152956,-0.0155 0.02487,-0.0235 0.02828,-0.0701 0.02487,-0.15347 -0.005,-0.11419 -0.02011,-0.14144 -0.03876,-0.0698 -0.01693,0.065 -0.07734,0.11834 -0.134355,0.11834 -0.0639,0 -0.08893,-0.0389 -0.06511,-0.10077 0.01614,-0.042 0.02037,-0.0636 0.0066,-0.0661 -0.01376,-0.003 -0.04532,0.0144 -0.10078,0.0491 -0.073,0.0455 -0.132794,0.14663 -0.132794,0.22479 0,0.0782 -0.05329,0.18855 -0.118349,0.24546 -0.06837,0.0598 -0.242966,0.11398 -0.425291,0.14522 -0.182324,0.0312 -0.372269,0.0395 -0.470773,0.008 -0.100542,-0.0319 -0.144595,-0.12057 -0.136948,-0.21342 0.0077,-0.0929 0.06694,-0.18993 0.174148,-0.23875 0.101971,-0.0464 0.157084,-0.11588 0.135917,-0.17105 -0.02651,-0.0691 0.01535,-0.17823 0.07853,-0.26458 0.06326,-0.0863 0.148061,-0.1497 0.20828,-0.12661 0.05559,0.0213 0.156607,-0.0111 0.224261,-0.0723 0.07131,-0.0645 0.190818,-0.0985 0.284745,-0.0806 0.108108,0.0207 0.187589,-0.0103 0.239262,-0.093 0.04821,-0.0772 0.05199,-0.1235 0.0093,-0.1235 -0.05998,0 -0.07829,-0.034 -0.06615,-0.0687 0.01217,-0.0347 0.05482,-0.0704 0.116284,-0.0744 0.0563,-0.003 0.08424,-0.006 0.08424,-0.0108 0,-0.005 -0.02794,-0.0131 -0.08424,-0.0279 -0.07932,-0.0207 -0.116469,-0.0497 -0.110066,-0.0992 0.0064,-0.0495 0.05617,-0.11948 0.151394,-0.22221 0.08197,-0.0884 0.17698,-0.14591 0.251672,-0.16484 0.07472,-0.0189 0.129196,10e-4 0.129196,0.0687 0,0.0534 0.02889,0.0515 0.09819,-0.006 0.05411,-0.0449 0.131974,-0.0611 0.173117,-0.0357 0.04109,0.0254 0.134858,-0.008 0.207724,-0.0734 0.105463,-0.0954 0.149013,-0.10246 0.214974,-0.0357 0.03286,0.0333 0.04202,0.0644 0.02117,0.10697 -0.0209,0.0426 -0.07125,0.0962 -0.158644,0.17467 -0.09506,0.0853 -0.145574,0.13511 -0.157613,0.16329 -0.01191,0.0282 0.01429,0.0351 0.07287,0.0351 0.08954,0 0.134329,0.0522 0.134356,0.12505 2.6e-5,0.0728 -0.04485,0.16605 -0.134356,0.24702 -0.07842,0.0709 -0.112871,0.16395 -0.101282,0.31315 0.01164,0.14921 0.06932,0.35434 0.176212,0.65061 0.07369,0.2042 0.116205,0.42107 0.12454,0.59221 0.0085,0.17114 -0.01746,0.297 -0.08009,0.31936 -0.04641,0.0166 -0.06472,0.0516 -0.04032,0.078 0.03781,0.0408 0.145812,0.004 0.268208,-0.0734 0.122396,-0.0779 0.259212,-0.19728 0.355521,-0.32349 0.08303,-0.10879 0.137001,-0.16917 0.207248,-0.20206 0.07022,-0.0329 0.157136,-0.0382 0.30644,-0.0382 0.182245,0 0.276146,-0.004 0.332793,-0.0723 0.05665,-0.0684 0.0757,-0.2018 0.108003,-0.46096 0.02514,-0.20107 0.05173,-0.32161 0.110067,-0.40514 0.05831,-0.0835 0.14851,-0.12977 0.300249,-0.1819 0.202036,-0.0694 0.271886,-0.0715 0.312102,-0.008 0.03022,0.0476 0.05212,-0.01 0.05273,-0.13797 0,-0.12108 -0.02355,-0.19106 -0.0739,-0.21084 -0.05048,-0.0198 -0.127424,0.0106 -0.233072,0.0904 -0.0721,0.0545 -0.222488,0.10011 -0.334354,0.10129 -0.150627,0.002 -0.24892,-0.0454 -0.302286,-0.15658 -0.05339,-0.11122 -0.06173,-0.28675 -0.03257,-0.54157 0.0313,-0.27355 0.07355,-0.45708 0.149357,-0.59118 0.07578,-0.1341 0.184891,-0.21844 0.350361,-0.29301 0.15121,-0.0682 0.274902,-0.14764 0.274902,-0.17673 0,-0.0291 0.107342,-0.0917 0.238231,-0.13901 0.160311,-0.0579 0.316124,-0.20018 0.478023,-0.43511 0.132159,-0.19181 0.314166,-0.38806 0.404098,-0.43615 0.08991,-0.0481 0.15076,-0.0999 0.135387,-0.11524 -0.01535,-0.0153 -0.09395,0.007 -0.174651,0.0506 -0.0807,0.0432 -0.162693,0.0626 -0.18243,0.0429 -0.05408,-0.0541 0.385127,-0.44041 0.667676,-0.58704 0.136842,-0.071 0.268155,-0.16025 0.291438,-0.19792 0.02328,-0.0377 0.131525,-0.0682 0.240824,-0.0682 0.109299,0 0.19894,-0.0246 0.19894,-0.0543 0,-0.0798 0.403172,-0.20142 0.685244,-0.20671 0.172271,-0.003 0.299932,0.0452 0.425821,0.16175 0.09888,0.0916 0.223652,0.16691 0.277495,0.16691 0.05379,0 0.09766,0.0301 0.09766,0.0672 0,0.0371 0.06025,0.0677 0.133852,0.0677 0.119539,0 0.36957,0.088 0.59944,0.1943 0.22987,0.10635 0.439632,0.23084 0.479055,0.30437 0.04358,0.0813 0.150177,0.14726 0.247518,0.15297 0.07879,0.004 0.119406,0.005 0.128164,-0.01 0.0087,-0.0143 -0.01482,-0.0434 -0.06358,-0.0971 -0.05808,-0.0641 -0.10541,-0.16737 -0.10541,-0.22945 0,-0.0621 -0.03051,-0.11265 -0.06771,-0.11265 -0.0372,0 -0.06718,-0.0493 -0.06718,-0.10904 0,-0.0839 0.04953,-0.10136 0.219128,-0.0775 0.120782,0.017 0.272521,0.0537 0.33692,0.0817 0.08689,0.0377 0.181134,-0.0203 0.364834,-0.22479 0.160073,-0.17819 0.327528,-0.29089 0.473869,-0.31833 0.108241,-0.0203 0.173725,-0.0531 0.203623,-0.0904 0.02987,-0.0373 0.02408,-0.0788 -0.0093,-0.11628 -0.06681,-0.0749 -0.244793,-0.13335 -0.474398,-0.10749 -0.181742,0.0205 -0.356103,-0.007 -0.491437,-0.0765 -0.08877,-0.0459 -0.14269,-0.0853 -0.178806,-0.14727 -0.03612,-0.0619 -0.05453,-0.1467 -0.07183,-0.28267 -0.02249,-0.17666 -0.05773,-0.39705 -0.07853,-0.4899 -0.04136,-0.18553 -0.05257,-0.32551 -0.03101,-0.43563 0.0217,-0.11012 0.07631,-0.19033 0.1669,-0.25631 0.09792,-0.0713 0.177773,-0.17514 0.177773,-0.23048 0,-0.0598 0.0481,-0.091 0.118348,-0.077 0.092,0.0183 0.112104,0.0759 0.09147,0.25838 -0.01455,0.12904 -0.02895,0.45802 -0.03204,0.73123 -0.0026,0.21904 0,0.34687 0.02117,0.43356 0.02064,0.0867 0.05824,0.13258 0.125572,0.18707 0.100568,0.0814 0.298079,0.1494 0.51263,0.18965 0.21455,0.0403 0.446511,0.0524 0.615976,0.0217 l 0.270272,-0.0491 -0.186028,-0.16226 c -0.102209,-0.0893 -0.186055,-0.22267 -0.186055,-0.29662 0,-0.0739 -0.04194,-0.18269 -0.09353,-0.24133 -0.05159,-0.0586 -0.115861,-0.20963 -0.14261,-0.33538 -0.02328,-0.10969 -0.0336,-0.16604 -0.01773,-0.19017 0.01614,-0.0241 0.05815,-0.016 0.140573,0.005 0.0749,0.0188 0.11848,0.0236 0.145732,0.004 0.02723,-0.02 0.03821,-0.0645 0.04755,-0.14521 l 0.0217,-0.185 0.151924,0.16382 c 0.123031,0.13254 0.151923,0.14185 0.151923,0.0496 0,-0.0627 -0.03402,-0.1142 -0.07543,-0.1142 -0.044,0 -0.06181,-0.07 -0.04289,-0.16847 0.01773,-0.0929 0.0087,-0.16898 -0.02011,-0.16898 -0.02871,0 -0.07181,-0.12895 -0.09559,-0.2868 -0.04321,-0.28605 -0.07133,-0.44759 -0.104907,-0.54157 -0.0336,-0.094 -0.07287,-0.12044 -0.13798,-0.13746 -0.09255,-0.0242 -0.134355,-0.0866 -0.129699,-0.14314 0.0048,-0.0565 0.05572,-0.10725 0.150363,-0.10853 0.07392,-10e-4 0.111019,-0.002 0.113189,-0.0119 0.0026,-0.0101 -0.03043,-0.0294 -0.09612,-0.0667 -0.07429,-0.0421 -0.157189,-0.10954 -0.184494,-0.14986 -0.0344,-0.0508 -0.04993,-0.0512 -0.05064,-0.001 0,0.0396 -0.195712,0.11036 -0.433572,0.15762 -0.227516,0.0452 -0.377667,0.0603 -0.494533,0.0351 -0.116866,-0.0252 -0.200766,-0.0906 -0.295063,-0.20516 -0.04416,-0.0536 -0.06366,-0.0819 -0.04548,-0.0915 0.01826,-0.01 0.07406,-2.6e-4 0.18034,0.0207 0.160734,0.0318 0.280379,0.0135 0.394811,-0.0615 0.09861,-0.0646 0.2295,-0.0916 0.327104,-0.0672 0.0966,0.0242 0.162269,0.0113 0.162269,-0.032 0,-0.0478 0.101468,-0.0579 0.294561,-0.0289 0.234553,0.0352 0.303001,0.0226 0.335888,-0.063 0.0254,-0.0664 0.0884,-0.10035 0.197406,-0.1018 0.109035,-10e-4 0.263896,0.0293 0.472837,0.0925 0.15584,0.0473 0.23622,0.0708 0.277521,0.0651 0.04127,-0.006 0.04339,-0.0405 0.04339,-0.10904 0,-0.0777 0.05331,-0.18165 0.118348,-0.23099 0.05384,-0.0408 0.07945,-0.0629 0.0708,-0.0754 -0.0087,-0.0125 -0.05157,-0.0155 -0.134356,-0.0165 -0.107791,-0.001 -0.174069,-0.0162 -0.206719,-0.0563 -0.03265,-0.0401 -0.03162,-0.105 -0.0058,-0.20412 0.01561,-0.0598 0.0382,-0.0968 0.08527,-0.11938 0.04707,-0.0225 0.118798,-0.0304 0.232542,-0.0326 0.153591,-0.003 0.241274,-0.0206 0.194813,-0.0393 -0.04649,-0.0187 -0.08475,-0.0764 -0.08475,-0.12816 0,-0.061 -0.04342,-0.11882 -0.112131,-0.16847 -0.06871,-0.0496 -0.162639,-0.0911 -0.26408,-0.11937 -0.20283,-0.0565 -0.435293,-0.0603 -0.552927,0.0289 -0.119618,0.0907 -0.292364,0.10739 -0.435636,0.0713 -0.143245,-0.0361 -0.256831,-0.12509 -0.256831,-0.24598 0,-0.0708 -0.03051,-0.14758 -0.06768,-0.17053 -0.06075,-0.0376 -0.07861,-0.0965 -0.06305,-0.14625 0.01561,-0.0497 0.06443,-0.0899 0.136922,-0.0899 0.08461,0 0.155602,0.054 0.176742,0.13487 0.01931,0.0743 0.06779,0.1354 0.106971,0.1354 0.03921,0 0.1261,0.0498 0.193278,0.11058 0.05654,0.0512 0.08797,0.0765 0.110067,0.0765 0.02222,0 0.03514,-0.0253 0.05477,-0.0765 0.02328,-0.0608 0.08469,-0.11059 0.136446,-0.11058 0.05588,0 0.08673,-0.0269 0.09094,-0.062 0.0042,-0.0351 -0.01826,-0.0784 -0.07027,-0.11058 -0.0404,-0.0249 -0.05874,-0.10132 -0.04082,-0.17002 0.02328,-0.0888 -0.03368,-0.1642 -0.196903,-0.26045 -0.115438,-0.0681 -0.191056,-0.13633 -0.21807,-0.1881 -0.02699,-0.0518 -0.0056,-0.087 0.07287,-0.0899 0.137133,-0.005 -0.502497,-0.31388 -0.760148,-0.3669 -0.130096,-0.0268 -0.570998,-0.20956 -0.979805,-0.40669 -0.408782,-0.19713 -0.811398,-0.37852 -0.895033,-0.40308 -0.08538,-0.0251 -0.136975,-0.068 -0.147796,-0.10439 -0.01085,-0.0364 0.01931,-0.0667 0.09716,-0.0667 0.0557,0 0.101282,-0.0301 0.101282,-0.0672 0,-0.0371 0.04554,-0.0677 0.101283,-0.0677 0.05572,0 0.101309,0.0306 0.101309,0.0677 0,0.0372 0.08382,0.0674 0.186028,0.0677 0.102209,1.7e-4 0.277125,0.0488 0.388594,0.10748 0.136207,0.0717 0.36412,0.12452 0.558112,0.14522 0.193992,0.0207 0.353986,0.009 0.353986,-0.0481 0,-0.0525 0.04458,-0.0673 0.118348,-0.0388 0.06498,0.0251 0.467651,0.11992 0.895033,0.21084 0.427381,0.0909 0.83775,0.19405 0.912071,0.22893 0.332343,0.15596 0.668841,0.27181 0.788591,0.27181 0.0716,0 0.220054,0.0467 0.329697,0.10336 0.08935,0.0462 0.521282,0.25262 0.853705,0.42064 0.166185,0.084 0.307525,0.15842 0.368961,0.19844 0.06144,0.04 0.0426,0.0453 -0.111098,-0.008 -0.07429,-0.0259 -0.02117,0.0231 0.117819,0.10904 0.138985,0.0858 0.252862,0.19438 0.253206,0.24081 0,0.0464 0.03178,0.0842 0.06977,0.0842 0.03799,0 0.959564,0.71387 1.349798,0.94568 0.390207,0.23181 0.804783,0.5116 0.921385,0.62167 0.133853,0.12637 0.228679,0.17297 0.257334,0.12661 0.03286,-0.0531 0.02871,-0.10509 0.0026,-0.13849 -0.02715,-0.0334 -0.07694,-0.0481 -0.134884,-0.0258 -0.0467,0.0179 -0.07416,0.0204 -0.09197,-0.007 -0.01773,-0.0276 -0.02646,-0.0854 -0.03463,-0.18862 -0.004,-0.0464 -0.05231,-0.1199 -0.108003,-0.16329 -0.10123,-0.0789 -0.102076,-0.11967 -0.02117,-0.12145 0.08091,-0.002 0.243893,0.0351 0.470271,0.11111 0.23622,0.0795 0.389202,0.14323 0.467677,0.19637 0.07845,0.0531 0.08231,0.096 0.02011,0.13436 -0.0412,0.0255 -0.02355,0.0606 0.04342,0.0863 0.0622,0.0238 0.14232,0.0256 0.177774,0.004 0.0354,-0.0219 0.106574,-0.005 0.158115,0.0377 0.05151,0.0427 0.186902,0.0805 0.301281,0.0837 0.05434,0.001 0.03839,0.0313 0.06874,0.0408 A 20.34534,20.34534 0 0 0 33.961343,256.3812 c 0.316733,0.0482 0.516202,0.0986 0.432012,0.11214 -0.08588,0.0138 -0.172985,0.0681 -0.193252,0.12092 -0.0217,0.0565 -0.129567,0.0961 -0.262017,0.0961 -0.123666,0 -0.216694,0.0266 -0.25527,0.0594 -0.0386,0.0328 -0.02275,0.072 0.07183,0.0966 0.04948,0.0129 0.07363,0.0207 0.07078,0.0264 -0.0029,0.006 -0.03236,0.009 -0.08991,0.0124 -0.0762,0.004 -0.174599,0.0438 -0.218599,0.0879 -0.05501,0.055 -0.507841,0.0858 -1.449519,0.0987 -0.815393,0.0112 -1.251585,0.0201 -1.54305,0.0522 -0.291492,0.0321 -0.438362,0.0875 -0.675429,0.19224 -0.201983,0.0892 -0.524483,0.18037 -0.71673,0.20309 -0.192299,0.0227 -0.404997,0.0715 -0.472863,0.10851 -0.06789,0.037 -0.21291,0.0867 -0.322448,0.11008 -0.147849,0.0315 -0.175127,0.0574 -0.104907,0.10077 0.05199,0.0321 0.118639,0.0438 0.147796,0.0258 0.02921,-0.018 0.159623,-0.003 0.289904,0.0326 0.142849,0.0394 0.251831,0.0409 0.274929,0.003 0.02117,-0.0341 2.12e-4,-0.062 -0.04651,-0.062 -0.05321,0 -0.06128,-0.0232 -0.02117,-0.062 0.05736,-0.0554 0.1914,-0.0817 0.331259,-0.0801 0.139832,0.002 0.285909,0.031 0.3674,0.0879 0.07371,0.0516 0.110596,0.0799 0.114723,0.10284 0.0042,0.0229 -0.02487,0.0409 -0.08371,0.0713 -0.125783,0.065 -0.59129,0.17535 -1.046956,0.24856 -0.184018,0.0296 -0.256487,0.0793 -0.285776,0.19586 -0.01826,0.0727 -0.03657,0.11193 -0.107474,0.1328 -0.07093,0.0209 -0.194681,0.0233 -0.423228,0.0233 -0.263286,-2e-5 -0.550174,0.0363 -0.766894,0.0863 -0.216721,0.05 -0.363194,0.11398 -0.344673,0.17053 0.01508,0.0464 0.108585,0.0784 0.210317,0.0889 0.101732,0.0105 0.211826,-10e-5 0.261991,-0.0398 0.137768,-0.10903 0.379015,-0.17422 0.57568,-0.18656 0.09835,-0.006 0.185658,8e-4 0.24339,0.0222 0.05773,0.0215 0.08591,0.0571 0.06615,0.10852 -0.02037,0.0531 0.01746,0.10431 0.06771,0.12971 0.05032,0.0254 0.113242,0.0251 0.14314,-0.0233 0.02196,-0.0355 0.09895,-0.0646 0.171053,-0.0646 0.07541,0 0.131259,-0.0461 0.131259,-0.10852 0,-0.0712 0.0363,-0.0941 0.106442,-0.0672 0.05882,0.0225 0.1524,0.0408 0.207751,0.0408 0.088,0 0.0876,0.0131 -0.0032,0.10335 -0.08242,0.0824 -0.09967,0.15197 -0.06202,0.19689 0.03765,0.0449 0.130254,0.0652 0.268208,0.0491 0.168989,-0.0197 0.229447,-0.005 0.196876,0.0475 -0.0322,0.0521 0.05046,0.076 0.263049,0.076 0.21336,0 0.322554,0.0316 0.349329,0.10128 0.02143,0.0557 0.08099,0.10129 0.132795,0.10129 0.08422,0 0.123084,0.0828 0.07752,0.16588 -0.009,0.017 0.04236,0.0744 0.115226,0.12764 0.05691,0.0416 0.08752,0.0719 0.09509,0.11059 0.0077,0.0387 -0.0077,0.0858 -0.04186,0.16071 -0.04371,0.0959 -0.154014,0.19268 -0.244951,0.21549 l -0.165365,0.0419 0.145733,0.14573 c 0.0803,0.0803 0.212195,0.1518 0.292999,0.15865 0.0808,0.007 0.241644,0.0613 0.357082,0.12092 0.0825,0.0427 0.133906,0.079 0.162269,0.12144 0.02839,0.0424 0.03381,0.0909 0.02487,0.15813 -0.0127,0.0941 -0.06691,0.19871 -0.120412,0.23254 -0.07321,0.0463 -0.07519,0.0617 -0.0087,0.0625 0.04871,5.3e-4 0.06951,0.0315 0.04651,0.0687 -0.02302,0.0372 0.0061,0.0677 0.06355,0.0677 0.05789,0 0.10541,0.0456 0.10541,0.10128 0,0.0557 -0.04191,0.10129 -0.093,0.10129 -0.141473,0 -0.717788,0.26844 -0.717788,0.33434 0,0.0319 -0.06829,0.0455 -0.151924,0.03 -0.08361,-0.0155 -0.114379,-0.0101 -0.06821,0.0119 0.06239,0.0297 0.06525,0.0745 0.01138,0.17518 -0.0399,0.0745 -0.08988,0.11832 -0.111099,0.0971 -0.02117,-0.0212 -0.07289,0.008 -0.114723,0.0651 -0.04191,0.0572 -0.130942,0.11213 -0.197908,0.12196 -0.07178,0.0105 -0.13343,0.0519 -0.171583,0.1049 -0.03815,0.0531 -0.05281,0.11804 -0.03048,0.17622 0.0272,0.071 -0.112077,0.13866 -0.347794,0.16898 -0.0372,0.005 -0.109723,0.0436 -0.161211,0.0863 -0.05151,0.0427 -0.135414,0.0779 -0.186055,0.0786 -0.104881,0.001 -0.632513,0.49227 -0.632513,0.58859 0,0.0348 -0.06466,0.0426 -0.143669,0.0176 -0.0921,-0.0292 -0.12819,-0.0204 -0.10025,0.0248 0.03561,0.0576 -0.493263,0.19627 -0.634577,0.1664 -0.292206,-0.0617 -0.496729,-0.0948 -0.701252,-0.10232 -0.204523,-0.008 -0.409284,0.0108 -0.700722,0.0512 -0.239104,0.033 -0.385472,0.0232 -0.450109,-0.0305 -0.07411,-0.0615 -0.150416,-0.0567 -0.337953,0.0217 -0.133323,0.0557 -0.242384,0.12838 -0.242384,0.16174 0,0.0334 -0.09456,0.0634 -0.210318,0.0667 -0.115755,0.003 -0.416666,0.11413 -0.668681,0.2465 -0.270933,0.14228 -0.43188,0.21745 -0.516255,0.23047 -0.08438,0.013 -0.09213,-0.0359 -0.05839,-0.14159 0.0267,-0.0836 0.05517,-0.24829 0.06355,-0.36639 0.0098,-0.13748 0.07107,-0.27973 0.207751,-0.45682 0.136657,-0.17708 0.348933,-0.38949 0.659897,-0.66766 0.291571,-0.2608 0.641483,-0.49776 0.918819,-0.64234 0.138668,-0.0723 0.259424,-0.12149 0.345202,-0.13901 0.08578,-0.0175 0.136948,-0.003 0.136948,0.0512 0,0.032 0.0767,0.0438 0.170524,0.0258 0.07951,-0.0152 0.11983,-0.0251 0.126603,-0.0419 0.0069,-0.0168 -0.02011,-0.0408 -0.07596,-0.0842 -0.05707,-0.0443 -0.0857,-0.0685 -0.08371,-0.0946 0.0026,-0.026 0.0344,-0.0536 0.09869,-0.10386 0.0749,-0.0585 0.217911,-0.0942 0.32041,-0.0796 0.135149,0.0192 0.195792,-0.007 0.22479,-0.0987 0.02328,-0.0738 0.272494,-0.23346 0.608753,-0.39015 0.326576,-0.15221 0.555414,-0.28368 0.696066,-0.40308 0.140653,-0.1194 0.193173,-0.22635 0.166397,-0.32866 -0.01429,-0.0545 -0.0093,-0.0965 0.02688,-0.1385 0.03614,-0.042 0.103479,-0.084 0.212381,-0.13952 0.151448,-0.0772 0.298847,-0.13538 0.327634,-0.12919 0.02881,0.006 0.104378,-0.0117 0.16846,-0.0398 0.07501,-0.0328 0.20402,0.003 0.361739,0.10025 0.197167,0.12178 0.256037,0.13356 0.301281,0.0605 0.03111,-0.0503 0.0209,-0.0965 -0.02945,-0.13849 -0.05032,-0.042 -0.140599,-0.08 -0.270271,-0.11318 -0.259345,-0.0663 -0.675244,-0.11426 -1.239732,-0.14211 -0.100145,-0.005 -0.148537,-0.0429 -0.144701,-0.11162 0.004,-0.0687 0.05985,-0.1683 0.167455,-0.2961 0.130757,-0.15533 0.149066,-0.20774 0.07181,-0.20774 -0.05688,0 -0.12356,0.0322 -0.14777,0.0713 -0.02903,0.0469 -0.103081,0.0326 -0.217567,-0.0424 -0.07638,-0.05 -0.133376,-0.0764 -0.220662,-0.0811 -0.08729,-0.005 -0.205105,0.0123 -0.402564,0.0476 -0.247094,0.0441 -0.538374,0.13893 -0.647488,0.21084 -0.109141,0.0719 -0.253683,0.13101 -0.320913,0.13126 -0.0672,1.5e-4 -0.103055,0.0305 -0.08012,0.0677 0.03485,0.0564 0.110887,0.0753 0.20619,0.0605 0.09533,-0.0148 0.209814,-0.0636 0.320913,-0.14262 0.11512,-0.0819 0.369279,-0.14654 0.609785,-0.1757 0.240506,-0.0292 0.467492,-0.0229 0.528135,0.0377 0.06144,0.0614 -0.0045,0.20584 -0.134885,0.36019 -0.130413,0.15434 -0.325808,0.31906 -0.52451,0.42012 -0.203729,0.10361 -0.387403,0.23257 -0.408252,0.28681 -0.0209,0.0542 -0.07998,0.0987 -0.131762,0.0987 -0.05181,0 -0.09501,0.0378 -0.09612,0.0842 -0.0026,0.0918 -0.541523,0.38809 -0.706411,0.38809 -0.05591,0 -0.185367,0.0976 -0.287841,0.21653 -0.215238,0.24973 -0.33311,0.38134 -0.434075,0.44907 -0.100965,0.0677 -0.184917,0.0714 -0.333322,0.0656 l -0.284216,-0.0109 0.212911,-0.19017 c 0.117131,-0.10459 0.213413,-0.20698 0.213413,-0.22738 0,-0.0712 -0.2921,0.11959 -0.504349,0.3297 -0.117687,0.11647 -0.328454,0.24609 -0.468207,0.28784 -0.175048,0.0523 -0.231378,0.0534 -0.181372,0.003 0.06268,-0.0626 0.08247,-0.11446 0.07027,-0.13591 -0.01217,-0.0215 -0.05654,-0.0127 -0.121444,0.046 -0.103399,0.0935 -0.160734,0.12514 -0.172085,0.0966 -0.01138,-0.0285 0.02381,-0.11734 0.105939,-0.26407 0.08602,-0.15347 0.283184,-0.38285 0.438229,-0.51004 0.155046,-0.12719 0.312659,-0.32093 0.350864,-0.43047 0.04011,-0.11499 0.144489,-0.22737 0.246513,-0.26613 0.114406,-0.0435 0.173328,-0.0651 0.203597,-0.0605 0.03027,0.005 0.03204,0.0355 0.03204,0.0966 0,0.0706 0.05027,0.12268 0.110066,0.14263 0.0598,0.0199 0.129011,0.008 0.165894,-0.0506 0.0427,-0.0674 0.05977,-0.07 0.06046,-0.01 0,0.0464 0.03498,0.0842 0.07649,0.0842 0.04289,0 0.05996,-0.0597 0.03927,-0.13849 -0.02619,-0.10041 0.005,-0.15476 0.113162,-0.19585 0.08221,-0.0312 0.189785,-0.10527 0.239263,-0.16485 0.0495,-0.0596 0.162268,-0.10852 0.250639,-0.10852 0.08829,0 0.160708,-0.0273 0.160708,-0.0605 0,-0.0354 -0.104775,-0.0354 -0.253206,-5.3e-4 -0.139356,0.0328 -0.380339,0.0415 -0.535358,0.0196 -0.121179,-0.0171 -0.202909,-0.0199 -0.28784,0.005 -0.08496,0.0251 -0.173514,0.078 -0.308531,0.17105 -0.17272,0.11879 -0.33446,0.1952 -0.359648,0.17001 -0.02513,-0.0252 0.009,-0.0858 0.07646,-0.13488 0.08281,-0.0605 0.09739,-0.10462 0.04601,-0.13642 -0.06011,-0.0371 -0.02699,-0.11555 0.03979,-0.1788 0.06675,-0.0632 0.167455,-0.11144 0.241829,-0.0879 0.0911,0.0289 0.160682,0.0222 0.193278,-0.006 0.03257,-0.0284 0.02794,-0.0786 -0.02998,-0.13643 -0.05339,-0.0533 -0.125968,-0.0972 -0.161237,-0.0972 -0.03529,0 -0.102023,-0.0456 -0.148299,-0.10129 -0.05297,-0.0638 -0.166555,-0.0961 -0.294561,-0.0966 -0.128005,-5.3e-4 -0.270192,0.031 -0.380867,0.094 -0.0929,0.0529 -0.272521,0.14366 -0.398939,0.20206 -0.126391,0.0584 -0.358246,0.21981 -0.515197,0.35863 -0.156951,0.13883 -0.412829,0.35488 -0.56896,0.48007 -0.156157,0.12518 -0.315886,0.2981 -0.355018,0.38396 -0.0391,0.0859 -0.164597,0.19469 -0.278553,0.24185 -0.11393,0.0472 -0.299879,0.166 -0.413411,0.26458 -0.113507,0.0986 -0.294085,0.22484 -0.401003,0.28009 -0.07792,0.0403 -0.121179,0.0675 -0.133826,0.0889 -0.0127,0.0214 0.0056,0.0368 0.04961,0.0537 0.06048,0.0232 0.109538,0.0127 0.109538,-0.0233 0,-0.036 0.03212,-0.0656 0.07133,-0.0656 0.03908,0 0.183621,-0.0763 0.320887,-0.1695 0.137292,-0.0932 0.259847,-0.1388 0.272336,-0.10129 0.01508,0.0453 0.06757,0.0663 0.141605,0.0672 0.07403,7.9e-4 0.169386,-0.0179 0.271303,-0.0512 0.203809,-0.0666 0.432647,-0.1917 0.561711,-0.33434 0.06522,-0.072 0.186796,-0.12509 0.270272,-0.11783 0.0835,0.007 0.212487,-0.0197 0.286808,-0.0599 0.157189,-0.0851 0.584253,-0.24347 0.660426,-0.24495 0.02871,-5.3e-4 0.0058,0.0701 -0.05117,0.15658 -0.0567,0.0865 -0.08655,0.17333 -0.06665,0.19327 0.02011,0.0199 -0.0712,0.13075 -0.202565,0.24598 -0.13134,0.11523 -0.23876,0.24024 -0.23876,0.27802 0,0.0378 -0.113321,0.11616 -0.252175,0.17415 -0.26789,0.11186 -0.558615,0.34986 -0.558615,0.45734 0,0.037 0.136208,0.049 0.319352,0.0284 0.136182,-0.0153 0.211588,-0.0208 0.240295,-0.0134 0.02871,0.007 0.01111,0.0274 -0.03979,0.0646 -0.116761,0.0853 -0.652701,0.56659 -1.133264,1.01803 -0.132926,0.12489 -0.281596,0.34889 -0.330729,0.49764 -0.04911,0.14874 -0.111707,0.25665 -0.139012,0.23978 -0.0273,-0.0168 -0.08654,0.058 -0.13126,0.16588 -0.06014,0.14514 -0.186663,0.30043 -0.310568,0.40721 -0.123904,0.10679 -0.245268,0.16515 -0.295592,0.11524 -0.0608,-0.0603 -0.06921,-0.0532 -0.0372,0.031 0.03051,0.0801 -0.01482,0.13 -0.165365,0.18242 -0.113771,0.0396 -0.206719,0.11908 -0.206719,0.17673 0,0.0576 -0.03651,0.1049 -0.08112,0.1049 -0.0599,0 -0.06096,0.0195 -0.0048,0.0754 0.04839,0.0484 0.05707,0.11141 0.02791,0.18655 -0.02918,0.0751 -0.09668,0.16278 -0.201533,0.25993 -0.09112,0.0844 -0.141579,0.15348 -0.112157,0.15348 0.02939,0 -0.02842,0.0756 -0.128667,0.16847 -0.09959,0.0922 -0.175789,0.14623 -0.22479,0.16071 -0.04882,0.0144 -0.07014,-0.0103 -0.06046,-0.0755 0,0 0,-5.2e-4 0,-5.2e-4 0.0071,-0.0464 0.03659,-0.12216 0.06562,-0.16847 0.03371,-0.054 0.01455,-0.0842 -0.0527,-0.0842 -0.05789,0 -0.10541,-0.0446 -0.10541,-0.0992 0,-0.0644 0.03926,-0.0841 0.111602,-0.0563 0.05636,0.0216 0.0835,0.011 0.08062,-0.0589 -0.0029,-0.0699 -0.03543,-0.19927 -0.09972,-0.41496 -0.0254,-0.0857 0.0058,-0.13397 0.104378,-0.15968 0.07771,-0.0203 0.141076,-0.0578 0.141076,-0.0827 0,-0.0249 0.05543,-0.0492 0.123004,-0.0543 0.206296,-0.0155 0.689769,-0.24978 0.665586,-0.32247 -0.01243,-0.0376 -0.09213,-0.0721 -0.176741,-0.0765 -0.08991,-0.004 -0.16137,-0.0415 -0.204126,-0.0971 -0.04276,-0.0557 -0.05638,-0.12989 -0.03151,-0.20981 0.01931,-0.0619 0.0026,-0.13217 -0.03567,-0.15606 -0.03911,-0.0242 -0.07027,0.0125 -0.07027,0.0827 0,0.0694 -0.04461,0.18525 -0.09922,0.25734 -0.07763,0.10256 -0.109988,0.0956 -0.102844,0.03 0.0071,-0.0657 0.05397,-0.18986 0.134885,-0.32247 0.09279,-0.15209 0.135017,-0.25157 0.123507,-0.31884 -0.01138,-0.0673 -0.07694,-0.10253 -0.199998,-0.12712 -0.165947,-0.0331 -0.252863,-0.0464 -0.27387,-0.03 -0.0209,0.0164 0.02434,0.0625 0.123507,0.14779 0.09107,0.0783 0.136816,0.11915 0.145706,0.16226 0.009,0.0431 -0.01905,0.0888 -0.07596,0.1757 -0.06398,0.0977 -0.161634,0.17725 -0.216508,0.17725 -0.0549,0 -0.09975,0.0272 -0.09975,0.0599 0,0.0328 -0.06154,0.0754 -0.136949,0.0951 -0.07538,0.0197 -0.132106,0.0614 -0.126074,0.0925 0.02911,0.14956 -0.102631,0.49558 -0.188621,0.49558 -0.05331,0 -0.08035,0.0262 -0.06046,0.0584 0.01984,0.0322 0.120147,0.0456 0.223229,0.0295 0.08557,-0.0133 0.130122,-0.0189 0.139541,-0.01 0.0093,0.009 -0.0164,0.0331 -0.07027,0.077 -0.06501,0.053 -0.117846,0.13399 -0.117846,0.18035 0,0.0527 -0.08112,0.0612 -0.181372,0.0393 -0.10025,-0.0219 -0.219816,-0.074 -0.297153,-0.14366 -0.05869,-0.0528 -0.158777,-0.0961 -0.222197,-0.0961 -0.04826,0 -0.07395,-0.006 -0.07959,-0.0263 -0.0056,-0.0208 0.0093,-0.0569 0.04135,-0.11679 0.0422,-0.0787 0.133985,-0.15827 0.204629,-0.17674 0.07059,-0.0185 0.128667,-0.0622 0.128667,-0.0971 0,-0.035 -0.02619,-0.0475 -0.05786,-0.0279 -0.0317,0.0196 -0.09155,-0.0396 -0.133324,-0.13126 -0.0418,-0.0917 -0.102976,-0.1664 -0.135916,-0.1664 -0.102659,0 -0.414338,0.27398 -0.397907,0.34985 0.009,0.0396 -0.02728,0.0874 -0.07959,0.10645 -0.06599,0.0239 -0.0821,8e-4 -0.0527,-0.076 0.02328,-0.0608 0.0127,-0.11059 -0.02328,-0.11059 -0.03601,0 -0.06562,-0.0502 -0.06562,-0.11162 0,-0.052 -0.0026,-0.078 -0.01852,-0.078 -0.01667,0 -0.04763,0.026 -0.104907,0.078 -0.068,0.0615 -0.15584,0.11162 -0.195342,0.11162 -0.0395,0 -0.22061,0.13417 -0.402563,0.29766 -0.135626,0.12186 -0.226986,0.19406 -0.303848,0.23254 -0.07689,0.0385 -0.139038,0.0428 -0.217038,0.0279 -0.151341,-0.0289 -0.224604,0.004 -0.357108,0.15864 l -0.166396,0.19482 0.11938,-0.21704 c 0.0657,-0.11957 0.37928,-0.56605 0.697124,-0.99218 0.374967,-0.50274 0.771234,-0.98598 1.187529,-1.44849 0.416269,-0.46252 0.85262,-0.90428 1.306883,-1.32447 0.454263,-0.42019 0.926492,-0.81899 1.415415,-1.19476 0.48895,-0.37577 0.994357,-0.72857 1.514634,-1.05782 0.520277,-0.32924 1.05574,-0.63456 1.604036,-0.91519 0.548323,-0.28062 1.109583,-0.53646 1.682592,-0.76636 0.573008,-0.2299 1.157419,-0.43426 1.751832,-0.61133 0.594413,-0.17707 1.198774,-0.32693 1.811258,-0.44907 0.954987,-0.19045 2.006415,-0.32565 2.961058,-0.39171 0.936202,-0.0648 1.766782,-0.0586 2.335266,0.0217 a 20.34534,20.34534 0 0 0 -1.352392,-0.0677 z m 2.754365,1.09606 c 0.0657,0.0171 0.02831,0.0323 -0.08319,0.0336 -0.111522,0.002 -0.165656,-0.0125 -0.119909,-0.031 v -5.3e-4 c 0.04569,-0.0185 0.137345,-0.0197 0.203094,-0.002 z m -5.496825,0.75085 c 0.131075,-0.0329 0.176742,-0.0182 0.176742,0.0563 0,0.0669 -0.04456,0.13551 -0.10078,0.18035 -0.0562,0.0448 -0.123798,0.0659 -0.171053,0.0367 -0.04138,-0.0256 -0.217805,-0.0245 -0.391689,0.002 -0.125862,0.0195 -0.198067,0.0345 -0.225319,0.0501 -0.02723,0.0156 -0.0093,0.0315 0.04445,0.0532 0.06141,0.0247 0.09141,0.0383 0.08681,0.0465 -0.0045,0.008 -0.04413,0.0113 -0.120915,0.0139 -0.09289,0.003 -0.237305,0.0236 -0.320913,0.046 -0.08303,0.0223 -0.149966,0.0232 -0.150892,0.002 -2.6e-5,1.3e-4 0,8e-4 0,0.001 v -0.001 c 0,1.5e-4 0,-1.4e-4 0,0 0,-0.0217 0.06845,-0.11199 0.152427,-0.20257 0.110543,-0.11917 0.250534,-0.17629 0.499215,-0.20309 0.190051,-0.0205 0.424789,-0.0572 0.521917,-0.0816 z m -0.103346,0.7457 c -0.083,0.0829 -0.435213,0.14897 -0.560176,0.1049 v -5.3e-4 c -0.07189,-0.0254 -0.101864,-0.0612 -0.06718,-0.0801 0.08991,-0.0491 0.674899,-0.0718 0.627353,-0.0243 z m 0.02275,0.19223 c 0.0539,0.0216 0.03789,0.0371 -0.04083,0.0403 -0.0712,0.003 -0.11131,-0.0127 -0.08887,-0.0351 v -5.3e-4 c 0.02249,-0.0225 0.08088,-0.0245 0.129698,-0.005 z m -0.945144,0.0837 c 0.10279,0.0326 0.112792,0.0604 0.04961,0.13643 -0.04368,0.0526 -0.12864,0.095 -0.18915,0.0946 -0.048,-5.3e-4 -0.07263,-0.003 -0.0739,-0.0124 0,-0.009 0.02037,-0.0258 0.06461,-0.0543 0.04379,-0.0283 0.06514,-0.0443 0.06355,-0.0538 -0.0026,-0.009 -0.02619,-0.012 -0.07493,-0.0124 -0.06168,-1.9e-4 -0.12753,0.037 -0.146236,0.0832 -0.02143,0.0533 -0.03627,0.0437 -0.03929,-0.0264 -0.0032,-0.0667 0.03842,-0.11969 0.103346,-0.14883 0.06496,-0.0291 0.153353,-0.0344 0.242385,-0.006 z m -5.114952,1.04232 c 0.0557,0 0.101283,0.0306 0.101283,0.0677 0,0.0371 -0.04553,0.0672 -0.101283,0.0672 -0.05569,0 -0.101785,-0.0301 -0.101785,-0.0672 0,-0.0371 0.04604,-0.0677 0.101785,-0.0677 z m -0.439234,0.40514 c 0.132318,-0.0855 0.221826,-0.0855 0.168963,0 -0.02302,0.0372 -0.09324,0.0673 -0.156052,0.0667 -0.04924,-5.3e-4 -0.07464,-0.003 -0.07649,-0.0124 -0.0026,-0.009 0.01984,-0.0261 0.06358,-0.0543 z m 21.8245,0.20257 c 0.0034,-0.003 0.03117,0.0169 0.08475,0.0589 0.06506,0.051 0.117819,0.10433 0.117819,0.11833 0,0.0556 -0.05535,0.02 -0.143643,-0.0925 -0.04204,-0.0536 -0.06241,-0.0813 -0.05892,-0.0847 z m -23.249229,0.36329 c 0.0029,0.008 -0.02871,0.0318 -0.092,0.0791 -0.145257,0.10846 -0.268499,0.13114 -0.211349,0.0388 0.02011,-0.0327 0.105462,-0.077 0.189653,-0.0982 0.07385,-0.0186 0.11086,-0.0273 0.113691,-0.0196 z m 12.458145,0.35088 c 0.02117,-0.0184 0.06673,-0.002 0.156077,0.0315 0.133112,0.0506 0.198014,0.0484 0.232543,-0.007 0.03469,-0.0561 0.06054,-0.0569 0.09406,-0.002 0.0254,0.0411 0.01191,0.0749 -0.02947,0.0749 -0.04159,0 -0.05657,0.0306 -0.03358,0.0677 0.02302,0.0372 0.0026,0.0676 -0.04651,0.0682 -0.06429,8e-4 -0.06067,0.0191 0.01297,0.0667 0.0413,0.0267 0.0594,0.0429 0.0527,0.0527 -0.0066,0.01 -0.03858,0.0135 -0.09816,0.0139 -0.08051,5.3e-4 -0.161607,-0.0372 -0.180366,-0.0837 -0.02143,-0.0533 -0.03588,-0.0431 -0.03926,0.0269 -0.004,0.0814 -0.0771,0.1422 -0.178303,0.17105 -0.101177,0.0289 -0.230664,0.0255 -0.346737,-0.0217 v -5.3e-4 c -0.05641,-0.023 -0.04651,-0.0674 0.0336,-0.14883 0.0798,-0.0811 0.13761,-0.0951 0.191718,-0.0465 0.0426,0.0382 0.06112,0.0965 0.04133,0.12919 -0.01984,0.0327 0.0061,0.0447 0.05789,0.0269 0.06009,-0.0207 0.08583,-0.10868 0.07234,-0.24495 -0.01032,-0.10303 -0.01376,-0.15576 0.0071,-0.17415 z m 2.557991,0.34469 c 0.01958,-0.005 0.07194,0.0278 0.141605,0.10076 0.06498,0.0681 0.0916,0.12351 0.0589,0.12351 -0.0326,0 -0.09771,-0.0462 -0.144674,-0.10284 -0.06212,-0.0748 -0.07538,-0.11667 -0.05583,-0.12143 z m -13.826013,0.17001 c 0.0209,0.0208 -0.0172,0.0584 -0.08374,0.0837 -0.04813,0.0183 -0.07387,0.0253 -0.07956,0.0196 -0.0058,-0.006 0.0087,-0.024 0.04186,-0.0574 0.0458,-0.0462 0.100621,-0.0668 0.121444,-0.046 z m 9.288832,0.12041 c 0,-0.0628 0.454184,-0.0397 0.520383,0.0264 0.03294,0.0329 0,0.0963 -0.05271,0.14676 -0.05307,0.0505 -0.126497,0.0882 -0.174678,0.0698 -0.06212,-0.0238 -0.09081,-5.3e-4 -0.08734,0.047 0.0034,0.0474 0.03926,0.11918 0.104907,0.19172 0.06302,0.0696 0.08255,0.13382 0.06408,0.17932 -0.01852,0.0455 -0.07527,0.0723 -0.16383,0.0656 -0.08419,-0.006 -0.113479,-0.0488 -0.09197,-0.13126 0.02709,-0.10354 0.0074,-0.1365 -0.03773,-0.11111 -0.04506,0.0254 -0.115226,0.1093 -0.190156,0.23978 -0.06882,0.11984 -0.10541,0.1807 -0.133853,0.1943 -0.02844,0.0136 -0.04874,-0.0202 -0.08578,-0.0894 -0.04231,-0.0789 -0.07699,-0.19093 -0.07699,-0.24908 0,-0.0581 -0.03051,-0.10542 -0.06771,-0.10542 -0.07969,0 -0.08811,-0.26783 -0.01243,-0.38705 0.03061,-0.0481 0.143748,-0.0716 0.26924,-0.0558 0.119115,0.0151 0.216535,10e-4 0.216535,-0.0315 z m -5.583634,2.36574 c 0.093,-7.9e-4 0.116999,0.0347 0.09094,0.13436 -0.0272,0.10416 -0.0026,0.1351 0.110067,0.13539 0.08012,1.6e-4 0.261541,0.0325 0.403093,0.0718 0.11803,0.0327 0.181927,0.0549 0.213942,0.0935 0.03199,0.0386 0.03228,0.0937 0.02275,0.19172 -0.01376,0.14002 -0.07305,0.23564 -0.196876,0.29662 -0.123852,0.061 -0.311971,0.0872 -0.583962,0.0879 -0.334592,7.9e-4 -0.422699,-0.0204 -0.422699,-0.10232 0,-0.0569 -0.04553,-0.12126 -0.101282,-0.14263 -0.06559,-0.0252 -0.09819,-0.0651 -0.09819,-0.0987 0,-0.0336 0.0326,-0.0605 0.09819,-0.0605 0.0557,0 0.101282,-0.0456 0.101282,-0.10128 0,-0.0557 -0.03194,-0.10129 -0.07133,-0.10129 -0.0394,0 -0.05353,-0.029 -0.03151,-0.0646 0.02196,-0.0355 0.08993,-0.0456 0.150892,-0.0222 0.04315,0.0165 0.06787,0.0203 0.07752,0.008 0.0095,-0.0125 0.0042,-0.0414 -0.01455,-0.0899 -0.02646,-0.0688 -0.01376,-0.12698 0.03048,-0.16846 0.04437,-0.0415 0.120358,-0.0664 0.221191,-0.0672 z m 9.029409,0.13436 c 0.09009,0 0.135387,0.0448 0.135387,0.13488 0,0.0651 -0.03334,0.11081 -0.07802,0.12867 -0.04469,0.0179 -0.10078,0.008 -0.147267,-0.0388 -0.04651,-0.0465 -0.05665,-0.10262 -0.03876,-0.14727 0.01773,-0.0446 0.06358,-0.0775 0.128667,-0.0775 z m -7.922498,1.82315 c 0.06829,0 0.07244,0.032 0.01693,0.13539 -0.04524,0.0845 -0.0721,0.12661 -0.08734,0.12661 -0.01535,0 -0.01905,-0.0421 -0.01905,-0.12661 v 0 c 0,-0.0743 0.0399,-0.13539 0.0889,-0.13539 z m -13.158893,0.709 c 0.03709,-0.0229 0.06768,-0.0113 0.06768,0.0258 0,0.0371 -0.03048,0.0866 -0.06768,0.10955 -0.0372,0.0229 -0.06771,0.0113 -0.06771,-0.0258 0,-0.0371 0.03051,-0.0866 0.06771,-0.10956 z m 13.820351,0.0568 c 0.0058,0.0276 -0.01614,0.0815 -0.06874,0.1509 -0.04326,0.0571 -0.06805,0.0861 -0.08218,0.0884 -0.01402,0.002 -0.01773,-0.0222 -0.01852,-0.0723 0,-0.0628 0.03069,-0.13417 0.0703,-0.15865 0.05953,-0.0368 0.09329,-0.0358 0.09922,-0.008 z m -13.911818,0.20102 c 0.0363,0.0363 -0.160999,0.45114 -0.214471,0.45114 -0.01773,0 -0.03204,-0.0163 -0.03204,-0.0367 0,-0.0837 0.215291,-0.44566 0.246512,-0.41445 z m 19.31924,0.046 c 0.108479,0 0.29972,0.15235 0.29972,0.23875 0,0.0598 -0.03609,0.0921 -0.08631,0.0956 -0.05022,0.003 -0.114618,-0.0216 -0.170524,-0.0775 -0.08292,-0.0828 -0.111892,-0.25684 -0.04289,-0.25684 z m -19.70061,0.67541 c 0.0372,0 0.06768,0.0306 0.06768,0.0677 0,0.0371 -0.03048,0.0672 -0.06768,0.0672 -0.0372,0 -0.06771,-0.0301 -0.06771,-0.0672 0,-0.0371 0.03051,-0.0677 0.06771,-0.0677 z m -0.661458,1.75597 c 0.05569,0 0.02064,0.29663 -0.07959,0.67283 -0.03299,0.12384 -0.05453,0.13929 -0.08424,0.062 -0.0503,-0.13096 0.08432,-0.73484 0.16383,-0.73484 z m -0.172615,1.26607 c 0.01879,0.0464 0.01879,0.12254 0,0.16898 -0.01878,0.0464 -0.0341,0.008 -0.0341,-0.0847 0,-0.0928 0.01534,-0.13068 0.0341,-0.0842 z m 6.660595,0.5917 c 0.01826,-0.013 0.05741,-0.006 0.111601,0.0279 0.0581,0.0359 0.06503,0.0707 0.01958,0.0987 -0.03858,0.0238 -0.09041,0.0108 -0.115226,-0.0294 -0.03106,-0.0502 -0.03416,-0.0841 -0.01614,-0.0971 z m 18.752343,0.3576 c 0.07475,0.0246 0.157427,0.0907 0.240295,0.19534 0.06771,0.0855 0.150124,0.15554 0.182933,0.15554 0.03278,0 0.135493,0.0756 0.228388,0.16847 0.09292,0.0928 0.231484,0.16898 0.307499,0.16898 0.100489,0 0.137954,0.044 0.137954,0.16071 0,0.0883 0.04559,0.19823 0.101308,0.24443 0.05575,0.0462 0.101283,0.12595 0.101283,0.17725 0,0.0513 0.06109,0.20661 0.135387,0.3452 0.07435,0.1386 0.134858,0.29045 0.134858,0.33745 0,0.047 0.02434,0.0853 0.05324,0.0853 0.02902,0 0.08969,0.0989 0.135387,0.21963 0.0359,0.0949 0.0531,0.15272 0.04858,0.19585 -0.0045,0.0431 -0.0304,0.0715 -0.08009,0.10801 v 0 c -0.06718,0.0493 -0.17653,0.0772 -0.28112,0.0816 -0.104563,0.004 -0.203914,-0.0144 -0.25011,-0.0589 -0.0353,-0.034 -0.140679,-0.0717 -0.233575,-0.0842 -0.07755,-0.0104 -0.120147,-0.024 -0.145732,-0.0796 -0.02567,-0.0555 -0.03411,-0.15294 -0.04339,-0.33125 -0.0164,-0.3144 -5.3e-5,-0.3886 0.08475,-0.3886 0.05763,0 0.104378,-0.0456 0.104378,-0.10129 0,-0.0557 -0.04159,-0.10129 -0.0925,-0.10129 -0.08877,0 -0.764646,-0.49659 -0.870744,-0.63975 -0.0282,-0.0381 -0.06829,-0.14543 -0.0894,-0.23823 -0.02117,-0.0928 -0.0712,-0.23602 -0.111099,-0.31832 -0.05339,-0.11028 -0.05056,-0.17568 0.01032,-0.24908 0.05053,-0.0609 0.116972,-0.0778 0.191743,-0.0532 z m -2.767806,0.22892 c 0.03881,0.0388 0.05432,0.11262 0.03463,0.16382 v 5.3e-4 c -0.02328,0.0604 -0.129646,0.0914 -0.230479,0.092 -0.100859,5.2e-4 -0.195871,-0.0293 -0.195871,-0.0899 0,-0.0644 0.07509,-0.1286 0.161767,-0.16537 0.08665,-0.0368 0.184758,-0.0462 0.229949,-10e-4 z m -15.594912,0.0543 c 0,-0.0865 0.04773,-0.0865 0.101283,0 0.02302,0.0371 0.01032,0.0672 -0.02945,0.0672 -0.0394,0 -0.07183,-0.0301 -0.07183,-0.0672 z m 14.166056,0.11782 c 0.01905,0.0464 0.08993,0.0847 0.157612,0.0847 0.08731,0 0.113639,0.0369 0.09043,0.12557 -0.02275,0.0867 0.01058,0.13748 0.1075,0.16278 0.07728,0.0202 0.141076,0.085 0.141076,0.14418 0,0.0723 0.04389,0.10637 0.115226,0.10284 0.07136,-0.004 0.169968,-0.0448 0.279585,-0.12248 0.140917,-0.0999 0.246592,-0.14944 0.366898,-0.14728 0.120306,0.002 0.255111,0.0562 0.454237,0.16227 0.20439,0.10885 0.48641,0.25806 0.626824,0.33176 0.180816,0.095 0.286147,0.17789 0.320913,0.26097 0.03477,0.0831 0,0.16639 -0.102314,0.26148 -0.06744,0.0633 -0.126868,0.10164 -0.215503,0.12402 -0.08861,0.0224 -0.206296,0.0289 -0.389626,0.0289 -0.247147,0 -0.48596,-0.0365 -0.541046,-0.0822 -0.05424,-0.0452 -0.130202,-0.0622 -0.16899,-0.0382 -0.03881,0.024 -0.0708,0.0123 -0.0708,-0.0264 0,-0.0605 -0.155972,-0.0606 -0.345705,-0.0243 -0.189732,0.0363 -0.413385,0.10901 -0.548296,0.19533 -0.172296,0.11037 -0.37674,0.16648 -0.556048,0.16795 -0.179282,0.002 -0.33311,-0.0519 -0.404098,-0.1602 -0.0503,-0.0767 -0.06935,-0.19034 -0.06149,-0.28473 0.0079,-0.0944 0.04252,-0.1695 0.09922,-0.1695 0.03278,0 0.05943,-0.0844 0.05943,-0.18759 0,-0.10401 0.06048,-0.23924 0.135387,-0.30334 0.07435,-0.0636 0.135599,-0.16921 0.136419,-0.23461 0,-0.0827 0.06813,-0.20281 0.140573,-0.28887 0.07244,-0.0861 0.150257,-0.13806 0.172588,-0.0832 z m -21.992457,1.29759 c 0.04143,-0.0205 0.06691,0.1947 0.05789,0.65423 -0.03331,1.69913 -0.02064,2.31686 0.04961,2.4014 0.04098,0.0494 0.109987,0.30203 0.152956,0.56121 0.04299,0.25917 0.105701,0.5241 0.139541,0.58859 0.03379,0.0645 0.06202,0.26181 0.06252,0.43874 0,0.17691 0.04252,0.50421 0.09353,0.72708 0.05109,0.22284 0.11221,0.55687 0.135917,0.74259 0.03799,0.29786 0.195685,0.7838 0.388593,1.25264 0.192908,0.46884 0.421455,0.92099 0.601001,1.15187 0.103981,0.13372 0.328745,0.53612 0.499719,0.89451 0.170973,0.35841 0.337317,0.65165 0.36949,0.65165 0.07109,0 0.123799,0.12661 0.248047,0.59427 0.06858,0.25819 0.09861,0.42452 0.08268,0.56224 -0.01587,0.13773 -0.07771,0.24654 -0.192775,0.38964 l -0.205661,0.2558 0.17571,0.53382 c 0.195739,0.59492 0.366104,1.24334 0.326575,1.24334 -0.01429,0 -0.137583,-0.17456 -0.274399,-0.3881 -0.375682,-0.58641 -0.796528,-1.40933 -1.18028,-2.27996 -0.383751,-0.87063 -0.730303,-1.78916 -0.956521,-2.56832 -0.180446,-0.62145 -0.332582,-1.2652 -0.455295,-1.91719 -0.122688,-0.652 -0.216165,-1.31241 -0.278527,-1.96784 -0.06236,-0.65544 -0.09356,-1.30557 -0.093,-1.93735 0,-0.63178 0.0332,-1.24522 0.09922,-1.82625 0.05477,-0.48213 0.112051,-0.73814 0.153459,-0.75861 z m 38.578525,2.94039 0.06511,0.16278 c 0.06985,0.17456 0.05453,0.31041 -0.02434,0.23358 1.85e-4,2e-4 0,0.001 0,0.002 v 0 c 0,5.3e-4 0,-0.002 0,-0.002 -0.0268,-0.0279 -0.04723,-0.12695 -0.04495,-0.22221 z m -8.589645,6.04356 c 0.133112,-0.086 0.289851,-0.086 0.23667,0 -0.02302,0.0371 -0.108215,0.0673 -0.189654,0.0667 -0.06017,-5.3e-4 -0.09279,-0.004 -0.09972,-0.0134 -0.0069,-0.01 0.01138,-0.0266 0.05271,-0.0532 z m -15.878625,4.79454 c 0.0866,0 0.0866,0.0478 0,0.10129 -0.0372,0.0229 -0.06771,0.009 -0.06771,-0.0295 0,-0.0393 0.03051,-0.0718 0.06771,-0.0718 z m 14.686439,2.83704 c 0.06585,0.0698 0.11303,0.23238 0.130228,0.3886 0.0172,0.15623 0.0042,0.30613 -0.04908,0.35037 -0.04612,0.0382 -0.103716,0.0497 -0.128164,0.0253 -0.02461,-0.0244 -0.04445,0.0364 -0.04445,0.13539 0,0.0991 -0.03048,0.18035 -0.06768,0.18035 -0.0372,0 -0.06771,0.0298 -0.06771,0.0667 0,0.0776 -0.451194,0.8082 -0.844391,1.36684 -0.205714,0.29224 -0.342027,0.41095 -0.569992,0.49816 -0.343112,0.1311 -0.661458,0.1806 -0.701252,0.10904 -0.01508,-0.027 -0.03096,-0.17267 -0.03567,-0.32402 -0.0034,-0.11226 0.0034,-0.19011 0.03257,-0.25993 0.02908,-0.0698 0.08017,-0.13179 0.163803,-0.21187 0.08924,-0.0854 0.13925,-0.14238 0.162269,-0.20516 0.02302,-0.0628 0.01879,-0.13121 0,-0.23926 -0.02381,-0.14111 0.0037,-0.3076 0.05786,-0.43873 0.05405,-0.13113 0.134487,-0.22686 0.216534,-0.22686 0.09398,0 0.27178,-0.0719 0.449051,-0.16898 0.177298,-0.0971 0.353986,-0.21951 0.445982,-0.32143 0.372586,-0.41271 0.560361,-0.61999 0.667147,-0.71107 0.106759,-0.0911 0.132847,-0.066 0.182404,-0.0134 z m -4.943872,0.6134 v 0 c 0.02302,0.059 0.02011,0.21076 -0.0061,0.33744 -0.0371,0.178 -0.05525,0.19938 -0.08115,0.0951 -0.0468,-0.18878 0.03064,-0.57439 0.08684,-0.43253 z"
       style="fill:#ffffff;fill-opacity:1;stroke-width:0.406908"
       inkscape:connector-curvature="0" />
    <polygon
       transform="matrix(0.4069068,0,0,0.4069068,2.4e-4,223.75696)"
       style="fill:url(#linearGradient5965)"
       points="160,170 80,0 80,80 "
       id="pg_arrowRight" />
    <g
       id="g1179">
      <path
         inkscape:connector-curvature="0"
         id="path6004"
         style="font-style:normal;font-variant:normal;font-weight:500;font-stretch:normal;font-size:7.05556px;line-height:125%;font-family:Exo;-inkscape-font-specification:'Exo Medium';letter-spacing:0px;word-spacing:0px;fill:#ffffff;fill-opacity:1;stroke:none;stroke-width:0.853658px;stroke-linecap:butt;stroke-linejoin:miter;stroke-opacity:1"
         d="M 69.800507,291.14842 75.7875,274.485 h 2.208131 l 5.736586,16.66342 h -2.390243 l -1.365853,-4.3935 h -6.305693 l -1.434146,4.3935 z m 4.530084,-6.37398 h 5.00813 l -2.458537,-7.28456 z" />
      <path
         inkscape:connector-curvature="0"
         id="path6006"
         style="font-style:normal;font-variant:normal;font-weight:500;font-stretch:normal;font-size:7.05556px;line-height:125%;font-family:Exo;-inkscape-font-specification:'Exo Medium';letter-spacing:0px;word-spacing:0px;fill:#ffffff;fill-opacity:1;stroke:none;stroke-width:0.853658px;stroke-linecap:butt;stroke-linejoin:miter;stroke-opacity:1"
         d="m 85.058234,287.73379 q -0.204878,-1.11545 -0.204878,-2.64065 0,-1.52521 0.182131,-2.61789 0.204878,-1.11545 0.523575,-1.77561 0.341466,-0.68293 0.865041,-1.09268 0.910571,-0.66017 2.413009,-0.66017 1.365856,0 2.913821,0.22766 1.570734,0.20488 2.367481,0.40976 v 1.41138 q -2.891056,-0.13657 -4.165856,-0.13657 -1.252031,0 -1.547965,0.0683 -0.273182,0.0455 -0.591872,0.27318 -0.318706,0.22763 -0.478047,0.68293 -0.386993,1.06992 -0.386993,3.02764 0,1.95772 0.227656,2.86829 0.227625,0.88781 0.682925,1.22927 0.47805,0.31871 1.388619,0.31871 1.82114,0 4.234149,-0.15935 l 0.796747,-0.0683 v 1.47968 q -1.593497,0.54634 -3.551221,0.6374 -2.367478,0.11382 -3.050406,-0.0683 -0.682928,-0.15935 -1.229269,-0.54634 -0.523578,-0.40975 -0.86504,-1.06992 -0.318707,-0.68292 -0.523578,-1.79837 z" />
      <path
         inkscape:connector-curvature="0"
         id="path6008"
         style="font-style:normal;font-variant:normal;font-weight:500;font-stretch:normal;font-size:7.05556px;line-height:125%;font-family:Exo;-inkscape-font-specification:'Exo Medium';letter-spacing:0px;word-spacing:0px;fill:#ffffff;fill-opacity:1;stroke:none;stroke-width:0.853658px;stroke-linecap:butt;stroke-linejoin:miter;stroke-opacity:1"
         d="m 95.951273,287.73379 q -0.204878,-1.11545 -0.204878,-2.64065 0,-1.52521 0.182099,-2.61789 0.204878,-1.11545 0.523575,-1.77561 0.341466,-0.68293 0.865041,-1.09268 0.910571,-0.66017 2.413009,-0.66017 1.365851,0 2.913821,0.22766 1.57073,0.20488 2.36748,0.40976 v 1.41138 q -2.89105,-0.13657 -4.16585,-0.13657 -1.252036,0 -1.54797,0.0683 -0.273182,0.0455 -0.591872,0.27318 -0.318706,0.22763 -0.478047,0.68293 -0.386993,1.06992 -0.386993,3.02764 0,1.95772 0.227656,2.86829 0.227625,0.88781 0.682925,1.22927 0.47805,0.31871 1.388621,0.31871 1.82114,0 4.23415,-0.15935 l 0.79674,-0.0683 v 1.47968 q -1.59349,0.54634 -3.55122,0.6374 -2.367475,0.11382 -3.050403,-0.0683 -0.682928,-0.15935 -1.229269,-0.54634 -0.523578,-0.40975 -0.86504,-1.06992 -0.318707,-0.68292 -0.523578,-1.79837 z" />
      <path
         inkscape:connector-curvature="0"
         id="path6010"
         style="font-style:normal;font-variant:normal;font-weight:500;font-stretch:normal;font-size:7.05556px;line-height:125%;font-family:Exo;-inkscape-font-specification:'Exo Medium';letter-spacing:0px;word-spacing:0px;fill:#ffffff;fill-opacity:1;stroke:none;stroke-width:0.853658px;stroke-linecap:butt;stroke-linejoin:miter;stroke-opacity:1"
         d="m 106.63944,285.27525 q 0,-2.4813 0.52358,-3.84716 0.52357,-1.36585 1.66178,-1.91219 1.13821,-0.56911 3.187,-0.56911 3.07317,0 4.21138,1.36586 1.16097,1.36585 1.16097,4.87154 0,3.48293 -1.16097,4.78049 -1.13821,1.29756 -4.18862,1.29756 -3.05041,0 -4.23415,-1.34309 -1.16097,-1.34309 -1.16097,-4.6439 z m 2.41301,-2.95935 q -0.1821,0.50081 -0.25041,1.22927 -0.0683,0.70569 -0.0683,1.68455 0,0.97886 0.0683,1.66179 0.091,0.68293 0.29593,1.13821 0.20488,0.43252 0.43252,0.70569 0.25041,0.2504 0.68293,0.387 0.66016,0.22762 1.61626,0.22762 0.9561,-0.0229 1.41138,-0.0683 0.45529,-0.0683 0.88781,-0.27319 0.45528,-0.22765 0.68293,-0.68292 0.47804,-0.97886 0.47804,-3.05041 0,-2.09431 -0.2504,-2.75447 -0.2504,-0.68293 -0.47805,-0.9561 -0.20488,-0.29593 -0.61464,-0.45528 -0.63739,-0.25041 -1.61625,-0.25041 -0.97887,0 -1.38862,0.0455 -0.40976,0.0455 -0.84228,0.20488 -0.40975,0.13657 -0.6374,0.43252 -0.20488,0.27318 -0.40975,0.77398 z" />
      <path
         inkscape:connector-curvature="0"
         id="path6012"
         style="font-style:normal;font-variant:normal;font-weight:500;font-stretch:normal;font-size:7.05556px;line-height:125%;font-family:Exo;-inkscape-font-specification:'Exo Medium';letter-spacing:0px;word-spacing:0px;fill:#ffffff;fill-opacity:1;stroke:none;stroke-width:0.853658px;stroke-linecap:butt;stroke-linejoin:miter;stroke-opacity:1"
         d="m 119.48878,287.36956 v -8.30895 h 2.09431 v 8.33171 q 0,1.02439 0.50081,1.52521 0.50082,0.50081 1.50244,0.50081 1.00163,0 1.77561,-0.2504 0.77399,-0.27318 2.11708,-0.97887 v -9.12845 h 2.09431 v 12.0878 h -1.57074 l -0.52357,-1.36585 q -0.13658,0.0683 -0.54635,0.3187 -0.40975,0.25041 -0.59187,0.34147 -0.15935,0.0683 -0.52357,0.27318 -0.36423,0.1821 -0.61464,0.27318 -0.22762,0.0683 -0.59187,0.18213 -0.61463,0.1821 -1.43414,0.1821 -1.79838,0 -2.75448,-1.13821 -0.93333,-1.16098 -0.93333,-2.84553 z" />
      <path
         inkscape:connector-curvature="0"
         id="path6014"
         style="font-style:normal;font-variant:normal;font-weight:500;font-stretch:normal;font-size:7.05556px;line-height:125%;font-family:Exo;-inkscape-font-specification:'Exo Medium';letter-spacing:0px;word-spacing:0px;fill:#ffffff;fill-opacity:1;stroke:none;stroke-width:0.853658px;stroke-linecap:butt;stroke-linejoin:miter;stroke-opacity:1"
         d="m 132.09839,291.14842 v -12.08781 h 1.57073 l 0.52358,1.38862 q 0.0683,-0.0455 0.36422,-0.22766 0.31871,-0.20487 0.40976,-0.2504 0.091,-0.0455 0.36423,-0.20488 0.29593,-0.18213 0.40975,-0.22765 0.11383,-0.0455 0.387,-0.1821 0.27318,-0.13658 0.43252,-0.18213 0.15935,-0.0455 0.40975,-0.11383 0.27318,-0.091 0.50081,-0.11383 0.59188,-0.091 1.0244,-0.091 1.77561,0 2.7317,1.16098 0.9561,1.13821 0.9561,2.8 v 8.33171 h -2.09431 v -8.33168 q 0,-1.50244 -1.11544,-1.91219 -0.31871,-0.13658 -1.11545,-0.13658 -0.77399,0 -1.54797,0.27318 -0.77398,0.27318 -2.11707,0.9561 v 9.15122 z" />
      <path
         inkscape:connector-curvature="0"
         id="path6016"
         style="font-style:normal;font-variant:normal;font-weight:500;font-stretch:normal;font-size:7.05556px;line-height:125%;font-family:Exo;-inkscape-font-specification:'Exo Medium';letter-spacing:0px;word-spacing:0px;fill:#ffffff;fill-opacity:1;stroke:none;stroke-width:0.853658px;stroke-linecap:butt;stroke-linejoin:miter;stroke-opacity:1"
         d="m 147.69544,275.66874 v 3.36911 h 3.30081 v 1.88943 h -3.30081 v 5.75935 q 0,1.34309 0.29593,1.86667 0.3187,0.52358 0.93333,0.68293 1.73008,0.47804 1.88943,0.47804 v 1.41139 h -2.20812 q -3.00488,0 -3.00488,-4.30244 v -5.89594 h -2.1626 v -1.41138 l 2.1626,-0.47805 0.45528,-3.36911 z" />
      <path
         inkscape:connector-curvature="0"
         id="path6018"
         style="font-style:normal;font-variant:normal;font-weight:500;font-stretch:normal;font-size:7.05556px;line-height:125%;font-family:Exo;-inkscape-font-specification:'Exo Medium';letter-spacing:0px;word-spacing:0px;fill:#ffffff;fill-opacity:1;stroke:none;stroke-width:0.853658px;stroke-linecap:butt;stroke-linejoin:miter;stroke-opacity:1"
         d="m 152.86079,279.56143 q 2.32195,-0.72846 5.87317,-0.72846 2.2309,0 3.14147,1.50244 0.50081,0.84228 0.50081,2.11707 v 8.69594 h -1.5935 l -0.50081,-1.41138 q -0.0683,0.0683 -0.75122,0.43252 -0.68293,0.34146 -1.8439,0.72845 -1.16098,0.387 -2.04878,0.387 -1.41139,0 -2.29919,-0.84228 -0.86504,-0.84228 -0.86504,-2.23089 v -1.32033 q 0,-1.38862 0.81951,-2.23089 0.84228,-0.86505 2.34472,-0.86505 2.32195,0 3.48293,0 1.16097,0 1.16097,0 0.0229,-0.66016 0.0229,-0.97886 0,-0.34146 -0.0229,-0.54634 0,-0.20488 -0.091,-0.50081 -0.0683,-0.29593 -0.22766,-0.50082 -0.13657,-0.20487 -0.36422,-0.3187 -0.40976,-0.25041 -1.11545,-0.22763 -1.86667,0 -5.62277,0.25041 z m 1.70732,8.44553 q 0,1.36585 1.29756,1.36585 0.75122,0 1.8439,-0.27318 1.11545,-0.29593 1.8439,-0.56911 l 0.72846,-0.27318 v -2.95935 l -4.46179,0.31871 q -1.25203,0.11383 -1.25203,1.41138 z" />
      <path
         inkscape:connector-curvature="0"
         id="path6020"
         style="font-style:normal;font-variant:normal;font-weight:500;font-stretch:normal;font-size:7.05556px;line-height:125%;font-family:Exo;-inkscape-font-specification:'Exo Medium';letter-spacing:0px;word-spacing:0px;fill:#ffffff;fill-opacity:1;stroke:none;stroke-width:0.853658px;stroke-linecap:butt;stroke-linejoin:miter;stroke-opacity:1"
         d="m 164.73305,291.14842 v -12.08781 h 1.57073 l 0.52358,1.38862 q 0.0683,-0.0455 0.36422,-0.22766 0.31871,-0.20487 0.40976,-0.2504 0.091,-0.0455 0.36423,-0.20488 0.29593,-0.18213 0.40975,-0.22765 0.11383,-0.0455 0.387,-0.1821 0.27318,-0.13658 0.43252,-0.18213 0.15935,-0.0455 0.40975,-0.11383 0.27318,-0.091 0.50082,-0.11383 0.59186,-0.091 1.02439,-0.091 1.77561,0 2.7317,1.16098 0.9561,1.13821 0.9561,2.8 v 8.33171 h -2.09431 v -8.33168 q 0,-1.50244 -1.11544,-1.91219 -0.31871,-0.13658 -1.11545,-0.13658 -0.77399,0 -1.54797,0.27318 -0.77398,0.27318 -2.11707,0.9561 v 9.15122 z" />
      <path
         inkscape:connector-curvature="0"
         id="path6022"
         style="font-style:normal;font-variant:normal;font-weight:500;font-stretch:normal;font-size:7.05556px;line-height:125%;font-family:Exo;-inkscape-font-specification:'Exo Medium';letter-spacing:0px;word-spacing:0px;fill:#ffffff;fill-opacity:1;stroke:none;stroke-width:0.853658px;stroke-linecap:butt;stroke-linejoin:miter;stroke-opacity:1"
         d="m 180.3301,275.66874 v 3.36911 h 3.30081 v 1.88943 h -3.30081 v 5.75935 q 0,1.34309 0.29593,1.86667 0.3187,0.52358 0.93333,0.68293 1.73008,0.47804 1.88943,0.47804 v 1.41139 h -2.20812 q -3.00488,0 -3.00488,-4.30244 v -5.89594 h -2.1626 v -1.41138 l 2.1626,-0.47805 0.45529,-3.36911 z" />
      <path
         inkscape:connector-curvature="0"
         id="path6024"
         style="font-style:normal;font-variant:normal;font-weight:500;font-stretch:normal;font-size:7.05556px;line-height:125%;font-family:Exo;-inkscape-font-specification:'Exo Medium';letter-spacing:0px;word-spacing:0px;fill:#ffffff;fill-opacity:1;stroke:none;stroke-width:0.853658px;stroke-linecap:butt;stroke-linejoin:miter;stroke-opacity:1"
         d="m 188.31822,278.94679 q 1.77561,0 3.61951,0.15936 1.86667,0.15935 2.39025,0.27318 v 1.50244 h -5.80488 q -0.86504,0 -1.09268,0.27318 -0.22766,0.27318 -0.22766,0.91057 v 0.91057 q 0,0.81951 0.38699,1.00163 0.31871,0.15935 0.93333,0.15935 h 3.39188 q 1.00162,0 1.70731,0.40976 1.32033,0.75122 1.32033,2.59512 v 1.13821 q 0,2.98211 -2.95935,2.98211 -1.16098,0 -3.46017,-0.15935 -2.29918,-0.1821 -2.91382,-0.34146 v -1.45691 h 6.10082 q 1.13821,0 1.13821,-1.09268 v -0.9561 q 0,-0.75122 -0.43252,-1.00163 -0.27318,-0.13657 -0.70569,-0.13657 h -3.39187 q -1.66179,0 -2.43577,-0.66017 -0.77399,-0.68292 -0.77399,-2.39024 V 282.02 q 0,-1.47967 0.72846,-2.27642 0.72845,-0.79675 2.4813,-0.79675 z" />
      <path
         inkscape:connector-curvature="0"
         id="path6026"
         style="font-style:normal;font-variant:normal;font-weight:500;font-stretch:normal;font-size:7.05556px;line-height:125%;font-family:Exo;-inkscape-font-specification:'Exo Medium';letter-spacing:0px;word-spacing:0px;fill:#ffffff;fill-opacity:1;stroke:none;stroke-width:0.853658px;stroke-linecap:butt;stroke-linejoin:miter;stroke-opacity:1"
         d="m 202.702,279.56143 q 2.32195,-0.72846 5.87318,-0.72846 2.23089,0 3.14146,1.50244 0.50081,0.84228 0.50081,2.11707 v 8.69594 h -1.59349 l -0.50082,-1.41138 q -0.0683,0.0683 -0.75122,0.43252 -0.68293,0.34146 -1.8439,0.72845 -1.16098,0.387 -2.04878,0.387 -1.41138,0 -2.29919,-0.84228 -0.86504,-0.84228 -0.86504,-2.23089 v -1.32033 q 0,-1.38862 0.81951,-2.23089 0.84228,-0.86505 2.34472,-0.86505 2.32195,0 3.48293,0 1.16097,0 1.16097,0 0.0229,-0.66016 0.0229,-0.97886 0,-0.34146 -0.0229,-0.54634 0,-0.20488 -0.091,-0.50081 -0.0683,-0.29593 -0.22762,-0.50082 -0.13658,-0.20487 -0.36423,-0.3187 -0.40976,-0.25041 -1.11545,-0.22763 -1.86667,0 -5.62277,0.25041 z m 1.70732,8.44553 q 0,1.36585 1.29756,1.36585 0.75122,0 1.8439,-0.27318 1.11545,-0.29593 1.84391,-0.56911 l 0.72845,-0.27318 v -2.95935 l -4.46179,0.31871 q -1.25203,0.11383 -1.25203,1.41138 z" />
      <path
         inkscape:connector-curvature="0"
         id="path6028"
         style="font-style:normal;font-variant:normal;font-weight:500;font-stretch:normal;font-size:7.05556px;line-height:125%;font-family:Exo;-inkscape-font-specification:'Exo Medium';letter-spacing:0px;word-spacing:0px;fill:#ffffff;fill-opacity:1;stroke:none;stroke-width:0.853658px;stroke-linecap:butt;stroke-linejoin:miter;stroke-opacity:1"
         d="m 214.57427,291.14842 v -12.08781 h 1.57073 l 0.52358,1.38862 q 0.0683,-0.0455 0.36423,-0.22766 0.3187,-0.20487 0.40975,-0.2504 0.0911,-0.0455 0.36423,-0.20488 0.29593,-0.18213 0.40976,-0.22765 0.11383,-0.0455 0.38699,-0.1821 0.27318,-0.13658 0.43252,-0.18213 0.15935,-0.0455 0.40976,-0.11383 0.27318,-0.091 0.50081,-0.11383 0.59187,-0.091 1.02439,-0.091 1.77561,0 2.73171,1.16098 0.9561,1.13821 0.9561,2.8 v 8.33171 h -2.09431 v -8.33168 q 0,-1.50244 -1.11545,-1.91219 -0.31871,-0.13658 -1.11545,-0.13658 -0.77398,0 -1.54797,0.27318 -0.77398,0.27318 -2.11707,0.9561 v 9.15122 z" />
      <path
         inkscape:connector-curvature="0"
         id="path6030"
         style="font-style:normal;font-variant:normal;font-weight:500;font-stretch:normal;font-size:7.05556px;line-height:125%;font-family:Exo;-inkscape-font-specification:'Exo Medium';letter-spacing:0px;word-spacing:0px;fill:#ffffff;fill-opacity:1;stroke:none;stroke-width:0.853658px;stroke-linecap:butt;stroke-linejoin:miter;stroke-opacity:1"
         d="m 226.55181,285.16143 q 0,-3.59675 1.09268,-5.0309 0.9561,-1.25203 2.86829,-1.25203 1.18374,0 2.39025,0.31871 1.2065,0.29592 1.86666,0.5691 v -6.48781 h 2.07155 v 17.86993 h -1.5935 l -0.47805,-1.32033 q -0.59187,0.45529 -1.91219,0.9561 -1.32033,0.50081 -2.34472,0.50081 -3.96097,0 -3.96097,-6.12358 z m 2.0943,-0.0229 q 0,4.18862 2.09431,4.18862 1.86667,0 4.02927,-0.97886 v -7.01139 q -1.98049,-0.54634 -4.02927,-0.54634 -0.70569,0 -1.13821,0.31871 -0.9561,0.75122 -0.9561,4.02927 z" />
      <path
         inkscape:connector-curvature="0"
         id="path6032"
         style="font-style:normal;font-variant:normal;font-weight:500;font-stretch:normal;font-size:7.05556px;line-height:125%;font-family:Exo;-inkscape-font-specification:'Exo Medium';letter-spacing:0px;word-spacing:0px;fill:#ffffff;fill-opacity:1;stroke:none;stroke-width:0.853658px;stroke-linecap:butt;stroke-linejoin:miter;stroke-opacity:1"
         d="M 244.73331,276.51102 V 274.485 h 11.76911 v 2.02602 h -4.89431 v 14.6374 h -2.09431 v -14.6374 z" />
      <path
         inkscape:connector-curvature="0"
         id="path6034"
         style="font-style:normal;font-variant:normal;font-weight:500;font-stretch:normal;font-size:7.05556px;line-height:125%;font-family:Exo;-inkscape-font-specification:'Exo Medium';letter-spacing:0px;word-spacing:0px;fill:#ffffff;fill-opacity:1;stroke:none;stroke-width:0.853658px;stroke-linecap:butt;stroke-linejoin:miter;stroke-opacity:1"
         d="m 255.56661,279.56143 q 2.32195,-0.72846 5.87317,-0.72846 2.2309,0 3.14146,1.50244 0.5008,0.84228 0.5008,2.11707 v 8.69594 h -1.5935 l -0.5008,-1.41138 q -0.0684,0.0683 -0.75121,0.43252 -0.68294,0.34146 -1.84391,0.72845 -1.16097,0.387 -2.04878,0.387 -1.41138,0 -2.29919,-0.84228 -0.86504,-0.84228 -0.86504,-2.23089 v -1.32033 q 0,-1.38862 0.81951,-2.23089 0.84228,-0.86505 2.34472,-0.86505 2.32195,0 3.48293,0 1.16097,0 1.16097,0 0.0226,-0.66016 0.0226,-0.97886 0,-0.34146 -0.0226,-0.54634 0,-0.20488 -0.091,-0.50081 -0.0684,-0.29593 -0.22778,-0.50082 -0.13648,-0.20487 -0.36423,-0.3187 -0.40976,-0.25041 -1.11543,-0.22763 -1.86667,0 -5.62277,0.25041 z m 1.70731,8.44553 q 0,1.36585 1.29756,1.36585 0.75122,0 1.84391,-0.27318 1.11546,-0.29593 1.84389,-0.56911 l 0.72846,-0.27318 v -2.95935 l -4.46178,0.31871 q -1.25204,0.11383 -1.25204,1.41138 z" />
      <path
         inkscape:connector-curvature="0"
         id="path6036"
         style="font-style:normal;font-variant:normal;font-weight:500;font-stretch:normal;font-size:7.05556px;line-height:125%;font-family:Exo;-inkscape-font-specification:'Exo Medium';letter-spacing:0px;word-spacing:0px;fill:#ffffff;fill-opacity:1;stroke:none;stroke-width:0.853658px;stroke-linecap:butt;stroke-linejoin:miter;stroke-opacity:1"
         d="m 266.53148,291.14842 4.32522,-6.05528 -4.32522,-6.03253 h 2.57237 l 3.00487,4.37074 3.07317,-4.37074 h 2.57236 l -4.37071,6.10082 4.18862,5.98699 h -2.39027 l -3.02761,-4.3252 -3.02765,4.3252 z" />
      <path
         inkscape:connector-curvature="0"
         id="path6038"
         style="font-style:normal;font-variant:normal;font-weight:500;font-stretch:normal;font-size:7.05556px;line-height:125%;font-family:Exo;-inkscape-font-specification:'Exo Medium';letter-spacing:0px;word-spacing:0px;fill:#ffffff;fill-opacity:1;stroke:none;stroke-width:0.853658px;stroke-linecap:butt;stroke-linejoin:miter;stroke-opacity:1"
         d="m 285.1096,282.90777 q 0,-1.82114 0.13648,-3.07317 0.15939,-1.25203 0.52359,-2.32195 0.38697,-1.09269 1.00161,-1.77561 1.3431,-1.43415 3.93821,-1.43415 1.13822,0 2.75449,0.18213 1.63903,0.1821 2.8683,0.43252 v 1.66179 q 0,0 -0.13648,0 -0.11389,-0.0229 -0.31877,-0.0229 -0.20488,-0.0229 -0.50084,-0.0455 -0.27328,-0.0229 -0.61463,-0.0229 -0.34146,-0.0229 -0.72843,-0.0455 -0.36424,-0.0229 -0.77399,-0.0455 -0.40976,-0.0229 -0.81951,-0.0455 -0.84229,-0.0229 -1.73011,-0.0229 -0.86504,0 -1.5252,0.2504 -0.66016,0.2504 -1.13822,0.97886 -0.45528,0.70569 -0.66015,1.98049 -0.18198,1.25203 -0.18198,2.68618 0,1.41138 0.0455,2.11707 0.0684,0.70569 0.18197,1.38862 0.13648,0.66016 0.31877,1.20651 0.18197,0.52357 0.47806,0.97886 0.29586,0.43252 0.68294,0.72845 0.79673,0.61464 1.93495,0.61464 2.18535,0 4.66667,-0.11383 l 0.81951,-0.0455 v 1.66179 q -1.13822,0.22763 -2.75449,0.38699 -1.59347,0.13658 -2.20811,0.13658 -0.61463,0 -0.66019,0 -3.09592,0 -4.39349,-2.39025 -1.20649,-2.23089 -1.20649,-5.98699 z" />
      <path
         inkscape:connector-curvature="0"
         id="path6040"
         style="font-style:normal;font-variant:normal;font-weight:500;font-stretch:normal;font-size:7.05556px;line-height:125%;font-family:Exo;-inkscape-font-specification:'Exo Medium';letter-spacing:0px;word-spacing:0px;fill:#ffffff;fill-opacity:1;stroke:none;stroke-width:0.853658px;stroke-linecap:butt;stroke-linejoin:miter;stroke-opacity:1"
         d="m 296.97866,285.27525 q 0,-2.4813 0.52358,-3.84716 0.52359,-1.36585 1.66178,-1.91219 1.13821,-0.56911 3.187,-0.56911 3.07317,0 4.21139,1.36586 1.16096,1.36585 1.16096,4.87154 0,3.48293 -1.16096,4.78049 -1.13822,1.29756 -4.18862,1.29756 -3.05042,0 -4.23416,-1.34309 -1.16097,-1.34309 -1.16097,-4.6439 z m 2.41301,-2.95935 q -0.18197,0.50081 -0.25037,1.22927 -0.0684,0.70569 -0.0684,1.68455 0,0.97886 0.0684,1.66179 0.091,0.68293 0.29587,1.13821 0.20487,0.43252 0.43253,0.70569 0.25037,0.2504 0.68291,0.387 0.66015,0.22762 1.61627,0.22762 0.95609,-0.0229 1.41137,-0.0683 0.45528,-0.0683 0.88782,-0.27319 0.45528,-0.22765 0.6829,-0.68292 0.47806,-0.97886 0.47806,-3.05041 0,-2.09431 -0.25037,-2.75447 -0.25037,-0.68293 -0.47806,-0.9561 -0.20488,-0.29593 -0.61463,-0.45528 -0.63738,-0.25041 -1.61625,-0.25041 -0.97886,0 -1.38862,0.0455 -0.40976,0.0455 -0.84229,0.20488 -0.40976,0.13657 -0.63738,0.43252 -0.20488,0.27318 -0.40976,0.77398 z" />
      <path
         inkscape:connector-curvature="0"
         id="path6042"
         style="font-style:normal;font-variant:normal;font-weight:500;font-stretch:normal;font-size:7.05556px;line-height:125%;font-family:Exo;-inkscape-font-specification:'Exo Medium';letter-spacing:0px;word-spacing:0px;fill:#ffffff;fill-opacity:1;stroke:none;stroke-width:0.853658px;stroke-linecap:butt;stroke-linejoin:miter;stroke-opacity:1"
         d="m 310.03288,291.14842 v -12.08781 h 1.57072 l 0.52359,1.38862 q 0.0684,-0.0455 0.36423,-0.22766 0.31877,-0.20487 0.40975,-0.2504 0.091,-0.0455 0.36423,-0.20488 0.29587,-0.18213 0.40976,-0.22765 0.11389,-0.0455 0.38698,-0.1821 0.27328,-0.13658 0.43253,-0.18213 0.15939,-0.0455 0.40976,-0.11383 0.27328,-0.091 0.5008,-0.11383 0.59186,-0.091 1.0244,-0.091 1.77559,0 2.73171,1.16098 0.95609,1.13821 0.95609,2.8 v 8.33171 h -2.0943 v -8.33168 q 0,-1.50244 -1.11545,-1.91219 -0.31877,-0.13658 -1.11547,-0.13658 -0.77395,0 -1.54794,0.27318 -0.77399,0.27318 -2.11708,0.9561 v 9.15122 z" />
      <path
         inkscape:connector-curvature="0"
         id="path6044"
         style="font-style:normal;font-variant:normal;font-weight:500;font-stretch:normal;font-size:7.05556px;line-height:125%;font-family:Exo;-inkscape-font-specification:'Exo Medium';letter-spacing:0px;word-spacing:0px;fill:#ffffff;fill-opacity:1;stroke:none;stroke-width:0.853658px;stroke-linecap:butt;stroke-linejoin:miter;stroke-opacity:1"
         d="m 324.99253,278.94679 q 1.77563,0 3.61953,0.15936 1.86665,0.15935 2.39024,0.27318 v 1.50244 h -5.80489 q -0.86504,0 -1.09266,0.27318 -0.22779,0.27318 -0.22779,0.91057 v 0.91057 q 0,0.81951 0.38698,1.00163 0.31877,0.15935 0.93334,0.15935 h 3.39188 q 1.00161,0 1.70732,0.40976 1.32032,0.75122 1.32032,2.59512 v 1.13821 q 0,2.98211 -2.95934,2.98211 -1.161,0 -3.46018,-0.15935 -2.29919,-0.1821 -2.91382,-0.34146 v -1.45691 h 6.10082 q 1.13822,0 1.13822,-1.09268 v -0.9561 q 0,-0.75122 -0.43254,-1.00163 -0.27328,-0.13657 -0.70568,-0.13657 h -3.39188 q -1.66177,0 -2.43576,-0.66017 -0.77399,-0.68292 -0.77399,-2.39024 V 282.02 q 0,-1.47967 0.72847,-2.27642 0.72843,-0.79675 2.48128,-0.79675 z" />
      <path
         inkscape:connector-curvature="0"
         id="path6046"
         style="font-style:normal;font-variant:normal;font-weight:500;font-stretch:normal;font-size:7.05556px;line-height:125%;font-family:Exo;-inkscape-font-specification:'Exo Medium';letter-spacing:0px;word-spacing:0px;fill:#ffffff;fill-opacity:1;stroke:none;stroke-width:0.853658px;stroke-linecap:butt;stroke-linejoin:miter;stroke-opacity:1"
         d="m 333.52591,287.36956 v -8.30895 h 2.09431 v 8.33171 q 0,1.02439 0.5008,1.52521 0.50081,0.50081 1.50245,0.50081 1.00162,0 1.7756,-0.2504 0.77399,-0.27318 2.11709,-0.97887 v -9.12845 h 2.0943 v 12.0878 h -1.57072 l -0.52358,-1.36585 q -0.13648,0.0683 -0.54633,0.31871 -0.40976,0.2504 -0.59189,0.34146 -0.15939,0.0683 -0.52359,0.27318 -0.36423,0.1821 -0.61463,0.27318 -0.22746,0.0683 -0.59186,0.18213 -0.61463,0.1821 -1.43414,0.1821 -1.79838,0 -2.75447,-1.13821 -0.93334,-1.16097 -0.93334,-2.84553 z" />
      <path
         inkscape:connector-curvature="0"
         id="path6048"
         style="font-style:normal;font-variant:normal;font-weight:500;font-stretch:normal;font-size:7.05556px;line-height:125%;font-family:Exo;-inkscape-font-specification:'Exo Medium';letter-spacing:0px;word-spacing:0px;fill:#ffffff;fill-opacity:1;stroke:none;stroke-width:0.853658px;stroke-linecap:butt;stroke-linejoin:miter;stroke-opacity:1"
         d="m 346.13553,286.84598 v -13.52195 h 2.09431 v 13.38537 q 0,1.34309 0.29586,1.86666 0.31877,0.52358 0.93334,0.68293 1.73007,0.47805 1.88943,0.47805 v 1.41138 h -2.16261 q -3.05039,0 -3.05039,-4.30244 z" />
      <path
         inkscape:connector-curvature="0"
         id="path6050"
         style="font-style:normal;font-variant:normal;font-weight:500;font-stretch:normal;font-size:7.05556px;line-height:125%;font-family:Exo;-inkscape-font-specification:'Exo Medium';letter-spacing:0px;word-spacing:0px;fill:#ffffff;fill-opacity:1;stroke:none;stroke-width:0.853658px;stroke-linecap:butt;stroke-linejoin:miter;stroke-opacity:1"
         d="m 355.55244,275.66874 v 3.36911 h 3.30082 v 1.88943 h -3.30082 v 5.75935 q 0,1.34309 0.29586,1.86667 0.31877,0.52358 0.93334,0.68293 1.73008,0.47804 1.88943,0.47804 v 1.41139 h -2.20814 q -3.00486,0 -3.00486,-4.30244 v -5.89594 h -2.16261 v -1.41138 l 2.16261,-0.47805 0.45528,-3.36911 z" />
      <path
         inkscape:connector-curvature="0"
         id="path6052"
         style="font-style:normal;font-variant:normal;font-weight:500;font-stretch:normal;font-size:7.05556px;line-height:125%;font-family:Exo;-inkscape-font-specification:'Exo Medium';letter-spacing:0px;word-spacing:0px;fill:#ffffff;fill-opacity:1;stroke:none;stroke-width:0.853658px;stroke-linecap:butt;stroke-linejoin:miter;stroke-opacity:1"
         d="m 360.71778,279.56143 q 2.32197,-0.72846 5.87317,-0.72846 2.23091,0 3.14147,1.50244 0.50081,0.84228 0.50081,2.11707 v 8.69594 h -1.5935 l -0.50081,-1.41138 q -0.0684,0.0683 -0.75121,0.43252 -0.68294,0.34146 -1.8439,0.72845 -1.161,0.387 -2.04878,0.387 -1.4114,0 -2.29919,-0.84228 -0.86503,-0.84228 -0.86503,-2.23089 v -1.32033 q 0,-1.38862 0.81951,-2.23089 0.84226,-0.86505 2.34471,-0.86505 2.32193,0 3.48293,0 1.16096,0 1.16096,0 0.0226,-0.66016 0.0226,-0.97886 0,-0.34146 -0.0226,-0.54634 0,-0.20488 -0.091,-0.50081 -0.0684,-0.29593 -0.22779,-0.50082 -0.13648,-0.20487 -0.36423,-0.3187 -0.40976,-0.25041 -1.11544,-0.22763 -1.86665,0 -5.62276,0.25041 z m 1.70733,8.44553 q 0,1.36585 1.29754,1.36585 0.75124,0 1.84391,-0.27318 1.11547,-0.29593 1.8439,-0.56911 l 0.72846,-0.27318 v -2.95935 l -4.46179,0.31871 q -1.25202,0.11383 -1.25202,1.41138 z" />
      <path
         inkscape:connector-curvature="0"
         id="path6054"
         style="font-style:normal;font-variant:normal;font-weight:500;font-stretch:normal;font-size:7.05556px;line-height:125%;font-family:Exo;-inkscape-font-specification:'Exo Medium';letter-spacing:0px;word-spacing:0px;fill:#ffffff;fill-opacity:1;stroke:none;stroke-width:0.853658px;stroke-linecap:butt;stroke-linejoin:miter;stroke-opacity:1"
         d="m 372.59003,291.14842 v -12.08781 h 1.57073 l 0.52358,1.38862 q 0.0684,-0.0455 0.36423,-0.22766 0.31877,-0.20487 0.40976,-0.2504 0.091,-0.0455 0.36423,-0.20488 0.29586,-0.18213 0.40976,-0.22765 0.11389,-0.0455 0.38697,-0.1821 0.27328,-0.13658 0.43254,-0.18213 0.15938,-0.0455 0.40975,-0.11383 0.27328,-0.091 0.50081,-0.11383 0.59189,-0.091 1.02439,-0.091 1.77563,0 2.73172,1.16098 0.95609,1.13821 0.95609,2.8 v 8.33171 h -2.09431 v -8.33168 q 0,-1.50244 -1.11544,-1.91219 -0.31877,-0.13658 -1.11544,-0.13658 -0.77399,0 -1.54798,0.27318 -0.77398,0.27318 -2.11708,0.9561 v 9.15122 z" />
      <path
         inkscape:connector-curvature="0"
         id="path6056"
         style="font-style:normal;font-variant:normal;font-weight:500;font-stretch:normal;font-size:7.05556px;line-height:125%;font-family:Exo;-inkscape-font-specification:'Exo Medium';letter-spacing:0px;word-spacing:0px;fill:#ffffff;fill-opacity:1;stroke:none;stroke-width:0.853658px;stroke-linecap:butt;stroke-linejoin:miter;stroke-opacity:1"
         d="m 388.1871,275.66874 v 3.36911 h 3.30083 v 1.88943 h -3.30083 v 5.75935 q 0,1.34309 0.29586,1.86667 0.31877,0.52358 0.93334,0.68293 1.73008,0.47804 1.88943,0.47804 v 1.41139 h -2.20813 q -3.00487,0 -3.00487,-4.30244 v -5.89594 h -2.16261 v -1.41138 l 2.16261,-0.47805 0.45528,-3.36911 z" />
      <path
         inkscape:connector-curvature="0"
         id="path6058"
         style="font-style:normal;font-variant:normal;font-weight:500;font-stretch:normal;font-size:7.05556px;line-height:125%;font-family:Exo;-inkscape-font-specification:'Exo Medium';letter-spacing:0px;word-spacing:0px;fill:#ffffff;fill-opacity:1;stroke:none;stroke-width:0.853658px;stroke-linecap:butt;stroke-linejoin:miter;stroke-opacity:1"
         d="m 396.17521,278.94679 q 1.7756,0 3.61951,0.15936 1.86668,0.15935 2.39023,0.27318 v 1.50244 h -5.80486 q -0.86504,0 -1.09269,0.27318 -0.22747,0.27318 -0.22747,0.91057 v 0.91057 q 0,0.81951 0.38698,1.00163 0.31877,0.15935 0.93334,0.15935 h 3.39188 q 1.00161,0 1.7073,0.40976 1.32032,0.75122 1.32032,2.59512 v 1.13821 q 0,2.98211 -2.95935,2.98211 -1.16096,0 -3.46015,-0.15935 -2.29918,-0.1821 -2.91382,-0.34146 v -1.45691 h 6.10082 q 1.13819,0 1.13819,-1.09268 v -0.9561 q 0,-0.75122 -0.4325,-1.00163 -0.27328,-0.13657 -0.70569,-0.13657 h -3.39187 q -1.66181,0 -2.4358,-0.66017 -0.77398,-0.68292 -0.77398,-2.39024 V 282.02 q 0,-1.47967 0.72846,-2.27642 0.72846,-0.79675 2.48132,-0.79675 z" />
    </g>
    <g
       id="g1149"
       transform="translate(8.520282)">
      <path
         inkscape:connector-curvature="0"
         id="path5985"
         style="font-style:normal;font-variant:normal;font-weight:800;font-stretch:normal;font-size:12.7px;line-height:125%;font-family:'Exo 2';-inkscape-font-specification:'Exo 2 Ultra-Bold';letter-spacing:0px;word-spacing:0px;fill:#ffffff;fill-opacity:1;stroke:none;stroke-width:1.02604px;stroke-linecap:butt;stroke-linejoin:miter;stroke-opacity:1"
         d="m 156.13846,261.46549 v 6.00853 h -22.9506 v -6.00853 l 12.31255,-12.4603 h -12.0663 v -6.00853 h 22.40885 v 6.00853 l -12.31256,12.4603 z" />
      <path
         inkscape:connector-curvature="0"
         id="path5987"
         style="font-style:normal;font-variant:normal;font-weight:800;font-stretch:normal;font-size:12.7px;line-height:125%;font-family:'Exo 2';-inkscape-font-specification:'Exo 2 Ultra-Bold';letter-spacing:0px;word-spacing:0px;fill:#ffffff;fill-opacity:1;stroke:none;stroke-width:1.02604px;stroke-linecap:butt;stroke-linejoin:miter;stroke-opacity:1"
         d="m 162.99424,231.96462 h 3.89077 q 2.56101,0 2.56101,2.65951 v 2.56101 q 0,2.61026 -2.56101,2.61026 h -3.89077 q -2.61026,0 -2.61026,-2.61026 v -2.56101 q 0,-2.65951 2.61026,-2.65951 z m 6.40253,35.5094 h -8.91429 v -24.47736 h 8.91429 z" />
      <path
         inkscape:connector-curvature="0"
         id="path5989"
         style="font-style:normal;font-variant:normal;font-weight:800;font-stretch:normal;font-size:12.7px;line-height:125%;font-family:'Exo 2';-inkscape-font-specification:'Exo 2 Ultra-Bold';letter-spacing:0px;word-spacing:0px;fill:#ffffff;fill-opacity:1;stroke:none;stroke-width:1.02604px;stroke-linecap:butt;stroke-linejoin:miter;stroke-opacity:1"
         d="m 196.73141,261.46549 v 6.00853 h -22.9506 v -6.00853 l 12.31255,-12.4603 h -12.0663 v -6.00853 h 22.40884 v 6.00853 l -12.31255,12.4603 z" />
      <path
         inkscape:connector-curvature="0"
         id="path5991"
         style="font-style:normal;font-variant:normal;font-weight:800;font-stretch:normal;font-size:12.7px;line-height:125%;font-family:'Exo 2';-inkscape-font-specification:'Exo 2 Ultra-Bold';letter-spacing:0px;word-spacing:0px;fill:#ffffff;fill-opacity:1;stroke:none;stroke-width:1.02604px;stroke-linecap:butt;stroke-linejoin:miter;stroke-opacity:1"
         d="m 244.16399,261.12074 0.985,5.86078 q -2.56101,1.13275 -6.89503,1.13275 -4.77727,0 -6.45178,-3.29976 -1.97001,1.77301 -4.33402,2.56101 -2.31476,0.73875 -6.05777,0.73875 -5.61453,0 -8.07704,-2.11776 -2.41326,-2.11775 -2.41326,-7.19053 0,-4.03851 1.57601,-6.25477 1.576,-2.21626 5.17127,-2.56102 v -0.2955 q -3.00426,-0.2955 -4.33402,-2.16701 -1.32975,-1.8715 -1.32975,-5.66377 0,-2.41326 0.4925,-3.98927 0.4925,-1.62526 1.379,-2.61026 0.93576,-1.03425 2.65952,-1.52676 1.72375,-0.54175 3.69376,-0.6895 2.01926,-0.197 5.22052,-0.197 4.92503,0 8.12629,0.64025 l -1.08351,6.10703 q -5.61452,-0.14775 -7.28903,-0.14775 -2.36401,0 -3.15201,0.73875 -0.73875,0.6895 -0.73875,3.10277 0,2.26551 0.6895,3.05351 0.73875,0.788 2.85651,0.788 h 6.50103 l 0.54175,-4.77727 h 7.58454 v 4.77727 h 4.72802 v 5.81153 h -4.72802 v 6.05777 q 0,1.18201 0.44325,1.67451 0.44325,0.44325 1.52675,0.44325 z m -13.10056,-8.17553 h -6.74728 q -2.21626,0 -2.90576,0.788 -0.68951,0.788 -0.68951,3.20126 0,2.46252 0.64026,3.29977 0.64025,0.788 2.80726,0.73875 3.94002,-0.0985 6.89503,-1.379 z" />
      <path
         inkscape:connector-curvature="0"
         id="path5993"
         style="font-style:normal;font-variant:normal;font-weight:800;font-stretch:normal;font-size:12.7px;line-height:125%;font-family:'Exo 2';-inkscape-font-specification:'Exo 2 Ultra-Bold';letter-spacing:0px;word-spacing:0px;fill:#ffffff;fill-opacity:1;stroke:none;stroke-width:1.02604px;stroke-linecap:butt;stroke-linejoin:miter;stroke-opacity:1"
         d="m 284.47836,259.79099 0.73876,6.74728 q -4.43252,1.52675 -11.4753,1.52675 -8.17554,0 -11.52456,-3.94001 -3.34901,-3.94002 -3.34901,-13.64231 0,-9.7023 3.34901,-13.64231 3.34902,-3.94002 11.52456,-3.94002 6.20552,0 10.73654,1.23126 l -0.6895,6.79652 q -5.02352,-0.14775 -10.04704,-0.14775 -3.05352,0 -4.13702,2.01926 -1.03426,1.97001 -1.03426,7.68304 0,5.71302 1.03426,7.73228 1.0835,1.97001 4.13702,1.97001 7.14128,0 10.73654,-0.394 z" />
      <path
         inkscape:connector-curvature="0"
         id="path5995"
         style="font-style:normal;font-variant:normal;font-weight:800;font-stretch:normal;font-size:12.7px;line-height:125%;font-family:'Exo 2';-inkscape-font-specification:'Exo 2 Ultra-Bold';letter-spacing:0px;word-spacing:0px;fill:#ffffff;fill-opacity:1;stroke:none;stroke-width:1.02604px;stroke-linecap:butt;stroke-linejoin:miter;stroke-opacity:1"
         d="m 301.06106,242.30716 q 7.23979,0 10.1948,2.95501 3.00428,2.90577 3.00428,9.9978 0,7.04278 -3.00428,9.94854 -2.95501,2.85651 -10.1948,2.85651 -7.23978,0 -10.24404,-2.85651 -2.95501,-2.90576 -2.95501,-9.94854 0,-7.09203 3.00426,-9.9978 3.00426,-2.95501 10.19479,-2.95501 z m 0,6.30403 q -2.31476,0 -3.05351,1.32975 -0.73875,1.28051 -0.73875,5.31903 0,3.98926 0.73875,5.26977 0.73875,1.28051 3.05351,1.28051 2.26551,0 3.00427,-1.28051 0.788,-1.28051 0.788,-5.26977 0,-4.03852 -0.788,-5.31903 -0.73876,-1.32975 -3.00427,-1.32975 z" />
      <path
         inkscape:connector-curvature="0"
         id="path5997"
         style="font-style:normal;font-variant:normal;font-weight:800;font-stretch:normal;font-size:12.7px;line-height:125%;font-family:'Exo 2';-inkscape-font-specification:'Exo 2 Ultra-Bold';letter-spacing:0px;word-spacing:0px;fill:#ffffff;fill-opacity:1;stroke:none;stroke-width:1.02604px;stroke-linecap:butt;stroke-linejoin:miter;stroke-opacity:1"
         d="m 320.98814,259.10148 h 2.11776 q 1.77301,0 2.41326,0.68951 0.68951,0.64025 0.68951,2.41326 v 2.16701 q 0,1.77301 -0.68951,2.46251 -0.64025,0.64025 -2.41326,0.64025 h -2.11776 q -1.773,0 -2.46251,-0.64025 -0.64025,-0.6895 -0.64025,-2.46251 v -2.16701 q 0,-1.77301 0.64025,-2.41326 0.68951,-0.68951 2.46251,-0.68951 z" />
      <g
         id="g1057"
         transform="translate(-8.5203,0.64025)">
        <path
           inkscape:connector-curvature="0"
           id="path5981"
           style="font-style:normal;font-variant:normal;font-weight:800;font-stretch:normal;font-size:12.7px;line-height:125%;font-family:'Exo 2';-inkscape-font-specification:'Exo 2 Ultra-Bold';letter-spacing:0px;word-spacing:0px;fill:#ffffff;fill-opacity:1;stroke:none;stroke-width:1.02604px;stroke-linecap:butt;stroke-linejoin:miter;stroke-opacity:1"
           d="M 91.716871,259.39699 H 81.275825 l -2.019259,8.07703 h -9.456041 l 9.308291,-31.56939 q 0.246251,-1.0835 1.083504,-1.72375 0.886504,-0.68951 2.019259,-0.68951 h 8.569538 q 1.132755,0 1.970008,0.68951 0.886504,0.64025 1.182005,1.72375 l 9.25904,31.56939 h -9.45604 z m -1.723758,-6.69803 -2.167009,-8.71729 q -0.541753,-2.56101 -0.640253,-3.54602 h -1.329756 q -0.344751,1.87151 -0.689503,3.54602 l -2.167009,8.71729 z" />
        <path
           inkscape:connector-curvature="0"
           id="path973"
           style="font-style:normal;font-variant:normal;font-weight:800;font-stretch:normal;font-size:12.7px;line-height:125%;font-family:'Exo 2';-inkscape-font-specification:'Exo 2 Ultra-Bold';letter-spacing:0px;word-spacing:0px;fill:#ffffff;fill-opacity:1;stroke:none;stroke-width:1.02604px;stroke-linecap:butt;stroke-linejoin:miter;stroke-opacity:1"
           d="M 126.23974,259.39699 H 115.7987 l -2.01926,8.07703 h -9.45605 l 9.3083,-31.56939 q 0.24625,-1.0835 1.0835,-1.72375 0.8865,-0.68951 2.01926,-0.68951 h 8.56954 q 1.13275,0 1.97001,0.68951 0.8865,0.64025 1.182,1.72375 l 9.25904,31.56939 H 128.259 Z m -1.72376,-6.69803 -2.16701,-8.71729 q -0.54175,-2.56101 -0.64025,-3.54602 h -1.32975 q -0.34476,1.87151 -0.68951,3.54602 l -2.16701,8.71729 z" />
      </g>
    </g>
  </g>
</svg>
